<?xml version="1.0" encoding="utf-8"?>
<!-- Generator: Adobe Illustrator 12.0.1, SVG Export Plug-In . SVG Version: 6.00 Build 51448)  -->
<!DOCTYPE svg PUBLIC "-//W3C//DTD SVG 1.1//EN" "http://www.w3.org/Graphics/SVG/1.1/DTD/svg11.dtd" [
<!ENTITY ns_svg "http://www.w3.org/2000/svg">
<!ENTITY ns_xlink "http://www.w3.org/1999/xlink">
]>
<svg xmlns="http://www.w3.org/2000/svg" xmlns:xlink="http://www.w3.org/1999/xlink" xmlns:svg="http://www.w3.org/2000/svg" xmlns:dc="http://purl.org/dc/elements/1.1/" xmlns:cc="http://web.resource.org/cc/" xmlns:rdf="http://www.w3.org/1999/02/22-rdf-syntax-ns#" version="1.1" id="Layer_1" width="618.603" height="186" viewBox="0 0 618.603 186" overflow="visible" enable-background="new 0 0 618.603 186" xml:space="preserve">
<g>
	<path fill-rule="evenodd" clip-rule="evenodd" fill="#FFFFFF" d="M224.012,3c9.993,3.273,20.091-1.676,27,7   c2.064-2.266,6.408,2.641,7-2c3.608,0.759,6.035,7.92,9,6c2.48,4.854,6.337,8.33,8,14c-1.78,0.553-4.153,0.514-5,2   c-14.073-7.261-30.1-12.567-41-23c-2.477,2.543,3.418,5.199,6,6c5.787,6.146,19.851,15.796,32,17c-1.096,3.571-5.371,3.962-6,8   c-11.522-1.192-20.859-4.319-29-11c-0.155-2.822,2.827-2.506,4-4C231.283,14.963,226.201,12.283,224.012,3z"/>
	<path fill-rule="evenodd" clip-rule="evenodd" d="M591.012,41c0.331,1.749,4.854,12.608-3,13c1.309-6.642-3.442-7.225-5-11   c3.37,0.247,2.9-5.981,6-3c-3.646-6.354-12.049-7.952-22-8c-2.377-1.953,1.828-5.596-1-8c-2.745,2.158,0.995,4.592-1,7   c-9.918-0.918-15.776,2.224-23,4c2.174-4.493,8.461-4.872,11-9c-4.619,1.714-9.795,2.872-14,5c1.378-9.014,17.744-19.9,32-13   c-0.811,2.559-4.914,1.865-8,3c-2.96,1.089-5.904,3.654-9,4c3.027,2.96,7.121-1.496,9-3c16.254-4.157,32.976-0.734,31,21   C592.301,43.044,591.422,42.257,591.012,41z"/>
	<path fill-rule="evenodd" clip-rule="evenodd" fill="#FFFFFF" d="M66.012,22c3.959,8.736,19.04,19.476,8,31   c2.774-7.886,3.148-19.73-6-21C68.257,27.755,65.396,26.616,66.012,22z"/>
	<path fill-rule="evenodd" clip-rule="evenodd" fill="#FFFFFF" d="M46.012,28c0.506-1.764,3.803-1.122,5-1   c3.618,0.367,9.607,2.039,11,4C55.725,30.954,52.905,27.439,46.012,28z"/>
	<path fill-rule="evenodd" clip-rule="evenodd" fill="#FFFFFF" d="M63.012,33c1.151-3.235,1.132,2.686,1,4   C62.86,40.235,62.88,34.314,63.012,33z"/>
	<path fill-rule="evenodd" clip-rule="evenodd" fill="#FFFFFF" d="M286.012,33c-0.354,1.313-1.76,1.573-2,3   C281.521,35.593,283.952,32.123,286.012,33z"/>
	<path fill-rule="evenodd" clip-rule="evenodd" d="M439.012,46c-3.41-4.334,3.438-12.334,10-13c2.225,3.007,1.18,3.49,1,8   C445.96,40.326,443.768,44.701,439.012,46z"/>
	<path fill-rule="evenodd" clip-rule="evenodd" fill="#FFFFFF" d="M175.012,35c-0.437,1.23-1.28,2.054-3,2   C172.448,35.77,173.292,34.946,175.012,35z"/>
	<path fill-rule="evenodd" clip-rule="evenodd" fill="#FFFFFF" d="M70.012,36c2.952,6.309-1.321,13.995-7,15   C66.256,46.911,70.217,43.539,70.012,36z"/>
	<path fill-rule="evenodd" clip-rule="evenodd" d="M464.012,57c1.223,1.444,3.816,1.517,5,3c0.026,4.359,0.596,9.262-2,11   c-9.405,1.405-6.415-9.585-14-10c-0.484-5.818,3.355-7.311,5-11c2.729-0.729,2.013,1.987,4,2c-1.103-3.897-5.104-4.897-7-8   c1.264-3.403,4.22-5.114,9-5C468.335,45.177,462.28,51.695,464.012,57z"/>
	<path fill-rule="evenodd" clip-rule="evenodd" fill="#FFFFFF" d="M533.012,45c3.944-0.136-1.676,2.437-2,1   C530.833,45.207,532.398,45.021,533.012,45z"/>
	<path fill-rule="evenodd" clip-rule="evenodd" fill="#FFFFFF" d="M101.012,46c1.05,1.77,3.451,17.871,1,23   C102.203,60.032,100.958,56.145,101.012,46z"/>
	<path fill-rule="evenodd" clip-rule="evenodd" fill="#FFFFFF" d="M426.012,48c1.513-3.53,1.896,1.842,1,2   C426.421,50.104,425.756,48.596,426.012,48z"/>
	<path fill-rule="evenodd" clip-rule="evenodd" fill="#FFFFFF" d="M213.012,49c2.208,0.125,0.425,4.242,1,6   c-0.851,0.184-0.943-0.39-1-1c-0.667,0-1.333,0-2,0C212.031,52.686,211.992,50.314,213.012,49z"/>
	<path fill-rule="evenodd" clip-rule="evenodd" fill="#FFFFFF" d="M349.012,52C346.815,55.055,342.607,50.846,349.012,52L349.012,52   z"/>
	<path fill-rule="evenodd" clip-rule="evenodd" fill="#FFFFFF" d="M290.012,53c1.274,0.226,1.311,2.985,0,3c0,2.333,0,4.667,0,7   c0.723,2.169-1.022,6.364-1,2C288.995,60.65,288.681,56.002,290.012,53z"/>
	<path fill-rule="evenodd" clip-rule="evenodd" fill="#FFFFFF" d="M611.012,59c0.65-2.82,1.161,2.303,1,3   C611.548,64.008,610.133,62.807,611.012,59z"/>
	<path fill-rule="evenodd" clip-rule="evenodd" d="M324.012,65c-0.742,4.257-6.859,3.141-9,6c-3.399-0.066-1.53,5.136-5,5   c-1.785-3.024,0.504-9.082,1-13C315.592,61.654,321.093,62.08,324.012,65z"/>
	<path fill-rule="evenodd" clip-rule="evenodd" d="M326.012,93c-7.369-1.298-13.28-4.053-18-8c1.62-6.466,12.759-1.37,17-1   c5.786-2.213,8.785-7.215,10-14c6.603,5.28,6.854,20.772-4,21c-0.169,2.168,3.547,0.453,5,1c0.997,4.997-3.105,4.895-3,9   c-6.394,0.372-11.735,2.007-17,0c-6.736-2.568-18.741-18.053-18-26c3.265-0.265,2.12,3.88,5,4c-1.028-2.305-3.442-3.225-3-7   c1.774-3.893,3.969-7.364,9-8c-3.238,6.046-0.096,13.151-1,18c-2.323,2.416-2.677-1.562-5-2   C306.082,88.484,317.109,93.6,326.012,93z"/>
	<path fill-rule="evenodd" clip-rule="evenodd" fill="#FFFFFF" d="M244.012,66c0.745-2.255,5.609-0.391,8-1   c0.919,5.414,3.672,8.995,7,12c-5.352,3.531-11.714,5.678-17,10c-4.883,3.993-7.454,11.355-13,12c-3.167-1.793,2.954-4.927,5-8   c2.542-3.818,3.334-8.429,6-11c-0.697-5.03,1.697-6.97,1-12c2,0,4,0,6,0C247.479,65.866,245.583,66.095,244.012,66z"/>
	<path fill-rule="evenodd" clip-rule="evenodd" d="M327.012,67c3.19-0.857,3.093,1.574,5,2c-0.315,7.351-2.481,12.852-10,13   C324.095,77.416,325.927,72.582,327.012,67z"/>
	<path fill-rule="evenodd" clip-rule="evenodd" fill="#FFFFFF" d="M428.012,67c1.755,1.178-0.265,12.312-1,11c0-2.667,0-5.333,0-8   C428.184,69.838,427.855,68.177,428.012,67z"/>
	<path fill-rule="evenodd" clip-rule="evenodd" d="M311.012,80c1.46-4.54,5.827-6.173,8-10C327.81,72.757,318.75,85.246,311.012,80z   "/>
	<path fill-rule="evenodd" clip-rule="evenodd" fill="#FFFFFF" d="M510.012,82c2.779,2.203-0.141,7.126,0,10   C508.049,90.614,508.792,83.514,510.012,82z"/>
	<path fill-rule="evenodd" clip-rule="evenodd" d="M345.012,92c-0.191,3.142-1.858,4.809-5,5   C341.287,94.941,341.606,91.928,345.012,92z"/>
	<path fill-rule="evenodd" clip-rule="evenodd" fill="#FFFFFF" d="M425.012,96c2.256,0.745,0.391,5.609,1,8   C422.105,103.059,425.161,98.955,425.012,96z"/>
	<path fill-rule="evenodd" clip-rule="evenodd" fill="#FFFFFF" d="M226.012,98c-0.92,1.746-3.126,2.207-6,2   C221.245,98.566,223.451,98.105,226.012,98z"/>
	<path fill-rule="evenodd" clip-rule="evenodd" fill="#FFFFFF" d="M74.012,99c1.757,10.909,9.087,16.246,15,23   c-6.153,0.473-10.935-9.055-15-14C74.012,105,74.012,102,74.012,99z"/>
	<path fill-rule="evenodd" clip-rule="evenodd" d="M177.012,106c1.542-2.436,6.909-0.321,8,1c10.031-0.636,18.386-2.947,26-6   C204.522,108.781,187.016,112.792,177.012,106z"/>
	<path fill-rule="evenodd" clip-rule="evenodd" fill="#FFFFFF" d="M269.012,105c3.25-1.912,6.808-0.394,11,1   C277.466,108.479,272.355,105.039,269.012,105z"/>
	<path fill-rule="evenodd" clip-rule="evenodd" fill="#FFFFFF" d="M259.012,108c6.265,1.735,14.484,1.517,18,6   c-1.261,2.155-5.318-1.27-7-2c-2.057,3.943-9.61,2.39-12,6C259.612,113.922,259.887,113.062,259.012,108z"/>
	<path fill-rule="evenodd" clip-rule="evenodd" fill="#FFFFFF" d="M455.012,109C447.852,111.988,443.532,107.883,455.012,109   L455.012,109z"/>
	<path fill-rule="evenodd" clip-rule="evenodd" fill="#FFFFFF" d="M323.012,112c3.66,0.673,4.649,4.018,8,5   c5.238-0.095,6.879-3.788,12-4C340.361,120.864,324.806,120.669,323.012,112z"/>
	<path fill-rule="evenodd" clip-rule="evenodd" fill="#FFFFFF" d="M428.012,113c2.183,4.976,1.96,13.521,6,19   c-4.683-2.657-4.924-7.948-13-9C426.009,122.33,429.609,120.265,428.012,113z"/>
	<path fill-rule="evenodd" clip-rule="evenodd" fill="#FFFFFF" d="M227.012,118c2.007-0.34,3.129,0.204,3,2c-1,0-2,0-3,0   C227.012,119.333,227.012,118.667,227.012,118z"/>
	<path fill-rule="evenodd" clip-rule="evenodd" fill="#FFFFFF" d="M207.012,126c1.357,0.31,0.83,2.504,1,4   C205.694,129.721,205.713,127.329,207.012,126z"/>
	<path fill-rule="evenodd" clip-rule="evenodd" fill="#FFFFFF" d="M419.012,127c2.151-2.085,8.739-0.123,9,3   C425.641,128.371,422.229,127.783,419.012,127z"/>
	<path fill-rule="evenodd" clip-rule="evenodd" fill="#FFFFFF" d="M184.012,128C180.98,131.697,180.643,124.963,184.012,128   L184.012,128z"/>
	<path fill-rule="evenodd" clip-rule="evenodd" d="M163.012,144c-0.856,11.291,5.897,20.423,2,31c-1.479,1.158-2.521,1.158-4,0   c0.565,7.231-7.422,5.911-9,11c-1.978-5.621-10.083-0.377-10-9c1.383,1.035,4.757,4.056,4-1c2.005,1.662,4.648,2.686,5,6   c2.735-0.657,2.216-5.634,6-5c-0.028-0.005,0.086,1.911,0,2c3.804-3.904,1.723-10.123,6-10c-2.114-3.261-0.525-6.629-1-10   c-0.876-6.224-4.074-11.483-4-17c-3.915-4.735-12.139-4.721-14-9c-3,0-6,0-9,0c0.863-1.753,3.725-3.475-1-3   c3.788-5.197,8.997,3.012,15,2C152.435,137.243,160.484,137.861,163.012,144z"/>
	<path fill-rule="evenodd" clip-rule="evenodd" d="M317.012,130c-0.102,2.545-3.727,2.362-5,1   C312.926,127.644,313.871,130.505,317.012,130z"/>
	<path fill-rule="evenodd" clip-rule="evenodd" fill="#FFFFFF" d="M507.012,129c-2.853,6.456,5.384,9.752,6,16   c1.162,0.163,1.779-0.221,2-1c2.045,1.288,1.055,5.611,4,6c-0.826,2.507-3.503,3.163-5,5c-1.239-7.273-5.064-13.07-9-20   c-5.401-0.074-5.3-0.451-9-1C497.805,130.459,502.631,129.953,507.012,129z"/>
	<path fill-rule="evenodd" clip-rule="evenodd" fill="#FFFFFF" d="M171.012,130C174.709,133.032,167.975,133.369,171.012,130   L171.012,130z"/>
	<path fill-rule="evenodd" clip-rule="evenodd" fill="#FFFFFF" d="M429.012,132c-2.525,3.809-13.595-0.929-13,6   c-2.881,0.119-6.546-0.546-8,1c-0.409,2.409,1.826,2.174,1,5c-5.287,0.046-4.557,6.11-10,6c-0.127,1.794,1.224,2.109,1,4   c-3.556,0.111-8.704-1.371-7,4c-1.182-1.151-3.535-1.132-6-1c-2.995,0.658,0.956,2.138,0,4c-5.796-1.256-11.167,3.22-14-1   c-2.306-0.306-1.111,2.889-3,3c-3.975-3.908-8.623-1.019-13-4c-1.701-0.367-1.887,0.78-2,2c-3.256-0.782-5.134-8.148-9-5   c-3.566-6.637-8.468-6.279-12-12c-1.701-0.367-1.887,0.78-2,2c-3.231-4.436-7.433-7.901-9-14c19.196,16.116,41.837,16.679,65,9   C399.566,137.169,411.443,124.567,429.012,132z"/>
	<path fill-rule="evenodd" clip-rule="evenodd" fill="#FFFFFF" d="M437.012,134c5.822,10.731,22.425,4.685,31,12   c15.548-0.881,26.229,3.104,32,12c3.021-10.698-12.429-11.564-21-14c4.439-2.561,9.526-4.474,12-9c4.654-0.321,6.673,1.993,11,2   c-0.161,1.172-1.823,0.844-3,1c0.67,2.996,5.818,1.515,7,4c-4.591,2.491,1.201,3.25,3,5c-0.962,2.889-0.875,7.534,0,10   c-1.938,3.062-6.833,3.167-8,7c-2.332-5.385-6.852-2.432-10-7c-1.23,0.437-2.054,1.279-2,3c-6.792-3.423-16.845,2.563-24-3   c-1.172,0.161-0.844,1.823-1,3c-4.228-0.046-9.083-5.782-12-1c-2.905-3.052-7.073-0.779-11-2c-4.332-1.347-4.501-5.234-9-2   c0.049-2.144-2.328-6.877-4-4c-4.33-3.081-0.349-9.596-1-15C429.896,134.885,433.212,134.2,437.012,134z"/>
	<path fill-rule="evenodd" clip-rule="evenodd" fill="#FFFFFF" d="M318.012,150c1.026,3.36-3.11,1.557-5,2   C313.159,149.813,315.531,149.853,318.012,150z"/>
	<path fill-rule="evenodd" clip-rule="evenodd" fill="#FFFFFF" d="M522.012,151c4.843,5.302,7.312,1.109,13,6   c2.217,0.551,1.424-1.909,3-2c2.338,0.329,4.131,1.202,6,2c-0.926,4.378-3.248,7.357-6,9c-0.773,0.462-1.909-2.007-2-2   c-3.727,0.27-7.747,6.34-12,8c-1.172-0.161-0.844-1.823-1-3c-13.644,7.697-26.569,4-43,0c4.1-9.246,15.515-8.027,21-1   c2.858-3.475,9.061-3.606,10-9C516.401,158.057,520.378,155.699,522.012,151z"/>
	<path fill-rule="evenodd" clip-rule="evenodd" d="M319.012,160c2.182-0.182,3.182,0.818,3,3   C319.83,163.182,318.83,162.182,319.012,160z"/>
	<path fill-rule="evenodd" clip-rule="evenodd" d="M341.012,162c1.742,0.903,3.852,2.237,2,4   C339.897,166.468,339.438,163.485,341.012,162z"/>
	<path fill-rule="evenodd" clip-rule="evenodd" d="M363.012,78c-0.005-5.671,0.702-10.631,2-15c-1.268-5.399-6.485-6.848-8-12   c6.736,0.263,6.424,7.577,15,6c2.082-3.917,8.151-3.848,13-5c-0.649-1.017-2.299-1.034-2-3c2.646-1.687,6.354-2.313,9-4   c0.396-2.396-4.555,0.555-3-3c3.164,0.164,3.343-2.658,7-2c-0.67-2.342,2.154-4.479,6-5c0.895-3.228-3.262-1.405-4-3   c4.863-3.72,4.6-6.59,9-11c-6.827,1.828-9.808,1.101-16,3c-0.529-0.804-1.043-1.624-1-3c-3.009,0.17-2.89,3.955-6,5   c-0.853,0.286-1.949-1.913-3-2c-1.201-0.1-1.404,1.84-2,2c-1.793,0.48-2.677-2.049-3-2c-1.535,0.234-0.833,2.095-3,3   c-2.71,1.131-5.576-1.516-7,4c-0.806,3.122,4.338,5.306,1,10c14.294-1.373,23.113-8.22,33-14c-6.839,10.828-21.684,13.649-34,19   c0.132,2.465,0.151,4.818-1,6c-5.063-0.548-3.099-10.79-1-13c-0.742-3.66-7.657-1.747-9,0c1.617,3.054,4.812-3.324,7,0   c-0.552,3.114-0.816,6.517-2,9c-7.598-2.736-12.405-8.262-20-11c0.575-1.758-1.209-5.875,1-6c-2.397-1.27-2.949-4.384-7-4   c-0.191,3.205,4.909,0.109,4,6c-10.061-5.194-15.27-5.146-29-3c5.69,2.665,13.216-1.433,21,0c0.543,3.457,4.248,3.751,5,7   c-3.713,6.74-7.661,13.338-14,18c-7.812,5.746-21.815,6.242-23,19c-2.217,0.55-1.424-1.91-3-2c0.009,13.662,12.551,23.445,21,32   c4.351-2.062,10.267-0.503,15,0c5.646-5.02,6.774-14.559,14-18c0-2,0-4,0-6c7.609,3.177-1.976,10.917-5,13   c-0.147,5.52-3.988,7.345-6,11c7.969,0.969,5.951-8.049,13-8c0.172-8.234,7.88-14.584-1-19c-3.415,0.585-0.569,7.431-3,9   c-3.962-0.705-1.111-8.222-3-11c3.635-2.122,10.883-0.587,11,4c1.85-0.15,0.613-3.386,2-4c5.496,3.196,8.535,11.821,6,20   c3.905-3.83,1.232-11.508,0-16c11.19,2.589,6.841,20.243-2,22c0,2.333,0,4.667,0,7c-4.883,4.45-12.31,6.357-15,13   c2.688,3.266,6.43-0.837,7-3c14.675-4.122,23.986-4.259,38-7c0.776,0.89,1.075,2.258,1,4c3.582-0.084,5.778-1.555,9-2   c0.513,4.469,4.535,2.45,8,2c1.431,4.902,10.496,2.171,13,6c1.115-0.914,0.314-1.859,1-5c-2.536-0.976-12.188,0.592-17-3   c-10.561-7.883-27.51-29.281-27-37c0.345-5.218,4.705-9.552,10-12c3.331-10.335,10.921-16.412,18-23c2.279-0.279,3.759,0.241,4,2   c8.079-14.844,32.513-25.211,47-12c3.888-3.18,13.49-4.654,17,0c0,2,0,4,0,6c1.896-10.255,19.723-5.587,14,5   c17.222,3.849,6.927,28.844-2,35c8.452,0.838,16.23-10.913,13-22c6.398-1.065,6.469,4.198,9,7c1.127-20.206,8.515-34.152,20-44   c3.965,0.369,9.583-0.917,12,1c0.335,5.335-1.244,8.755-2,13c-11.592,5.075-18.587,14.746-22,28c7.255-12.412,13.32-26.013,30-29   c-10.526,11.474-5.471,38.529-19,47c-3.982-0.351-6.491-2.175-10-3c3.011,2.989,7.051,4.949,10,8c2.324,21.83-6.407,40.8-30,40   c-0.111-1.889-3.306-0.694-3-3c3.201-5.465,9.518-7.815,12-14c-7.608,12.229-26.081,20.257-46,14c8.615,4.678,23.822,4.79,33,1   c1.777,2.354,4.253,7.77,2,11c4.008-0.503,8.102-4.803,14-5c2.246-0.42,0.027-5.306,2-6c3.585,0.614,1.663,6.73,1,9   c1.289,3.378,5.598,3.735,4,10c3.235,1.235,0.765-3.235,4-2c-0.284,5.951,6.535,4.798,7,10c4.723-1.739,5.683,1.038,8,4   c0.934-0.733,1.515-1.818,2-3c5.642,5.339,9.988,0.031,15,6c1.172-0.161,0.844-1.823,1-3c5.92,4.611,12.474,2.681,18,4   c2.369,0.565,4.122,4.519,7,2c0.576,2.091,2.479,2.854,2,6c4.077-6.885-0.352-17.73-6-22c-5.426-4.102-15.571-2.484-18-10   c15.662,4.004,31.584,7.749,29,30c3.643-2.279-0.928-10.492,5-7c-2.974-4.079,0.341-8.289-4-11c-0.168-2.169,3.547-0.453,5-1   c-0.776-3.558-6.788-1.878-7-6c2.465-0.132,4.818-0.151,6,1c-1.052-2.615-4.063-3.271-8-3c-0.551-2.217,1.91-1.424,2-3   c-0.431-2.236-4.929-0.405-7-1c4.026-7.751,12.116,2.977,16,5c-0.6,9.796,1.293,12.633,1,23c-3.736,3.598-7.689,6.977-9,13   c-4.755-0.227-1.319-5.667-7-3c0-1.667,0-3.333,0-5c-4.41,1.907-8.475-2.036-11-5c-3.287,2.666-3.365,0.547-7-1   c-0.973,0.027-0.776,1.224-1,2c-3.061-0.606-5.21-2.123-8-3c-1.681,4.437-8.175,16.771-17,14c-5.003,3.33-9.443,7.223-18,7   c0.097-2.57,3.903-1.43,4-4c-5.287,2.38-10.086,5.247-17,6c-0.424-2.09,0.686-2.647,1-4c-3.333,0-6.667,0-10,0   c2.202-3.402-10.211-2.58-14-5c0.586-2.081,2.102-3.232,3-5c-1.794-0.127-2.109,1.225-4,1c0.697-2.636,4.553-2.114,5-5   c-21.068,0.636-44.224,0.306-57-10c-1.852-5.229-0.411-10.356,0-16c-5.75-0.75-3.006,6.994-10,5c0.244,3.22-3.081,2.796-3,8   c-2.24,2.126-8.803,0.525-6,5c-5.35,2.65-11.657,4.343-14,10c-3.468-1.868-6.416,1.698-8,2c-10.751,2.051-20.039-2.787-30-2   c-3.229-1.329-3.532-6.688-8-4c-1.616-2.384-3.592-4.408-5-7c-6.298,1.74-4.091-6.129-9-3c-4.286-6.048-9.052-11.615-12-19   c1.85-0.15,0.613-3.387,2-4c13.233,9.453,28.448,17.753,54,15c15.789-1.701,26.92-12.88,40-15c-0.615-0.891-1.209-1.788,0-2   c-0.745-2.256-5.609-0.391-8-1c-0.88-3.213,3.296-1.37,3-4c-5.006-0.34-6.994,2.34-12,2c0.869-1.464,1.497-3.17,4-3   c-1.542-2.436-6.909-0.321-8,1c-2.808-5.163-6.587-1.211-12-1c0.586-2.081,2.102-3.232,3-5c-6.716,5.304-11.647,0.796-18,5   c-1.701,0.367-1.887-0.78-2-2c-3.909,1.086-6.236,5.669-11,3c-3.884,2.343-10.057,7.829-14,2c-4.838,4.62-14.775,3.061-18-2   c-2.388,6.307-10.627,10.873-19,8c1.888,1.778,4.038,3.296,8,3c-8.966,4.72-16.797-1.755-26-2c-31.407-0.836-50.2,23.313-72,31   c2.156-2.211,7.673-6.282,10-5c2.259-0.56-1.212-1.56,1-3c20.749-12.368,41.897-33.48,78-24c-7.073-4.594-13.802-9.531-21-14   c-2.802,0.981,1.452,2.668-1,4c-5.841-2.702-6.33,0.717-12-1c-1.012,3.321-5.346,3.32-10,3c-3.791,2.441-4.384,12.632-10,10   c-0.831,2.503-2.74,3.927-3,7c-7.031-4.393-8.5,7.96-14,6c-0.061-0.021-1.169-1.969-1-2c-2.734,0.502-4.108,5.714-9,2   c-7.47,5.8-5.252,13.003-12,19c2.667,0,5.333,0,8,0c1.666,1.987-0.09,1.271,0,4c5.154,1.513,12.698,0.635,15,5   c6.497,0.338,12.954-1.415,18-1c1.66,0.137,1.918,0.394,2,2c4.19-0.144,4.462-4.204,10-3c-0.354,1.313-1.761,1.573-2,3   c4.092-0.574,3.986-5.348,9-5c0,1.333,0,2.667,0,4c3.535-2.465,5.121-6.879,9-9c3.569,0.848,0.12,2.463,1,6   c2.886-1.78,2.9-6.433,7-7c0,1,0,2,0,3c3.991-1.676,2.584-8.75,8-9c0.423,2.09-0.686,2.647-1,4c5.534-0.467,3.081-8.919,9-9   c0,1,0,2,0,3c2.345-5.321,6.27-9.063,8-15c2.555-0.551,4.278,0.127,5-4c4.706,3.557-4.463,8.263-5,13   c4.717,3.665,13.283-2.665,18,1c0.076,4.479-3.705-0.608-7,1c-0.627,3.039,1.28,8.613-1,10c-4.092,1.092,0.135-6.135-5-4   c-6.035,14.176,13.253,17.595,19,8c-1.727-5.872-8.829-1.631-11-8c0.848-2.152,2.463-3.537,6-3c0.467,2.134-1.429,1.904-3,2   c4.501,1.499,8.736,3.264,11,7c-1.5,9.516-16.46,14.35-23,9c-4.381-3.584-2.025-10.664-3-18c-0.732-0.934-1.818-1.515-3-2   c-3.824-0.157-3.25,4.084-5,6c-6.597-1.264-6.231,4.436-9,7c-2.217,0.551-1.424-1.909-3-2c-1.25,2.083-2.449,4.218-4,6   c-4.646-2.866-4.95,2.493-8,4c-1.464-0.869-3.169-1.497-3-4c-2.946,2.72-4.458,6.876-9,8c-0.521-1.479-1.479-2.521-2-4   c-2.198,1.136-3.322,3.345-6,4c-1.701,0.367-1.887-0.78-2-2c-9.835,5.104-17.139-0.023-31,1c0-1,0-2,0-3c-6.695,1.998-9.626-5-14-2   c-3.028-1.223,0.707-3.816,1-5c-5.663-0.996-6.337,2.996-12,2c0.608-5.059,6.405-4.929,9-8c-0.241-2.578-1.721,1.373-4,0   c4.778-4.42,5.284-6.952,9-12c-2.181-5.71-7.22,6.01-8-2c-3.615,0.719-2.857,5.81-7,6c-0.267-3.601,1.847-4.819,2-8   c-0.56-2.259-1.56,1.213-3-1c0.992-2.675,2.061-5.273,2-9c-5.471-2.385-9.386-0.797-16-1c-2.422,1.577-4.422,3.577-6,6   c-17.259,3.322-35.009-5.098-35-19c-1.419,0.086-2.832,0.165-3-1c3.28,5.815-17.008-0.566-16,7c-6.691-0.789-6.578-0.143-12,1   c4.218,3.122,12.55,0.322,18,4c-6.405,3.562-15.445-1.035-22,0c18.97,11.03,39.882,20.117,43,47c-4.135-3.841-4.7-10.794-8-16   c-8.284-13.068-24.882-22.064-42-28c-4.966,6.734-9.666,4.138-13,10c0.914,2.719,1.859-2.664,5-1c-1.317,3.016-3.23,5.437-3,10   c1.09,2.527,2.527-5.609,5-2c-0.605,2.396-1.438,4.562-1,8c1.494,3.299,1.178-3.346,4-2c-0.222,5.969-0.337,5.829-1,11   c3.417,0.75,1.271-4.062,5-3c1.108,1.892,1.276,4.725,2,7c1.352-0.981,1.999-2.668,3-4c2.092,1.241,3.758,2.908,5,5   c1.57-0.43,0.854-3.146,4-2c1.084,2.915,2.086,5.913,5,7c1.172-0.161,0.843-1.823,1-3c4.325,0.009,3.95,4.717,7,6   c3.048-1.223-1.462-3.816,1-5c3.315,0.352,4.338,2.995,6,5c1.44-0.227,0.349-2.984,2-3c4.374-0.068,1.156,6.287,0,7   c-2.932-0.067-3.714-2.286-5-4c-2.306-0.306-1.111,2.889-3,3c-3.492-0.175-5.032-2.301-6-5c-1.907,0.426-1.81,2.857-5,2   c-0.559-2.774-3.441-3.226-4-6c-2.486,3.344-5.643,1.029-7-2c-2.555-1.078-3.5,4.305-5,1c-3.008,1.008-1.772-2.228-2-4   c-3.081-0.748-1.219,3.447-5,2c-1.674-1.659-0.796-5.871-1-9c-10.271,13.668-26.899,11.355-42,13c-3.541,0.793-1.547,7.119-7,6   c-0.612-3.755,1.891-11.219-3-8c-0.479-7.586-1.991-11.27-2-16c-0.241-2.578-1.721,1.373-4,0c-0.649-3.649,0.674-5.326,2-7   c-0.729-2.479-3.009,3.302-5,0c1.817-2.516,1.816-6.851,6-7c-2.315-3.046,1.889-6.254,5-7c-0.443-0.891-0.878-1.788-2-2   c1.854-3.812,8.146-3.188,10-7c-4.774-3.324-8.325,0.809-15-3c-4.912-2.803-10.628-12.419-19-18c-3.454-2.303-7.268-1.965-10-4   c-6.226-4.636-9.681-12.378-10-21c-0.193-5.221,2.056-10.067,2-15c-0.101-8.804-1.224-14.96,9-18c0.466-7.867,4.715-11.952,11-14   c2.483-0.15,4.15,0.517,5,2c3.378-3.622,1.51-12.49,11-10c0.319-2.652-5.602,0.936-4-3c2.359-0.764,6.911-1.971,9,0   c2.882-2.118,3.094-6.906,6-9c7.398,0.732,12.214-1.119,19-1c4.059,3.274,6.578,8.089,13,9c6.927-10.979,25.464-4.438,26,8   c14.591-3.019,17.2,16.534,11,25c2.302,13.804,3.245,31.107-2,42c4.983-0.017,2.696-7.304,8-7c-0.986,4.426-0.154,2.616,1,6   c-4.985,1.454-6.272,0.384-9,7c-2.555-0.111-1.985-3.349-2-6c-2.777,2.46-1.569,11.142-7,8c0.688,4.021-0.958,5.709-1,9   c-2.134,0.467-1.905-1.429-2-3c-2.28,1.387-0.373,6.961-1,10c11.363-13.49,27.49-25.441,49-22c-20.953,4.379-35.791,9.331-47,24   c0.125,2.209,4.242,0.425,6,1c2.954-0.869-2.32-1.497-1-4c3.601-0.268,4.819,1.848,8,2c1.401-0.354,0.086-1.761-1-2   c7.277-5.139,15.945,0.684,21-4c4.729-0.729,6.574,1.426,9,3c0.689-2.688-2.067-1.933-3-3c1.319-5.733,8.616,0.668,10-5   c2.826-0.826,2.591,1.409,5,1c-2.569-1.267-2.017-3.38,2-3c-0.443-0.891-0.878-1.788-2-2c3.21-2.79,8.568-3.433,15-3   c6.928,14.414,33.005,6.678,40-2c1.484-0.437-0.395-1.279,0-3c8.367-5.299,7.341-19.993,13-28c-3.68-5.066-8.061,0.398-11,2   c0.678-4.404,3.145-14.624-2-16c3.344,5.647,1.325,11.414,1,17c-3.272,3.051-6.932,3.16-11,1c-7.051,3.241-8.191,12.878-14,18   c-4.287,3.779-12.275,7.569-18,8c-1.404,0.105-5.875,1.59-6-2c19.548-1.533,32.483-12.457,29-34c2.992,24.194-20.999,39.604-42,30   c15.014-1.986,32.078-1.922,35-16c1.793-0.127,2.109,1.224,4,1c-3.261-1.971-2.376-2.294-2-7c-4.925,17.821-22.181,21.249-44,20   c-0.282-1.615,0.945-1.722,1-3c-5.472,2.755-14.054,0.056-17,7c-2.443-0.638-0.151-4.675,1-5c-0.677-2.188-3.323,1.895-4,3   c-1.969-2.688,3.486-6.476,7-7c0.127,1.793-1.224,2.109-1,4c5.696-0.96-0.926-5.069,1-11c-1.57,0.43-0.854,3.146-4,2   c-8.602-14.45-6.117-43.757,5-53c6.39-3.277,12.574-6.759,20-9c9.192,5.251-2.208,11.077-3,18c11.592-6.023,22.519-32.63,43-16   c0.282,1.615-0.945,1.722-1,3c10.583,2.283,28.651,5.943,21,20c-13.315-1.018-11.497-17.17-27-16c3.529,2.78,7.125,0.976,11,4   c4.849,3.784,5.278,14.15,13,15c3.946-0.387,4.602-4.065,7-6c7.985,5.681,16.49,10.843,20,21c3.983-2.06,8.543-0.311,13,0   c5.585-4.189,10.126-14.393,7-24c-9.056,1.392-11.694,0.468-20-1c-1.118-3.993-7.084-8.8-13-11c-0.753-3.753,3.82-2.18,4-5   c-3.777-7.901-9.261-12.296-10-21c6.066,1.158,10.068-1.707,13,2c0.934-0.733,1.515-1.818,2-3c3.427,2.516,9.12,0.907,12,2   c2.926,1.11,2.493,3.62,4,4c1.096,0.276,5.077-5.21,4,0c2.039-0.627,0.281-5.053,4-4c1.526,4.497,5.511,9.515,10,8   c2.81,6.19,7.56,10.44,9,18c2.158-1.429,4.683-0.536,7-2c8.17-5.161,5.836-18.412,20-18c9.717,0.283,12.302,8.57,20,16   c10.402-0.335,18.865,4.312,27,5c2.223,0.188,8.036,0.49,10,0c4.896-1.222,8.391-5.759,12-7c0.785-0.27,2.581-1.917,3-2   c1.098-0.218,1.746,1.951,3,2c2.258,0.088,5.019-4.56,7-1c2.6-0.4,3.016-2.984,6-3c0,1,0,2,0,3c5.98-4.292,13.974-0.733,22-6   c-5.235,5.988-5.379,11.084-12,15c0.86,0.807,0.594,2.739,2,3c-1.867,4.133-4.867,7.133-9,9c1.211,4.552-7.271,4.813-6,10   c-7.525,1.141-11.039,6.294-19,7C373.8,65.905,371.668,76.863,363.012,78z M370.012,62C371.331,69.725,369.279,57.708,370.012,62   L370.012,62z M236.012,23c-1.173,1.494-4.155,1.178-4,4c8.141,6.681,17.478,9.808,29,11c0.629-4.038,4.904-4.429,6-8   c-12.149-1.204-26.213-10.854-32-17c-2.582-0.801-8.477-3.457-6-6c10.9,10.433,26.927,15.739,41,23c0.847-1.486,3.22-1.447,5-2   c-1.663-5.67-5.52-9.146-8-14c-2.965,1.92-5.392-5.241-9-6c-0.592,4.641-4.936-0.266-7,2c-6.909-8.676-17.007-3.727-27-7   C226.201,12.283,231.283,14.963,236.012,23z M299.012,18c13.2-2.798,16.141,9.2,23,8c-6.941-6.782-26.373-16.506-32-2   C294.72,22.304,294.765,18.9,299.012,18z M46.012,24c7.694,2.027,6.342-4.992,12-5c1.329-0.146,3.721,3.363,4,1   c-1.768-0.898-2.919-2.414-5-3c-4.955,2.765-6.84,6.644-13,6c-6.287,4.713-2.18,19.82-6,27c2.981,3.353,4.911,7.756,9,10   c1.481-4.465-7.186-6.583-7-13C45.952,42.424,37.775,27.542,46.012,24z M98.012,20c-1.184-0.293-3.777-4.028-5-1   C95.344,18.144,97.32,22.497,98.012,20z M68.012,32c9.148,1.27,8.774,13.114,6,21c11.04-11.524-4.041-22.264-8-31   C65.396,26.616,68.257,27.755,68.012,32z M105.012,35c-0.05-5.308-3.125-12.842-6-12C102.644,25.368,102.264,31.748,105.012,35z    M100.012,43c2.408-3.856-7.565-18.396-12-17C93.882,29.796,98.371,34.975,100.012,43z M62.012,31c-1.393-1.961-7.382-3.633-11-4   c-1.197-0.122-4.494-0.764-5,1C52.905,27.439,55.725,30.954,62.012,31z M135.012,77c2.021-18.133,13.567-39.009,30-40   c2.225-0.134,4.24,4.482,6,0c-1.453-0.547-5.168,1.168-5-1c2.408-2.511,12.723-6.932,11-7   C154.703,36.822,134.769,48.661,135.012,77z M430.012,37c4.007-3.327,8.52-6.147,13-9c-5.851,1.149-10.542,3.458-14,7   c-0.529,3.804-2.089,6.578-3,10c-2.812,0.188-2.737,3.263-5,4c3.038,12.763,1.307,17.452,0,31c2.118,1.882,3.434,4.567,4,8   c0.904-2.464-2.04-9.139-2-15c0.014-1.952,1.843-4.072,2-6c0.513-6.268-3.547-12.133-2-18c1.762-0.905,1.652-3.681,4-4   c7.635,1.104,9.559,10.588,5,16c3.225,0.158,4.438,7.497,6,6c-4.422-4.705-4.032-8.206,3-10c2.454,3.613,3.848,15.902-1,18   c-1.666-0.116-0.334-8.176-2-5c1.352,4.409-2.661,8.596-1,10c4.164-3.848,14.905-6.411,13-13c-0.188,2.813-1.739,4.26-5,4   c-0.522-10.831-1.438-16.666-6-22c3.549-2.785,6.614-6.053,12-7c5.635,2.377,5.794,10.538,1,14c-1.834,0.052-3.386-5.125-5-2   c6.04,1.456,1.932,6.85,5,11c-0.129-1.795,0.993-2.34,3-2c-0.564,7.581,12.86,6.452,8,15c-2.99,2.318-11.475-6.016-15,0   c15.967-0.344,29.48,10.32,45,4c-0.772-2.555,3.913-4.598,1-6c-5.401,9.419-18.591,7.53-28,3c-1.037-3.189,1.899-4.903,3-7   c0.627-1.194-0.745-1.283,0-3c1.924-4.434,6.425-3.345,9-5c-1.12,0.72-0.421-2.488,1-2c1.388,0.477,2.854,3.464,3,5   c-1.13,4.203-4.733,5.934-6,10c1.496-0.019,4.09,3.715,5,1c-3.821-2.541,7.804-9.914,1-16c2.685-1.315,5.315-2.685,8-4   c-0.758-3.492,3.026-7.55,0-10c-0.088,6.579-3.242,10.091-8,12c-1.501-2.297-2.404-15.608,2-12c-2.013-7.924-12.985-0.886-14-10   c-0.138,1.862-0.658,3.342-2,4c-1.755-1.578-2.075-4.592-5-5c-6.264-0.93-6.892,3.775-10,6c-1.496-6.644-0.945-14.843-8-13   c0.779,0.221,1.162,0.837,1,2c-5.845,1.489-7.108,7.559-11,11c1.806,2.91,5.757,11.903,1,15c0.263-5.738-1.516-13.245-7-16   C429.851,40.839,430.331,39.319,430.012,37z M267.012,47c7.693-2.981,15.094-11.562,16-18C279.835,37.157,272.38,41.035,267.012,47   z M180.012,33c0.275-2.059,3.725-0.941,4-3C181.36,29.131,177.943,32.442,180.012,33z M55.012,50c3.146-1.854,3.77-6.23,4-11   c-2.752-3.933-9.26-11.301-15-6c1.015,6.669,0.455,24.395,8,18c-8.092-0.68-5.41-12.461-5-17   C57.996,32.909,59.697,43.205,55.012,50z M290.012,35c-2.787,3.366-1.725,10.638-4,17c-3.141,8.784-11.254,11.542-5,18   c-0.042-8.042,2.042-13.958,7-17c-1.211-8.879,5.112-17.978,12-22C297.208,30.877,292.733,31.712,290.012,35z M346.012,33   c-1.329,0.146-3.721-3.363-4-1C343.344,31.851,345.03,36.066,346.012,33z M64.012,37c0.132-1.314,0.151-7.235-1-4   C62.88,34.314,62.86,40.235,64.012,37z M265.012,47c0.83-8.17,8.854-9.146,13-14C271.521,34.854,262.792,39.765,265.012,47z    M284.012,36c0.24-1.427,1.646-1.687,2-3C283.952,32.123,281.521,35.593,284.012,36z M110.012,66c4.411-6.233,11.412-22.544,4-31   C119.789,45.152,111.084,59.759,110.012,66z M132.012,61c2.981-7.028,6.324-18.998,6-26C136.294,43.291,132.242,54.553,132.012,61z    M172.012,37c1.72,0.054,2.563-0.77,3-2C173.292,34.946,172.448,35.77,172.012,37z M63.012,51c5.679-1.005,9.952-8.691,7-15   C70.217,43.539,66.256,46.911,63.012,51z M21.012,71c0.698,6.336,5.102,13.133,8,20c5.198,12.316,7.391,21.76,17,23   c-10.738-6.266-16.209-20.078-21-34c-5.46-15.868-0.336-27.873,3-43c-10.88-1.88-10.023,7.977-15,12   c7.091-0.576,3.953-11.381,13-10C25.333,48.891,19.681,58.927,21.012,71z M277.012,50c-8.502,4.924-26.889,16.584-12,27   c-1.426-4.633-4.158-5.925-4-10c0.351-9.016,10.952-8.234,17-16c1.502-1.929,2.123-5.225,3-7c0.889-1.8,3.078-3.787,2-6   C281.437,42.425,277.036,44.024,277.012,50z M311.012,39c-4.362,4.305-10.405,6.929-10,16c-0.561,1.852-5.295,4.599-3,6   c5.236-9.097,7.417-21.249,21-22C316.345,39,313.679,39,311.012,39z M157.012,70c3.561-9.226,6.059-21.801,18-23   c4.873-0.489,12.952,1.292,16,7c0.56-2.078,1.56-2.119,3-1c-0.962,1.357-1.933,11.156,0,9c-1.167-9.653,2.253-4.785,5-5   c-0.257,0.02,0.958-1.75,2-2c3.231-0.773,7.753,0.08,9-2c-17.009,4.835-20.56-10.175-39-7c-3.396,1.271-3.788,5.546-8,6   c-1.706-6.402,5.376-9.25,4-12C161.058,46.719,158.592,62.24,157.012,70z M402.012,72c-3.377-10.765,5.216-19.811,4-28   C403.373,51.396,397.449,63.782,402.012,72z M531.012,46c0.324,1.437,5.944-1.136,2-1C532.398,45.021,530.833,45.207,531.012,46z    M102.012,69c2.451-5.129,0.05-21.23-1-23C100.958,56.145,102.203,60.032,102.012,69z M427.012,50c0.896-0.158,0.513-5.53-1-2   C425.756,48.596,426.421,50.104,427.012,50z M211.012,54c0.667,0,1.333,0,2,0c0.057,0.61,0.149,1.184,1,1   c-0.575-1.758,1.208-5.875-1-6C211.992,50.314,212.031,52.686,211.012,54z M75.012,56c10.058,2.57,17.008,10.113,23,13   c-4.913-10.168-37.565-20.469-47-14c-0.586,9.021-8.069,18.097-10,25c-4.426,15.822,4.592,35.237,16,35   c-3.443-0.596-4.539-8.743-7-7c0.908,0.274,3.358,3.726,1,4c-18.301-12.994-4.194-36.946,0-55c2.039-0.294,1.961-2.706,4-3   C62.243,55.148,67.927,54.19,75.012,56z M289.012,65c-0.022,4.364,1.723,0.169,1-2c0-2.333,0-4.667,0-7   c1.311-0.015,1.274-2.774,0-3C288.681,56.002,288.995,60.65,289.012,65z M308.012,59c0.396-1.386,5.677-2.833,3-4   C310.615,56.386,305.334,57.833,308.012,59z M430.012,65c2.114-2.748-0.907-9.934-3-8C429.587,58.091,427.887,63.458,430.012,65z    M54.012,61c4.178,13.048-6.835,20.762-6,30c2.693-10.64,10.302-16.365,8-32C63.904,56.717,55.172,56.857,54.012,61z M90.012,70   c-15.326,2.653-16.732-13.927-28-12C72.329,60.355,76.413,74.258,90.012,70z M171.012,68c9.59-1.2,11.266-4.122,16-10   C181.697,61.352,177.952,66.273,171.012,68z M202.012,64c4.82,1.153,2.683-4.65,6-5c2.992,1.856-1.271,7.166,1,8   c0.777-2.223,2.101-3.899,2-7C207.635,56.7,202.955,59.492,202.012,64z M456.012,110c23.041-1.081,47.088-9.489,50-34   c4.19-1.19,1.785,4.215,4,5c2.371-7.635-1.688-12.328-4-18C506.839,96.161,484.039,105.694,456.012,110z M247.012,68c-2,0-4,0-6,0   c0.697,5.03-1.697,6.97-1,12c-2.666,2.571-3.458,7.182-6,11c-2.046,3.073-8.167,6.207-5,8c5.546-0.645,8.117-8.007,13-12   c5.286-4.322,11.648-6.469,17-10c-3.328-3.005-6.081-6.586-7-12c-2.391,0.609-7.255-1.255-8,1   C245.583,66.095,247.479,65.866,247.012,68z M285.012,67c-1.361,6.035-4.786,18.823-5,29c3.094,3.203,11.264,8.217,12,3   C273.687,101.425,285.686,80.298,285.012,67z M395.012,77c0.49,1.444-0.212,3.479,0,5c0.968,6.947,6.234,14.393,10,18   c0.724-4.566-2.766-4.379-5-9c-4.543-9.394-2.477-23.899-12-25C390.862,69.4,393.291,71.929,395.012,77z M427.012,70   c0,2.667,0,5.333,0,8c0.735,1.312,2.755-9.822,1-11C427.855,68.177,428.184,69.838,427.012,70z M14.012,82   c2.735,0.931,4.265,3.069,7,4c0.668,4.332,4.628,5.372,5,10c2.375-2.766-3.182-6.108-3-10c-2.526-2.474-6.066-3.934-8-7   c-0.717-3.98-3.394-11.232-7-9C12.619,71.393,14.038,75.974,14.012,82z M99.012,72C101.734,81.667,98.965,68.641,99.012,72   L99.012,72z M94.012,112c0.433,1.779,2.889,7.265,5,6c-3.348-5.574-4.671-12.537-4-18c1.288-10.479,14.728-16.624,11-27   C102.852,84.168,90.052,95.735,94.012,112z M277.012,100c4.324,2.343,8.341,4.992,12,8c10.555-1.556,14.15,3.85,24,3   c0.953-1.459,6.653-3.24,4-5c-6.673,5.784-12.569,1.371-18,0c-7.534-1.902-15.464-0.875-19-5c-7.744-9.034,1.49-19.442-1-28   C276.047,82.216,274.582,92.357,277.012,100z M403.012,75c-0.814-3.461-2.05,5.792-2,7c0.277,6.747,5.311,13.934,8,17   c-0.776,0.224-1.973,0.027-2,1c5.223,5.11,12.928,7.738,22,9c0.689,4.644,6.068,4.599,5,11c11.67,4.33,17.896,14.104,30,18   c-5.937-8.763-24.097-12.459-29-21c-1.643-2.861,0.768-6.081-2-6c0.294-2.039,2.706-1.961,3-4c-3.133-0.867-5.522-2.478-7-5   c2.241-5.373,3.751-18.214-1-22c1.838,8.007,0.804,17.761-1,25c1.173,1.493,4.155,1.178,4,4   C415.838,103.508,400.48,98.198,403.012,75z M448.012,80c-2.495-3.283-16.884,4.104-14,4C437.695,83.14,447.514,79.344,448.012,80z    M205.012,143c1.127-2.416,5.113-2.584,6,0c3.938-6.641,8.764-0.092,14-5c0.157,1.177-0.172,2.839,1,3   c3.718-1.504,8.947-9.146,12-5c1.562-2.907,3.896-7.058,7-3c0.52-3.813,2.206-6.461,4-9c1.386,0.613,0.15,3.85,2,4   c1.495-4.368,0.122-7.729,1-11c1.376-0.043,2.196,0.471,3,1c1.046-5.593-0.812-8.588,2-13c-8.064-6.621,3.037-14.085,1-24   c-11.395,4.272-18.547,12.787-26,21c1.729,2.187,1.159,5.756,1,8c-1.283,18.112-14.301,26.588-30,22   C203.023,136.757,205.748,140.341,205.012,143z M266.012,84c-1.763,0.286-3.097-4.709-4-2C263.189,82.3,264.522,87.295,266.012,84z    M491.012,86c1.794-1.873,6.138-1.195,7-4C496.448,80.125,490.169,85.635,491.012,86z M510.012,92c-0.141-2.874,2.779-7.797,0-10   C508.792,83.514,508.049,90.614,510.012,92z M410.012,88c-0.485-1.182-1.066-2.267-2-3C407.857,86.337,409.583,90.513,410.012,88z    M413.012,94C417.664,102.997,412.931,91.595,413.012,94L413.012,94z M426.012,104c-0.609-2.391,1.256-7.255-1-8   C425.161,98.955,422.105,103.059,426.012,104z M504.012,104c-1.346,4.117,6.165-11.318,3-6   C505.414,99.402,504.457,101.445,504.012,104z M46.012,118c1.7,0.225,2.474-1.127,0-1c-7.812-1.279-10.368-5.439-14-11   c-1.911-2.926-4.562-10.556-4-7C30.731,108.613,35.709,115.969,46.012,118z M220.012,100c2.874,0.207,5.08-0.254,6-2   C223.451,98.105,221.245,98.566,220.012,100z M47.012,102c0.033,0.1,0.907-0.08,1,0C51.899,107.483,44.651,94.919,47.012,102z    M74.012,108c4.065,4.945,8.847,14.473,15,14c-5.913-6.754-13.243-12.091-15-23C74.012,102,74.012,105,74.012,108z M280.012,106   c-4.192-1.394-7.75-2.912-11-1C272.355,105.039,277.466,108.479,280.012,106z M171.012,117c-4.234-2.1-4.958-7.708-9-10   C161.278,112.966,171.495,117.866,171.012,117z M258.012,118c2.39-3.61,9.943-2.057,12-6c1.682,0.73,5.739,4.155,7,2   c-3.516-4.483-11.735-4.265-18-6C259.887,113.062,259.612,113.922,258.012,118z M455.012,109   C443.532,107.883,447.852,111.988,455.012,109L455.012,109z M443.012,112c2.66,3.36,9.124,8.183,13,7   c-7.445-2.222-10.172-9.161-20-9C435.21,113.802,440.74,111.271,443.012,112z M343.012,113c-5.121,0.212-6.762,3.905-12,4   c-3.351-0.982-4.34-4.327-8-5C324.806,120.669,340.361,120.864,343.012,113z M421.012,123c8.076,1.052,8.317,6.343,13,9   c-4.04-5.479-3.817-14.024-6-19C429.609,120.265,426.009,122.33,421.012,123z M227.012,120c1,0,2,0,3,0c0.129-1.796-0.993-2.34-3-2   C227.012,118.667,227.012,119.333,227.012,120z M307.012,123c5.292,0.925,11.734-2.221,10-5   C314.774,120.763,310.138,121.126,307.012,123z M450.012,120c-2.786,0.374-6.085-3.809-8-1   C444.606,118.817,448.709,122.196,450.012,120z M45.012,144c0.003,3.336-3.253,3.414-3,7c6.703-0.959,2.265,3.001,2,6   c1.862,0.956,3.342-2.995,4,0c-0.306,3.027-3.094,3.572-2,8c1.891,0.225,2.207-1.127,4-1c2.253-22.413,16.533-32.8,34-40   c-3.156,0.489-3.531-1.802-7-1c-0.157,1.177,0.172,2.839-1,3c-7.708-1.552-13.299-1.012-21-1c2.357,0.977,6.343,0.323,6,4   c-4.197-2.273-7.277,0.955-11,2c1.194,6.473-6.02,2.997-3,9C41.759,142.395,39.541,145.251,45.012,144z M107.012,127   c-2.558,1.315-6.282,0.885-4-2c-3.757-0.757-3.383,2.617-5,4C102.408,125.929,105.852,133.308,107.012,127z M208.012,130   c-0.17-1.496,0.357-3.69-1-4C205.713,127.329,205.694,129.721,208.012,130z M428.012,130c-0.261-3.123-6.849-5.085-9-3   C422.229,127.783,425.641,128.371,428.012,130z M184.012,128C180.643,124.963,180.98,131.697,184.012,128L184.012,128z M93.012,135   c6.466-0.856,4.995-2.327-1-1c-1.666-1.987,0.09-1.271,0-4c-24.763-4.574-41.427,20.193-41,44c1.971-2.696,4.55-4.783,8-6   c0.157,1.177-0.172,2.839,1,3c4.335-5.373,10.031-2.419,15-3c-0.012,1.321-1.752,0.914-2,2c5.386,0.663,8.451-8.066,12-3   c3.411-1.256,2.752-6.581,8-6c-1.259-4.741-4.524-7.476-5-13c0.474,3.141-1.247,4.086-3,5   C83.169,146.289,88.775,138.911,93.012,135z M496.012,134c3.7,0.549,3.599,0.926,9,1c3.936,6.93,7.761,12.727,9,20   c1.497-1.837,4.174-2.493,5-5c-2.945-0.389-1.955-4.712-4-6c-0.221,0.779-0.838,1.163-2,1c-0.616-6.248-8.853-9.544-6-16   C502.631,129.953,497.805,130.459,496.012,134z M171.012,130C167.975,133.369,174.709,133.032,171.012,130L171.012,130z    M388.012,141c-23.163,7.679-45.804,7.116-65-9c1.567,6.099,5.769,9.564,9,14c0.113-1.22,0.299-2.367,2-2   c3.532,5.721,8.434,5.363,12,12c3.866-3.148,5.744,4.218,9,5c0.113-1.22,0.299-2.367,2-2c4.377,2.981,9.025,0.092,13,4   c1.889-0.111,0.694-3.306,3-3c2.833,4.22,8.204-0.256,14,1c0.956-1.862-2.995-3.342,0-4c2.465-0.132,4.818-0.151,6,1   c-1.704-5.371,3.444-3.889,7-4c0.224-1.891-1.127-2.206-1-4c5.443,0.11,4.713-5.954,10-6c0.826-2.826-1.409-2.591-1-5   c1.454-1.546,5.119-0.881,8-1c-0.595-6.929,10.475-2.191,13-6C411.443,124.567,399.566,137.169,388.012,141z M427.012,136   c0.651,5.404-3.33,11.919,1,15c1.672-2.877,4.049,1.856,4,4c4.499-3.234,4.668,0.653,9,2c3.927,1.221,8.095-1.052,11,2   c2.917-4.782,7.772,0.954,12,1c0.156-1.177-0.172-2.839,1-3c7.155,5.563,17.208-0.423,24,3c-0.054-1.721,0.77-2.563,2-3   c3.148,4.568,7.668,1.615,10,7c1.167-3.833,6.062-3.938,8-7c-0.875-2.466-0.962-7.111,0-10c-1.799-1.75-7.591-2.509-3-5   c-1.182-2.485-6.33-1.004-7-4c1.177-0.156,2.839,0.172,3-1c-4.327-0.007-6.346-2.321-11-2c-2.474,4.526-7.561,6.439-12,9   c8.571,2.436,24.021,3.302,21,14c-5.771-8.896-16.452-12.881-32-12c-8.575-7.315-25.178-1.269-31-12   C433.212,134.2,429.896,134.885,427.012,136z M313.012,152c1.89-0.443,6.026,1.36,5-2C315.531,149.853,313.159,149.813,313.012,152   z M511.012,159c-0.939,5.394-7.142,5.525-10,9c-5.485-7.027-16.9-8.246-21,1c16.431,4,29.356,7.697,43,0   c0.156,1.177-0.172,2.839,1,3c4.253-1.66,8.273-7.73,12-8c0.091-0.007,1.227,2.462,2,2c2.752-1.643,5.074-4.622,6-9   c-1.869-0.798-3.662-1.671-6-2c-1.576,0.091-0.783,2.551-3,2c-5.688-4.891-8.157-0.698-13-6   C520.378,155.699,516.401,158.057,511.012,159z"/>
	<path fill-rule="evenodd" clip-rule="evenodd" fill="#FFFFFF" d="M370.012,62C369.279,57.708,371.331,69.725,370.012,62L370.012,62   z"/>
	<path fill-rule="evenodd" clip-rule="evenodd" d="M75.012,17c0.547-1.048,5.8,0.859,8-1C82.932,19.044,76.474,18.344,75.012,17z"/>
	<path fill-rule="evenodd" clip-rule="evenodd" fill="#FFFFFF" d="M290.012,24c5.627-14.506,25.059-4.782,32,2   c-6.859,1.2-9.8-10.798-23-8C294.765,18.9,294.72,22.304,290.012,24z"/>
	<path fill-rule="evenodd" clip-rule="evenodd" fill="#FFFFFF" d="M40.012,47c-0.186,6.417,8.481,8.535,7,13   c-4.089-2.244-6.019-6.647-9-10c3.82-7.18-0.287-22.287,6-27c6.16,0.644,8.045-3.235,13-6c2.081,0.586,3.232,2.102,5,3   c-0.279,2.363-2.671-1.146-4-1c-5.658,0.008-4.306,7.027-12,5C37.775,27.542,45.952,42.424,40.012,47z"/>
	<path fill-rule="evenodd" clip-rule="evenodd" fill="#FFFFFF" d="M93.012,19c1.223-3.028,3.816,0.707,5,1   C97.32,22.497,95.344,18.144,93.012,19z"/>
	<path fill-rule="evenodd" clip-rule="evenodd" fill="#FFFFFF" d="M99.012,23c2.875-0.842,5.95,6.692,6,12   C102.264,31.748,102.644,25.368,99.012,23z"/>
	<path fill-rule="evenodd" clip-rule="evenodd" fill="#FFFFFF" d="M88.012,26c4.435-1.396,14.408,13.144,12,17   C98.371,34.975,93.882,29.796,88.012,26z"/>
	<path fill-rule="evenodd" clip-rule="evenodd" fill="#FFFFFF" d="M177.012,29c1.723,0.068-8.592,4.489-11,7   c-0.168,2.168,3.547,0.453,5,1c-1.76,4.482-3.775-0.134-6,0c-16.433,0.991-27.979,21.867-30,40   C134.769,48.661,154.703,36.822,177.012,29z"/>
	<path fill-rule="evenodd" clip-rule="evenodd" fill="#FFFFFF" d="M429.012,42c5.484,2.755,7.263,10.262,7,16   c4.757-3.097,0.806-12.09-1-15c3.892-3.441,5.155-9.511,11-11c0.162-1.163-0.221-1.779-1-2c7.055-1.843,6.504,6.356,8,13   c3.108-2.225,3.736-6.93,10-6c2.925,0.408,3.245,3.422,5,5c1.342-0.658,1.862-2.138,2-4c1.015,9.114,11.987,2.076,14,10   c-4.404-3.608-3.501,9.703-2,12c4.758-1.909,7.912-5.421,8-12c3.026,2.45-0.758,6.508,0,10c-2.685,1.315-5.315,2.685-8,4   c6.804,6.086-4.821,13.459-1,16c-0.91,2.715-3.504-1.019-5-1c1.267-4.066,4.87-5.797,6-10c-0.146-1.536-1.612-4.523-3-5   c-1.421-0.488-2.12,2.72-1,2c-2.575,1.655-7.076,0.566-9,5c-0.745,1.717,0.627,1.806,0,3c-1.101,2.097-4.037,3.811-3,7   c9.409,4.53,22.599,6.419,28-3c2.913,1.402-1.772,3.445-1,6c-15.52,6.32-29.033-4.344-45-4c3.525-6.016,12.01,2.318,15,0   c4.86-8.548-8.564-7.419-8-15c-2.007-0.34-3.129,0.205-3,2c-3.068-4.15,1.04-9.544-5-11c1.614-3.125,3.166,2.052,5,2   c4.794-3.462,4.635-11.623-1-14c-5.386,0.947-8.451,4.215-12,7c4.562,5.334,5.478,11.169,6,22c3.261,0.26,4.812-1.187,5-4   c1.905,6.589-8.836,9.152-13,13c-1.661-1.404,2.352-5.591,1-10c1.666-3.176,0.334,4.884,2,5c4.848-2.098,3.454-14.387,1-18   c-7.032,1.794-7.422,5.295-3,10c-1.562,1.497-2.775-5.842-6-6c4.559-5.412,2.635-14.896-5-16c-2.348,0.319-2.238,3.095-4,4   c-1.547,5.867,2.513,11.732,2,18c-0.157,1.928-1.986,4.048-2,6c-0.04,5.861,2.904,12.536,2,15c-0.566-3.433-1.882-6.118-4-8   c1.307-13.548,3.038-18.237,0-31c2.263-0.737,2.188-3.812,5-4c0.911-3.422,2.471-6.196,3-10c3.458-3.542,8.149-5.851,14-7   c-4.48,2.853-8.993,5.673-13,9C430.331,39.319,429.851,40.839,429.012,42z M450.012,41c0.18-4.51,1.225-4.993-1-8   c-6.562,0.666-13.41,8.666-10,13C443.768,44.701,445.96,40.326,450.012,41z M464.012,39c-4.78-0.114-7.736,1.597-9,5   c1.896,3.103,5.897,4.103,7,8c-1.987-0.013-1.271-2.729-4-2c-1.645,3.689-5.484,5.182-5,11c7.585,0.415,4.595,11.405,14,10   c2.596-1.738,2.026-6.641,2-11c-1.184-1.483-3.777-1.556-5-3C462.28,51.695,468.335,45.177,464.012,39z M470.012,64   c6.905,1.996,13.831-12.308,8-20c-2.125,2.702-7.361,0.095-9-1c-2.631,2.036-3.221,6.113-4,10   C469.46,54.041,471.189,60.32,470.012,64z"/>
	<path fill-rule="evenodd" clip-rule="evenodd" fill="#FFFFFF" d="M283.012,29c-0.906,6.438-8.307,15.019-16,18   C272.38,41.035,279.835,37.157,283.012,29z"/>
	<path fill-rule="evenodd" clip-rule="evenodd" fill="#FFFFFF" d="M184.012,30c-0.275,2.059-3.725,0.941-4,3   C177.943,32.442,181.36,29.131,184.012,30z"/>
	<path fill-rule="evenodd" clip-rule="evenodd" fill="#FFFFFF" d="M47.012,34c-0.41,4.539-3.092,16.32,5,17   c-7.545,6.395-6.985-11.331-8-18c5.74-5.301,12.248,2.067,15,6c-0.23,4.77-0.854,9.146-4,11C59.697,43.205,57.996,32.909,47.012,34   z"/>
	<path fill-rule="evenodd" clip-rule="evenodd" fill="#FFFFFF" d="M300.012,31c-6.888,4.022-13.211,13.121-12,22   c-4.958,3.042-7.042,8.958-7,17c-6.254-6.458,1.859-9.216,5-18c2.275-6.362,1.213-13.634,4-17   C292.733,31.712,297.208,30.877,300.012,31z"/>
	<path fill-rule="evenodd" clip-rule="evenodd" fill="#FFFFFF" d="M342.012,32c0.279-2.363,2.671,1.146,4,1   C345.03,36.066,343.344,31.851,342.012,32z"/>
	<path fill-rule="evenodd" clip-rule="evenodd" fill="#FFFFFF" d="M278.012,33c-4.146,4.854-12.17,5.83-13,14   C262.792,39.765,271.521,34.854,278.012,33z"/>
	<path fill-rule="evenodd" clip-rule="evenodd" fill="#FFFFFF" d="M114.012,35c7.412,8.456,0.411,24.767-4,31   C111.084,59.759,119.789,45.152,114.012,35z"/>
	<path fill-rule="evenodd" clip-rule="evenodd" fill="#FFFFFF" d="M138.012,35c0.324,7.002-3.019,18.972-6,26   C132.242,54.553,136.294,43.291,138.012,35z"/>
	<path fill-rule="evenodd" clip-rule="evenodd" fill="#FFFFFF" d="M26.012,39c-9.047-1.381-5.909,9.424-13,10   c4.977-4.023,4.12-13.88,15-12c-3.336,15.127-8.46,27.132-3,43c4.791,13.922,10.262,27.734,21,34c-9.609-1.24-11.802-10.684-17-23   c-2.898-6.867-7.302-13.664-8-20C19.681,58.927,25.333,48.891,26.012,39z"/>
	<path fill-rule="evenodd" clip-rule="evenodd" fill="#FFFFFF" d="M283.012,38c1.078,2.213-1.111,4.2-2,6   c-0.877,1.775-1.498,5.071-3,7c-6.048,7.766-16.649,6.984-17,16c-0.158,4.075,2.574,5.367,4,10c-14.889-10.416,3.498-22.076,12-27   C277.036,44.024,281.437,42.425,283.012,38z"/>
	<path fill-rule="evenodd" clip-rule="evenodd" fill="#FFFFFF" d="M319.012,39c-13.583,0.751-15.764,12.903-21,22   c-2.295-1.401,2.439-4.148,3-6c-0.405-9.071,5.638-11.695,10-16C313.679,39,316.345,39,319.012,39z"/>
	<path fill-rule="evenodd" clip-rule="evenodd" fill="#FFFFFF" d="M167.012,40c1.376,2.75-5.706,5.598-4,12   c4.212-0.454,4.604-4.729,8-6c18.44-3.175,21.991,11.835,39,7c-1.247,2.08-5.769,1.227-9,2c-1.042,0.25-2.257,2.02-2,2   c-2.747,0.215-6.167-4.653-5,5c-1.933,2.156-0.962-7.643,0-9c-1.44-1.119-2.44-1.078-3,1c-3.048-5.708-11.127-7.489-16-7   c-11.941,1.199-14.439,13.774-18,23C158.592,62.24,161.058,46.719,167.012,40z"/>
	<path fill-rule="evenodd" clip-rule="evenodd" fill="#FFFFFF" d="M406.012,44c1.216,8.189-7.377,17.235-4,28   C397.449,63.782,403.373,51.396,406.012,44z"/>
	<path fill-rule="evenodd" clip-rule="evenodd" fill="#FFFFFF" d="M55.012,54c-2.039,0.294-1.961,2.706-4,3   c-4.194,18.054-18.301,42.006,0,55c2.358-0.274-0.092-3.726-1-4c2.461-1.743,3.557,6.404,7,7c-11.408,0.237-20.426-19.178-16-35   c1.931-6.903,9.414-15.979,10-25c9.435-6.469,42.087,3.832,47,14c-5.992-2.887-12.942-10.43-23-13   C67.927,54.19,62.243,55.148,55.012,54z"/>
	<path fill-rule="evenodd" clip-rule="evenodd" fill="#FFFFFF" d="M311.012,55c2.677,1.167-2.604,2.614-3,4   C305.334,57.833,310.615,56.386,311.012,55z"/>
	<path fill-rule="evenodd" clip-rule="evenodd" fill="#FFFFFF" d="M427.012,57c2.093-1.934,5.114,5.252,3,8   C427.887,63.458,429.587,58.091,427.012,57z"/>
	<path fill-rule="evenodd" clip-rule="evenodd" fill="#FFFFFF" d="M56.012,59c2.302,15.635-5.307,21.36-8,32   c-0.835-9.238,10.178-16.952,6-30C55.172,56.857,63.904,56.717,56.012,59z"/>
	<path fill-rule="evenodd" clip-rule="evenodd" fill="#FFFFFF" d="M62.012,58c11.268-1.927,12.674,14.653,28,12   C76.413,74.258,72.329,60.355,62.012,58z"/>
	<path fill-rule="evenodd" clip-rule="evenodd" fill="#FFFFFF" d="M187.012,58c-4.734,5.878-6.41,8.8-16,10   C177.952,66.273,181.697,61.352,187.012,58z"/>
	<path fill-rule="evenodd" clip-rule="evenodd" fill="#FFFFFF" d="M211.012,60c0.101,3.101-1.223,4.777-2,7   c-2.271-0.834,1.992-6.144-1-8c-3.317,0.35-1.18,6.153-6,5C202.955,59.492,207.635,56.7,211.012,60z"/>
	<path fill-rule="evenodd" clip-rule="evenodd" fill="#FFFFFF" d="M506.012,63c2.312,5.672,6.371,10.365,4,18   c-2.215-0.785,0.19-6.19-4-5c-2.912,24.511-26.959,32.919-50,34C484.039,105.694,506.839,96.161,506.012,63z"/>
	<path fill-rule="evenodd" clip-rule="evenodd" fill="#FFFFFF" d="M292.012,99c-0.736,5.217-8.906,0.203-12-3   c0.214-10.177,3.639-22.965,5-29C285.686,80.298,273.687,101.425,292.012,99z"/>
	<path fill-rule="evenodd" clip-rule="evenodd" fill="#FFFFFF" d="M388.012,66c9.523,1.101,7.457,15.606,12,25   c2.234,4.621,5.724,4.434,5,9c-3.766-3.607-9.032-11.053-10-18c-0.212-1.521,0.49-3.556,0-5   C393.291,71.929,390.862,69.4,388.012,66z"/>
	<path fill-rule="evenodd" clip-rule="evenodd" fill="#FFFFFF" d="M8.012,70c3.606-2.232,6.283,5.02,7,9   c1.934,3.066,5.474,4.526,8,7c-0.182,3.892,5.375,7.234,3,10c-0.372-4.628-4.332-5.668-5-10c-2.735-0.931-4.265-3.069-7-4   C14.038,75.974,12.619,71.393,8.012,70z"/>
	<path fill-rule="evenodd" clip-rule="evenodd" fill="#FFFFFF" d="M99.012,72C98.965,68.641,101.734,81.667,99.012,72L99.012,72z"/>
	<path fill-rule="evenodd" clip-rule="evenodd" fill="#FFFFFF" d="M106.012,73c3.728,10.376-9.712,16.521-11,27   c-0.671,5.463,0.652,12.426,4,18c-2.111,1.265-4.567-4.221-5-6C90.052,95.735,102.852,84.168,106.012,73z"/>
	<path fill-rule="evenodd" clip-rule="evenodd" fill="#FFFFFF" d="M279.012,73c2.49,8.558-6.744,18.966,1,28   c3.536,4.125,11.466,3.098,19,5c5.431,1.371,11.327,5.784,18,0c2.653,1.76-3.047,3.541-4,5c-9.85,0.85-13.445-4.556-24-3   c-3.659-3.008-7.676-5.657-12-8C274.582,92.357,276.047,82.216,279.012,73z"/>
	<path fill-rule="evenodd" clip-rule="evenodd" fill="#FFFFFF" d="M431.012,109c0.155-2.822-2.827-2.507-4-4   c1.804-7.239,2.838-16.993,1-25c4.751,3.786,3.241,16.627,1,22c1.478,2.522,3.867,4.133,7,5c-0.294,2.039-2.706,1.961-3,4   c2.768-0.081,0.357,3.139,2,6c4.903,8.541,23.063,12.237,29,21c-12.104-3.896-18.33-13.67-30-18c1.068-6.401-4.311-6.356-5-11   c-9.072-1.262-16.777-3.89-22-9c0.027-0.973,1.224-0.776,2-1c-2.689-3.066-7.723-10.253-8-17c-0.05-1.208,1.186-10.461,2-7   C400.48,98.198,415.838,103.508,431.012,109z"/>
	<path fill-rule="evenodd" clip-rule="evenodd" fill="#FFFFFF" d="M600.012,78c2.528,5.223-8.752,5.228-8,12   C588.008,83.302,599.489,83.498,600.012,78z"/>
	<path fill-rule="evenodd" clip-rule="evenodd" fill="#FFFFFF" d="M434.012,84c-2.884,0.104,11.505-7.283,14-4   C447.514,79.344,437.695,83.14,434.012,84z"/>
	<path fill-rule="evenodd" clip-rule="evenodd" fill="#FFFFFF" d="M203.012,132c15.699,4.588,28.717-3.888,30-22   c0.159-2.244,0.729-5.813-1-8c7.453-8.213,14.605-16.728,26-21c2.037,9.915-9.064,17.379-1,24c-2.812,4.412-0.954,7.407-2,13   c-0.804-0.529-1.624-1.043-3-1c-0.878,3.271,0.495,6.632-1,11c-1.85-0.15-0.614-3.387-2-4c-1.794,2.539-3.48,5.187-4,9   c-3.104-4.058-5.438,0.093-7,3c-3.053-4.146-8.282,3.496-12,5c-1.172-0.161-0.843-1.823-1-3c-5.236,4.908-10.062-1.641-14,5   c-0.887-2.584-4.873-2.416-6,0C205.748,140.341,203.023,136.757,203.012,132z"/>
	<path fill-rule="evenodd" clip-rule="evenodd" fill="#FFFFFF" d="M262.012,82c0.903-2.709,2.237,2.286,4,2   C264.522,87.295,263.189,82.3,262.012,82z"/>
	<path fill-rule="evenodd" clip-rule="evenodd" fill="#FFFFFF" d="M498.012,82c-0.862,2.805-5.206,2.127-7,4   C490.169,85.635,496.448,80.125,498.012,82z"/>
	<path fill-rule="evenodd" clip-rule="evenodd" fill="#FFFFFF" d="M408.012,85c0.934,0.733,1.515,1.818,2,3   C409.583,90.513,407.857,86.337,408.012,85z"/>
	<path fill-rule="evenodd" clip-rule="evenodd" fill="#FFFFFF" d="M413.012,94C412.931,91.595,417.664,102.997,413.012,94   L413.012,94z"/>
	<path fill-rule="evenodd" clip-rule="evenodd" fill="#FFFFFF" d="M507.012,98c3.165-5.318-4.346,10.117-3,6   C504.457,101.445,505.414,99.402,507.012,98z"/>
	<path fill-rule="evenodd" clip-rule="evenodd" fill="#FFFFFF" d="M28.012,99c-0.562-3.556,2.089,4.074,4,7   c3.632,5.561,6.188,9.721,14,11c2.474-0.127,1.7,1.225,0,1C35.709,115.969,30.731,108.613,28.012,99z"/>
	<path fill-rule="evenodd" clip-rule="evenodd" fill="#FFFFFF" d="M48.012,102c-0.093-0.08-0.967,0.1-1,0   C44.651,94.919,51.899,107.483,48.012,102z"/>
	<path fill-rule="evenodd" clip-rule="evenodd" fill="#FFFFFF" d="M530.012,103c2.852,9.814,8.304,17.029,20,18   C539.021,123.314,530.335,114.683,530.012,103z"/>
	<path fill-rule="evenodd" clip-rule="evenodd" fill="#FFFFFF" d="M162.012,107c4.042,2.292,4.766,7.9,9,10   C171.495,117.866,161.278,112.966,162.012,107z"/>
	<path fill-rule="evenodd" clip-rule="evenodd" fill="#FFFFFF" d="M436.012,110c9.828-0.161,12.555,6.778,20,9   c-3.876,1.183-10.34-3.64-13-7C440.74,111.271,435.21,113.802,436.012,110z"/>
	<path fill-rule="evenodd" clip-rule="evenodd" d="M24.012,119C14.405,117.557,28.275,119,24.012,119L24.012,119z"/>
	<path fill-rule="evenodd" clip-rule="evenodd" fill="#FFFFFF" d="M317.012,118c1.734,2.779-4.708,5.925-10,5   C310.138,121.126,314.774,120.763,317.012,118z"/>
	<path fill-rule="evenodd" clip-rule="evenodd" fill="#FFFFFF" d="M442.012,119c1.915-2.809,5.214,1.374,8,1   C448.709,122.196,444.606,118.817,442.012,119z"/>
	<path fill-rule="evenodd" clip-rule="evenodd" fill="#FFFFFF" d="M47.012,140c-3.02-6.003,4.194-2.527,3-9   c3.723-1.045,6.803-4.273,11-2c0.343-3.677-3.643-3.023-6-4c7.701-0.012,13.292-0.552,21,1c1.172-0.161,0.843-1.823,1-3   c3.469-0.802,3.844,1.489,7,1c-17.467,7.2-31.747,17.587-34,40c-1.793-0.127-2.109,1.225-4,1c-1.094-4.428,1.694-4.973,2-8   c-0.658-2.995-2.138,0.956-4,0c0.265-2.999,4.703-6.959-2-6c-0.253-3.586,3.003-3.664,3-7   C39.541,145.251,41.759,142.395,47.012,140z"/>
	<path fill-rule="evenodd" clip-rule="evenodd" fill="#FFFFFF" d="M98.012,129c1.617-1.383,1.243-4.757,5-4   c-2.282,2.885,1.442,3.315,4,2C105.852,133.308,102.408,125.929,98.012,129z"/>
	<path fill-rule="evenodd" clip-rule="evenodd" fill="#FFFFFF" d="M85.012,153c1.753-0.914,3.474-1.859,3-5   c0.476,5.524,3.741,8.259,5,13c-5.248-0.581-4.589,4.744-8,6c-3.549-5.066-6.614,3.663-12,3c0.248-1.086,1.988-0.679,2-2   c-4.969,0.581-10.665-2.373-15,3c-1.172-0.161-0.843-1.823-1-3c-3.45,1.217-6.029,3.304-8,6c-0.427-23.807,16.237-48.574,41-44   c0.09,2.729-1.666,2.013,0,4c5.995-1.327,7.466,0.144,1,1C88.775,138.911,83.169,146.289,85.012,153z"/>
	<path fill-rule="evenodd" clip-rule="evenodd" d="M584.012,36c-0.163,1.163,0.221,1.779,1,2c-6.955,9.183-25.667,8.007-33,0   c-0.613,2.77-9.093,2.84-11,1C551.514,28.426,572.312,35.267,584.012,36z"/>
	<path fill-rule="evenodd" clip-rule="evenodd" d="M563.012,107c9.187,0.512,21.755-4.239,27-11c6.798-0.202,11.359-2.641,15-6   c13.528,2.623,6.486,19.522,7,29c-5.718,2.907-11.162,0.823-18,2c-8.496,1.462-15.631,7.25-23,7c-5.143-0.174-12.388-3.51-16-6   c-5.616-3.872-9.81-11.383-15-16c6.526,1.807,12.875,3.791,22,3c-8.34-2.326-19.607-1.726-25-7c-0.741,8.085,12.656,10.669,14,20   c2.377,1.957,5.534,3.133,7,6c-3.225,1.598-6.172,5.58-10,6c-4.826,0.529-24.309-7.562-27-12c-5.291-8.724,3.44-15.574,5-25   c4.064,0.109,6.243,1.532,10,4c-0.693-0.807-1.557-2.739,0-3c-0.515-3.485-6.533-1.467-10-2c1.88-5.422,0.264-10.98-1-16   c3.684-4.649,6.156-10.51,11-14c-1.752-3.265,1.624-8.672,4-11c-5.245-0.975-1.316-9.393-2-12c0.807-0.86,2.739-0.594,3-2   c4.482,2.257,7.66-0.709,12,0c3.77,0.616,6.489,3.676,11,4c-3.602,4.398-12.495,3.505-15,9c6.977-0.69,8.879-6.454,17-6   c7.646,25.988-8.979,44.104-29,49c4.302,3.55,13.577-2.826,18-6c8.85-6.35,13.053-17.37,18-26c9.634-2.524,21.191,2.081,30-2   c-2.969,19.77-29.303-6.041-33,13c4.935-12.708,16.675-0.322,25-2c4.766-0.96,2.878-4.111,8-6c2.203,2.322-0.198,5.678-1,8   c4.756-2.667,4.415-11.41,1-15c-5.892,1.828-10.657,2.826-16,3c0-2,0-4,0-6c-2.207,0.793-1.3,4.701-4,5   c-3.905-0.095-3.959-4.042-6-6c-2.522,1.317,2.622,3.283,2,6c-5.263-1.263-5.929,2.071-10,2c0.481-5.186-1.077-12.41,1-16   c3.536,0.797,2.828,5.838,6,7c-0.721-3.946-3.656-5.677-5-9c7.342-4.276,17.357-1.186,16,9c10.427,1.093,5.397-13.27,10-18   c14.607-0.661,21.325,8.651,19,22c9.95,18.985-11.14,28.315-23,35c-1.701,0.367-1.887-0.78-2-2   C585.707,101.695,574.046,104.034,563.012,107z M612.012,62c0.161-0.697-0.35-5.82-1-3C610.133,62.807,611.548,64.008,612.012,62z    M592.012,90c-0.752-6.772,10.528-6.777,8-12C599.489,83.498,588.008,83.302,592.012,90z M550.012,121   c-11.696-0.971-17.148-8.186-20-18C530.335,114.683,539.021,123.314,550.012,121z"/>
	<path fill-rule="evenodd" clip-rule="evenodd" d="M465.012,53c0.779-3.887,1.369-7.964,4-10c1.639,1.095,6.875,3.702,9,1   c5.831,7.692-1.095,21.996-8,20C471.189,60.32,469.46,54.041,465.012,53z"/>
	<path fill-rule="evenodd" clip-rule="evenodd" d="M350.012,53c0.91,1.757,3.504,1.829,5,3c0.535,3.868-1.785,4.882-1,9   c3.503-0.696,2.363-6.03,2-8c8.535-2.089,9.33,21.285,0,19c-0.358-6.866-2.851-5.511-5-10c-3.009,1.395,2.079,5.176-1,7   c-3.542-1.935-5.775,0.025-10,0c-2.994-2.005-1.791-8.209-2-13c3.232,1.101,5.968,2.699,9,4c-4.197-2.802-6.457-7.543-13-8   c-0.688,2.689,2.067,1.933,3,3c0.563,2.658-4.113,5.092-1,7c-7.258,2.907-9.405-7.915-20-5c5.026-6.974,14.658-9.341,27-9   c-4.26-2.557-12.273-0.301-17,0c4.375-3.958,7.382-9.285,12-13c8.519,1.481,14.473,5.527,17,13   C355.379,56.193,351.754,52.714,350.012,53z M349.012,52C342.607,50.846,346.815,55.055,349.012,52L349.012,52z"/>
	<path fill-rule="evenodd" clip-rule="evenodd" d="M207.012,81c4.49,2.458,11.16-1.482,14-4c1.505,20.744-23.315,32.553-46,26   c8.165-7.835,21.216-10.784,25-23c2.409-0.409,2.174,1.826,5,1c2.758-1.009-4.582-1.729-1-4c2.224-2.106,4.822,1.054,9,0   c5.643-0.023,4.461-6.872,11-6C221.017,77.005,215.916,80.904,207.012,81z"/>
</g>
<metadata><rdf:RDF><cc:Work><dc:format>image/svg+xml</dc:format><dc:type rdf:resource="http://purl.org/dc/dcmitype/StillImage"/><cc:license rdf:resource="http://creativecommons.org/licenses/publicdomain/"/><dc:publisher><cc:Agent rdf:about="http://openclipart.org/"><dc:title>Open Clip Art Library</dc:title></cc:Agent></dc:publisher><dc:title>rose border</dc:title><dc:date>2006-11-09T19:35:34</dc:date><dc:description>a decorative border of roses from http://runeberg.org/ordochbild/</dc:description><dc:source>http://openclipart.org/detail/1352/rose-border-by-johnny_automatic</dc:source><dc:creator><cc:Agent><dc:title>johnny_automatic</dc:title></cc:Agent></dc:creator><dc:subject><rdf:Bag><rdf:li>border</rdf:li><rdf:li>border</rdf:li><rdf:li>clip art</rdf:li><rdf:li>clipart</rdf:li><rdf:li>decorative</rdf:li><rdf:li>decorative</rdf:li><rdf:li>divider</rdf:li><rdf:li>divider</rdf:li><rdf:li>externalsource</rdf:li><rdf:li>flower</rdf:li><rdf:li>flower</rdf:li><rdf:li>image</rdf:li><rdf:li>media</rdf:li><rdf:li>plant</rdf:li><rdf:li>plant</rdf:li><rdf:li>png</rdf:li><rdf:li>project runeberg</rdf:li><rdf:li>project runeberg</rdf:li><rdf:li>public domain</rdf:li><rdf:li>rose</rdf:li><rdf:li>rose</rdf:li><rdf:li>svg</rdf:li></rdf:Bag></dc:subject></cc:Work><cc:License rdf:about="http://creativecommons.org/licenses/publicdomain/"><cc:permits rdf:resource="http://creativecommons.org/ns#Reproduction"/><cc:permits rdf:resource="http://creativecommons.org/ns#Distribution"/><cc:permits rdf:resource="http://creativecommons.org/ns#DerivativeWorks"/></cc:License></rdf:RDF></metadata></svg>
