<?xml version="1.0" standalone="no"?>
<!DOCTYPE svg PUBLIC "-//W3C//DTD SVG 20010904//EN"
 "http://www.w3.org/TR/2001/REC-SVG-20010904/DTD/svg10.dtd">
<svg version="1.0" xmlns="http://www.w3.org/2000/svg"
 width="1500.000000pt" height="934.000000pt" viewBox="0 0 1500.000000 934.000000"
 preserveAspectRatio="xMidYMid meet">
<metadata>
Created by potrace 1.15, written by Peter Selinger 2001-2017
</metadata>
<g transform="translate(0.000000,934.000000) scale(0.100000,-0.100000)"
fill="#000000" stroke="none">
<path d="M7169 9253 c-10 -2 -19 -13 -22 -23 -4 -16 0 -19 32 -16 35 4 209 -3
706 -25 132 -5 319 -12 415 -14 96 -3 195 -7 220 -10 25 -3 227 -8 450 -10
223 -2 423 -6 445 -8 62 -7 387 -15 870 -21 242 -3 584 -10 760 -16 176 -5
374 -10 441 -9 66 0 128 -3 138 -7 15 -6 14 -9 -11 -25 -15 -11 -24 -19 -20
-19 4 0 19 7 32 16 13 9 28 13 34 10 5 -4 9 8 8 26 -2 29 -5 33 -27 29 -14 -1
-28 -8 -32 -15 -6 -8 -10 -8 -16 2 -9 14 -86 16 -861 27 -195 2 -356 7 -359
10 -3 2 6 9 19 14 28 11 47 10 -216 16 -93 2 -228 6 -300 9 -187 8 -651 20
-850 22 -93 1 -269 4 -390 8 -121 3 -330 8 -465 11 -541 12 -706 16 -727 21
-13 2 -23 0 -23 -5 0 -9 -46 -21 -54 -13 -3 2 -40 4 -83 4 -43 0 -82 3 -88 7
-5 4 -17 6 -26 4z"/>
<path d="M7167 9159 c16 -40 15 -44 -8 -113 -13 -39 -27 -73 -32 -74 -4 -2 -5
-8 -1 -13 8 -13 -15 -79 -28 -79 -6 0 -8 -7 -4 -15 3 -9 0 -15 -9 -15 -11 0
-15 -11 -14 -42 2 -53 -10 -110 -21 -103 -4 3 -6 -4 -3 -15 4 -14 1 -20 -7
-18 -15 4 -41 -89 -33 -116 3 -11 1 -16 -5 -12 -5 3 -13 -1 -16 -10 -4 -10 -2
-13 6 -8 8 5 9 2 5 -10 -4 -10 -7 -22 -7 -27 0 -6 -4 -7 -10 -4 -5 3 -10 2
-10 -4 0 -5 -3 -17 -7 -27 -4 -12 -3 -15 5 -10 19 11 14 -5 -5 -20 -10 -7 -13
-14 -6 -14 8 0 6 -17 -8 -57 -11 -32 -23 -90 -26 -128 -5 -66 -4 -72 22 -103
25 -30 30 -32 95 -32 55 0 71 -4 79 -17 8 -14 12 -15 25 -4 13 11 16 11 16 0
0 -9 3 -10 8 -4 8 12 62 17 62 6 0 -9 90 2 107 12 7 5 22 3 33 -3 11 -6 20 -7
20 -2 0 14 81 6 90 -8 5 -9 9 -9 14 -1 5 7 45 11 109 10 168 -1 156 -15 -18
-23 -88 -4 -232 -14 -320 -21 -281 -26 -340 -20 -379 39 -27 42 -21 186 8 203
7 5 16 28 19 53 3 25 3 38 0 30 -3 -8 -9 -17 -13 -20 -16 -11 -51 -180 -45
-213 22 -115 92 -142 300 -117 44 5 208 16 365 25 332 18 338 19 285 29 -63
12 -74 18 -45 25 25 7 25 7 3 13 -13 3 -23 2 -23 -3 0 -5 -14 -9 -31 -9 -18 0
-28 4 -24 10 4 6 10 8 15 5 5 -3 11 -1 14 4 7 11 -60 21 -164 24 -74 2 -88 5
-108 25 -25 25 -25 43 -1 20 10 -9 56 -13 159 -15 127 -1 141 1 120 13 l-25
13 26 1 c15 0 29 -7 33 -15 8 -23 23 -18 22 8 -1 18 5 22 37 25 21 2 37 -1 37
-7 0 -11 -19 -15 -52 -13 -11 1 -15 -3 -12 -13 4 -8 11 -15 18 -16 6 0 2 -4
-9 -9 -14 -6 -3 -8 37 -8 61 0 199 46 148 49 -82 5 -105 10 -119 24 -14 13
-13 15 7 15 12 0 22 5 22 11 0 6 8 8 19 4 27 -8 34 8 11 28 -13 11 -20 12 -24
4 -2 -7 -5 -7 -5 -2 0 6 4 17 9 25 9 13 11 13 20 0 7 -12 9 -10 7 8 -1 17 -6
22 -20 18 -13 -3 -15 -1 -8 8 6 6 9 25 7 41 -3 22 2 33 18 43 19 12 18 12 -11
7 -18 -4 -42 -4 -53 0 -17 6 -19 9 -9 22 23 26 -9 33 -49 10 l-35 -20 12 21
c14 26 31 37 31 21 0 -10 3 -10 12 -1 9 9 8 16 -5 30 -16 18 -16 18 16 14 24
-3 29 -2 21 8 -6 6 -19 13 -28 14 -10 1 -21 7 -24 12 -4 5 -25 15 -47 22 -22
6 -67 20 -100 31 -41 13 -64 15 -72 9 -10 -8 -13 -5 -13 8 -1 18 -1 18 -15 0
-15 -19 -16 -19 -19 6 0 6 -17 13 -36 16 -19 2 -39 7 -44 12 -5 5 -18 5 -29
-2 -17 -8 -24 -6 -39 13 l-19 24 16 -32 c16 -33 15 -33 -11 -33 -21 0 -24 3
-15 14 9 11 6 12 -13 9 -18 -4 -36 4 -63 26 -21 17 -44 31 -53 30 -10 0 -11
-2 -2 -6 21 -8 14 -39 -10 -40 -11 -1 -25 -8 -30 -15 -6 -9 -7 -6 -4 8 4 14 2
21 -8 21 -8 0 -12 -6 -9 -14 3 -7 -2 -13 -12 -13 -13 0 -15 -7 -11 -31 3 -24
2 -29 -7 -20 -17 17 -26 13 -19 -11 3 -14 2 -19 -7 -14 -6 4 -9 12 -6 17 4 5
1 9 -6 9 -7 0 -9 3 -6 7 4 3 -1 15 -10 26 -17 19 -17 20 0 14 9 -4 17 -2 17 3
0 6 4 10 10 10 5 0 7 -6 4 -14 -3 -8 0 -17 7 -22 8 -5 10 -3 5 5 -5 7 0 21 9
31 9 10 14 23 11 28 -3 5 3 12 14 15 11 3 18 1 14 -4 -3 -5 -1 -9 4 -9 6 0 15
14 21 30 6 19 23 36 43 46 31 14 32 15 5 11 -22 -3 -25 -2 -16 9 6 8 9 21 5
29 -5 15 4 19 38 15 10 -1 16 2 13 8 -4 5 1 9 9 9 8 0 13 -6 10 -12 -3 -9 7
-10 37 -4 23 4 45 5 49 3 4 -2 10 1 13 7 4 6 -2 13 -14 16 -12 3 -21 10 -21
15 0 5 -8 8 -17 6 -10 -2 -26 4 -36 13 -11 10 -28 14 -44 11 -21 -4 -25 -2
-20 10 3 9 -1 25 -9 37 -9 12 -11 21 -5 21 6 0 11 -5 11 -11 0 -8 5 -7 16 2
11 9 40 12 98 10 l81 -3 -19 21 c-11 12 -15 21 -10 21 5 0 10 12 10 26 2 34
27 59 61 62 15 1 29 6 31 11 1 4 21 5 43 1 42 -8 64 4 26 14 -12 3 -108 9
-214 12 l-191 7 -6 29 c-3 15 -10 28 -16 28 -6 0 -3 -18 7 -41z"/>
<path d="M7905 9109 c-18 -8 -18 -8 5 -7 14 1 31 -1 37 -5 7 -4 21 -4 30 1 10
5 26 6 37 3 17 -7 17 -8 2 -23 -8 -9 -24 -15 -33 -14 -10 2 -12 1 -5 -1 6 -3
12 -8 12 -13 0 -4 7 -10 14 -13 10 -4 13 -1 10 7 -3 8 4 16 18 19 13 4 25 2
26 -3 2 -6 8 -10 14 -10 6 0 8 7 5 14 -7 17 8 23 71 30 45 5 54 -5 23 -26 -12
-9 -17 -19 -12 -27 6 -9 10 -7 14 8 3 12 10 21 16 21 14 0 14 -23 0 -37 -9 -9
-7 -10 10 -6 12 3 21 1 21 -6 0 -6 -7 -11 -15 -11 -18 0 -20 -17 -3 -22 16 -6
19 -38 3 -38 -7 0 -15 5 -17 11 -2 7 -9 5 -17 -5 -12 -14 -9 -16 33 -16 45 0
46 1 35 21 -13 26 4 42 36 33 19 -5 19 -5 1 7 -15 9 -24 9 -37 0 -27 -16 -31
-14 -17 10 10 16 20 19 46 15 19 -3 30 -1 27 5 -4 5 -1 9 5 9 6 0 10 -6 9 -12
-3 -28 2 -49 11 -43 5 3 7 12 3 20 -4 11 3 15 23 16 51 2 109 -3 119 -9 5 -4
20 -5 33 -3 13 1 25 -4 28 -13 3 -9 13 -16 21 -16 10 0 14 -7 10 -19 -3 -12 1
-22 10 -25 17 -7 8 -26 -13 -26 -8 0 -13 4 -9 9 3 6 -6 7 -22 2 -26 -7 -298
-5 -350 3 -13 2 -23 0 -23 -4 0 -4 39 -10 88 -14 132 -10 152 -15 152 -38 0
-20 -28 -22 -43 -3 -5 6 -5 -1 -1 -15 8 -31 15 -39 21 -22 5 14 23 16 23 3 0
-5 -7 -16 -15 -24 -13 -13 -11 -16 15 -26 36 -12 60 -5 60 18 0 13 -2 13 -9 2
-5 -8 -16 -11 -30 -6 -12 3 -19 11 -15 16 3 6 8 8 12 5 3 -3 11 2 17 11 11 14
15 15 29 4 8 -7 15 -16 14 -19 -3 -27 4 -41 17 -36 8 4 15 1 15 -5 0 -6 5 -11
11 -11 6 0 9 6 6 14 -3 7 0 19 6 25 9 9 8 11 -4 6 -23 -9 -32 10 -25 50 8 42
23 47 70 25 37 -17 81 -17 71 1 -3 4 -12 6 -20 2 -18 -6 -19 1 -5 28 7 13 7
19 0 19 -5 0 -10 5 -10 11 0 6 7 9 14 6 10 -4 13 -1 10 7 -3 7 2 16 10 19 21
8 21 27 0 27 -9 0 -12 -5 -8 -12 4 -7 4 -10 -1 -6 -4 4 -16 -3 -26 -15 -10
-12 -18 -16 -19 -9 0 6 4 12 10 12 5 0 7 6 4 14 -3 9 6 17 25 24 16 6 31 9 33
7 2 -2 20 -5 40 -7 27 -1 35 -6 30 -17 -4 -13 -2 -14 9 -3 17 16 30 15 23 -2
-3 -8 0 -17 7 -22 7 -4 10 -3 6 3 -8 13 19 51 29 41 4 -4 1 -14 -6 -23 -10
-12 -10 -15 3 -15 9 0 18 4 22 10 3 5 12 7 20 3 8 -3 15 0 15 6 0 6 7 11 16
11 14 0 14 -3 4 -15 -7 -8 -23 -15 -36 -15 -13 0 -24 -4 -24 -8 0 -4 -10 -8
-22 -9 -11 -1 -24 -6 -27 -10 -3 -5 -16 -8 -28 -7 -12 1 -20 -2 -17 -7 2 -4
11 -6 19 -2 19 7 19 2 1 -33 -8 -15 -13 -31 -10 -36 7 -12 -19 -35 -34 -30 -7
2 -10 -2 -6 -12 4 -12 0 -16 -15 -16 -12 0 -21 -4 -21 -10 0 -5 -5 -10 -11
-10 -6 0 -8 9 -4 20 6 19 4 20 -22 14 -15 -4 -29 -11 -31 -16 -2 -4 -12 -8
-21 -8 -10 0 -23 -12 -29 -26 -7 -14 -16 -23 -21 -20 -5 3 -11 0 -14 -8 -3 -8
1 -17 9 -20 19 -7 18 -26 -1 -26 -10 0 -15 -10 -15 -31 0 -43 17 -71 39 -64
13 4 17 0 16 -16 -1 -11 -8 -25 -16 -31 -10 -7 -7 -8 14 -5 23 4 25 2 15 -10
-16 -20 -18 -53 -2 -53 7 0 10 -9 7 -22 -4 -19 -3 -20 6 -8 10 13 12 13 21 0
7 -12 15 -13 39 -4 29 11 29 11 19 -12 -9 -20 -8 -27 7 -38 16 -12 16 -13 1
-19 -22 -9 -20 -27 3 -27 28 0 36 -19 15 -35 -17 -12 -16 -13 8 -8 14 3 29 0
32 -6 5 -7 -3 -11 -19 -11 -14 0 -24 -4 -21 -9 7 -11 56 -2 56 11 0 5 4 7 9 4
5 -3 14 1 21 9 12 15 3 21 -23 16 -5 -1 -7 4 -5 11 3 7 16 11 29 10 30 -5 49
-23 31 -29 -10 -4 -9 -9 4 -24 21 -23 42 -25 23 -2 -11 13 -11 17 -1 20 6 3
10 9 6 14 -7 11 -2 11 28 0 58 -21 76 -21 81 -1 4 15 14 20 36 20 21 0 31 5
31 15 0 11 -7 14 -25 11 -31 -6 -34 18 -4 34 17 9 23 8 36 -7 8 -10 11 -12 8
-5 -11 22 -13 62 -3 62 6 0 8 7 4 15 -3 8 -1 15 4 15 9 0 15 -58 12 -102 -1
-10 3 -18 9 -18 5 0 8 -4 4 -9 -3 -5 -1 -13 5 -16 6 -4 10 -3 9 2 -4 20 2 33
15 33 8 0 16 -5 18 -11 2 -7 27 2 63 21 33 18 90 48 128 67 37 18 67 38 67 44
0 5 3 8 8 5 11 -7 37 17 38 36 1 10 -2 16 -6 13 -5 -3 -10 0 -12 7 -3 7 -10 8
-17 3 -11 -6 -10 -10 3 -17 22 -12 20 -31 -3 -23 -25 8 -58 -5 -40 -16 10 -6
9 -10 -5 -15 -11 -4 -21 -2 -27 7 -8 13 -13 5 -10 -14 1 -5 -3 -6 -7 -3 -5 3
-9 16 -8 28 1 18 7 23 26 21 15 -1 18 0 8 3 -10 3 -18 10 -18 15 0 6 -9 7 -20
4 -11 -3 -20 -2 -20 3 0 11 30 26 44 23 5 -1 3 5 -4 14 -8 9 -20 13 -33 9 -14
-4 -17 -3 -12 6 5 8 3 11 -4 9 -7 -3 -13 -9 -13 -14 -1 -16 -38 -37 -54 -31
-8 3 -13 2 -10 -2 15 -25 -79 -63 -172 -68 -72 -4 -91 -14 -67 -34 8 -7 15
-17 15 -22 0 -6 -6 -5 -15 2 -8 6 -19 9 -24 6 -5 -4 -12 -2 -16 4 -8 13 -25
13 -25 0 0 -5 15 -14 33 -20 27 -8 28 -9 5 -6 -15 2 -29 -2 -32 -8 -2 -6 -5
-3 -5 7 -1 9 -8 17 -17 17 -23 0 -11 24 14 28 12 2 22 8 22 13 0 5 6 9 14 9 7
0 19 7 26 15 7 9 20 13 27 11 8 -3 28 1 44 9 16 9 35 13 42 8 9 -5 8 -2 -1 9
-21 26 -53 30 -59 7 -3 -10 -9 -16 -15 -13 -5 3 -4 12 3 20 12 15 0 19 -17 7
-5 -5 6 5 25 22 20 17 47 30 65 31 24 2 26 0 12 -8 -10 -5 -20 -7 -23 -4 -8 7
-33 -13 -33 -26 0 -6 9 -8 20 -5 13 3 25 -2 34 -14 13 -19 13 -19 31 1 10 11
24 20 32 20 8 0 12 4 9 9 -3 4 7 7 22 5 29 -4 164 54 156 67 -2 4 3 12 12 17
14 8 14 10 1 15 -10 3 -13 14 -10 31 4 20 1 26 -11 26 -10 0 -14 5 -11 10 3 6
14 10 23 10 22 0 72 46 72 66 0 8 5 12 10 9 19 -12 10 6 -15 29 -39 36 -25 54
40 51 30 -1 58 -5 62 -8 3 -4 12 -2 19 4 9 7 14 5 19 -10 3 -12 12 -18 20 -15
9 4 12 -1 10 -13 -2 -10 -4 -20 -4 -23 -1 -3 -6 2 -12 10 -8 12 -10 10 -8 -10
3 -48 -12 -89 -32 -87 -10 1 -19 5 -19 9 0 4 -5 8 -11 8 -17 0 1 -21 28 -31
13 -5 22 -13 18 -19 -3 -5 -12 -7 -19 -4 -8 3 -27 -1 -42 -9 -26 -13 -26 -14
-5 -20 11 -3 19 -1 15 4 -3 5 3 6 12 2 13 -5 15 -3 9 7 -5 8 -4 11 3 6 13 -8
63 14 56 25 -3 5 2 6 11 3 11 -5 14 -2 9 9 -3 9 -12 13 -20 10 -20 -7 -18 7
11 69 24 52 24 53 5 62 -21 9 -27 26 -10 26 6 0 10 -4 10 -10 0 -5 5 -10 11
-10 6 0 9 7 5 15 -6 17 19 21 30 4 4 -8 9 -7 15 2 13 21 22 3 10 -19 -6 -12
-11 -30 -11 -42 0 -14 -10 -25 -32 -35 -25 -10 -29 -15 -17 -20 9 -3 20 -5 25
-4 5 1 17 1 27 0 29 -2 9 -21 -22 -21 -17 0 -28 -5 -28 -14 0 -12 5 -13 19 -5
11 6 23 9 28 7 6 -2 -21 -18 -58 -37 -100 -52 -143 -81 -137 -91 4 -6 -2 -7
-12 -3 -15 6 -16 4 -6 -8 10 -13 7 -14 -24 -11 -25 3 -34 1 -29 -7 4 -6 16
-11 26 -11 10 0 22 -5 25 -10 4 -6 11 -8 16 -5 5 4 9 1 9 -5 0 -6 4 -9 9 -6 4
3 17 -1 27 -9 17 -13 18 -14 2 -15 -10 0 -18 -4 -18 -9 0 -13 25 -20 40 -11 8
5 22 2 36 -8 l22 -17 -42 -27 c-22 -16 -47 -28 -53 -28 -7 0 -13 -4 -13 -10 0
-5 7 -7 15 -4 8 4 15 2 15 -4 0 -13 -25 -33 -33 -26 -3 3 -13 -8 -21 -24 -9
-17 -21 -34 -27 -38 -8 -4 -9 -3 -5 4 13 22 -20 12 -42 -11 -28 -30 -28 -42 0
-23 25 18 38 20 38 8 0 -5 -11 -14 -24 -22 -15 -7 -22 -18 -19 -27 4 -11 0
-13 -21 -7 -17 4 -26 2 -26 -6 0 -7 7 -10 16 -6 13 5 15 2 11 -14 -3 -11 -2
-20 1 -20 12 0 102 102 97 111 -3 4 3 10 13 13 10 4 25 19 33 34 8 15 18 30
24 34 6 4 6 8 1 8 -6 0 3 14 19 30 16 17 33 30 38 30 20 0 35 26 25 44 -5 10
-8 20 -5 23 3 2 8 -5 12 -16 7 -23 20 -27 31 -10 3 6 1 15 -6 19 -7 4 -9 13
-6 19 4 6 11 9 16 6 5 -3 11 -1 15 5 3 5 0 10 -7 10 -9 0 -9 3 2 10 22 14 33
12 26 -5 -3 -8 -1 -15 4 -15 6 0 10 5 10 11 0 5 4 8 10 4 5 -3 7 -12 3 -20 -3
-10 2 -15 16 -15 12 0 21 -4 21 -9 0 -5 7 -11 15 -15 11 -4 10 1 -4 22 -26 36
-44 132 -25 132 8 0 15 -4 15 -10 2 -11 5 -25 9 -37 5 -16 7 -28 8 -50 3 -30
52 -87 65 -74 7 7 6 20 -3 41 -11 27 -11 32 5 44 16 11 16 14 1 28 -20 21 -20
28 -1 28 8 0 15 -4 15 -10 0 -5 5 -10 12 -10 9 0 9 3 0 12 -17 17 -15 28 4 28
13 0 14 3 5 14 -10 12 -9 13 7 9 11 -2 23 0 26 6 9 14 46 14 46 1 0 -5 -7 -10
-15 -10 -7 0 -18 -6 -22 -14 -4 -7 -15 -16 -23 -19 -12 -4 -11 -6 3 -6 11 -1
17 -9 17 -23 0 -22 1 -22 18 4 15 23 21 25 32 15 9 -9 11 -9 6 0 -4 7 2 17 14
23 15 8 20 8 20 -3 0 -7 -5 -18 -12 -25 -6 -6 -8 -15 -4 -19 4 -4 10 -3 14 3
11 15 49 14 49 -1 0 -8 -4 -12 -8 -9 -4 2 -10 1 -13 -4 -2 -4 11 -8 31 -9 23
0 31 2 22 8 -22 13 -4 20 25 9 37 -14 59 -13 50 3 -4 6 -4 9 1 5 4 -4 14 -3
22 3 10 9 13 8 13 0 0 -7 8 -11 18 -9 11 2 17 -3 16 -13 -1 -12 12 -19 46 -26
39 -8 47 -7 43 4 -3 7 -1 13 5 13 12 0 33 -25 26 -32 -7 -7 154 -50 169 -45 7
2 -5 7 -25 11 -21 4 -38 11 -38 16 0 5 13 5 30 0 36 -10 34 -10 66 -10 14 0
23 -4 19 -9 -3 -5 -1 -12 5 -16 5 -3 10 0 10 7 0 8 10 15 22 15 16 2 19 0 9
-6 -21 -13 -1 -19 71 -22 37 -2 64 -7 62 -11 -3 -5 0 -8 5 -8 6 0 11 5 11 10
0 6 4 10 10 10 5 0 7 -6 4 -14 -5 -14 88 -60 107 -54 6 2 -12 12 -40 22 -28
10 -48 22 -45 28 4 6 10 5 15 -3 5 -8 9 -10 9 -5 0 5 6 3 14 -3 17 -14 32 2
20 21 -4 7 -3 8 4 4 7 -4 12 -16 12 -28 0 -19 1 -20 25 -4 23 15 24 15 19 -1
-5 -17 -5 -17 9 -1 8 10 17 15 21 11 4 -4 4 0 0 10 -3 9 -2 17 4 17 6 0 12 -4
14 -9 2 -4 12 -5 23 0 15 6 16 8 4 8 -9 1 -30 8 -45 16 -34 18 -66 19 -81 4
-8 -8 -13 -8 -17 0 -4 6 -18 11 -31 11 -20 0 -71 38 -62 46 2 3 27 -3 212 -47
50 -11 100 -22 112 -22 12 -1 32 -10 43 -19 11 -10 20 -13 20 -7 0 7 9 9 23 6
34 -9 53 6 33 26 -17 17 -21 28 -8 26 21 -4 24 3 7 15 -11 7 -39 17 -63 21
-41 7 -42 8 -27 25 9 10 25 20 37 23 16 5 19 2 15 -14 -4 -17 -3 -18 9 -8 11
9 17 9 29 -1 8 -7 15 -8 15 -3 0 5 -11 16 -25 23 -28 15 -35 36 -9 26 9 -4 23
-1 30 5 13 11 38 3 30 -9 -2 -4 12 -7 32 -7 37 0 60 24 46 46 -8 14 -24 0 -17
-16 3 -8 1 -15 -5 -15 -5 0 -10 18 -10 40 -1 28 4 40 13 40 8 0 17 5 21 11 5
8 -1 10 -19 5 -26 -6 -47 8 -25 17 8 4 5 8 -9 12 -12 4 -19 13 -17 20 4 9 -5
13 -31 13 -27 0 -34 -3 -26 -11 18 -18 14 -47 -6 -40 -10 4 -21 11 -25 17 -5
7 -8 7 -8 -2 0 -7 -4 -11 -9 -8 -5 3 -11 -3 -14 -14 -3 -11 0 -23 5 -27 6 -3
8 -1 4 5 -10 16 7 22 40 13 20 -5 37 -3 54 7 l25 14 -24 -21 c-14 -13 -21 -27
-17 -37 9 -25 -12 -45 -40 -38 -20 5 -24 2 -24 -16 0 -12 -4 -18 -10 -15 -6 4
-18 1 -26 -6 -12 -10 -16 -9 -21 9 -4 17 -9 20 -24 12 -14 -8 -17 -7 -13 3 3
8 -7 19 -23 26 -23 10 -26 10 -15 0 16 -17 16 -34 -1 -20 -8 6 -16 8 -20 5 -3
-3 -3 3 0 14 4 16 1 19 -20 15 -14 -3 -28 0 -31 6 -5 8 -13 8 -27 0 -12 -6
-23 -8 -27 -5 -3 3 -1 6 4 6 5 0 10 11 10 25 1 14 -2 22 -7 19 -5 -3 -6 1 -3
9 3 8 1 18 -5 22 -6 3 -11 -1 -11 -9 0 -8 -5 -18 -10 -21 -6 -4 -9 -1 -8 6 2
7 -5 15 -16 17 -15 3 -18 -1 -14 -22 3 -14 1 -26 -3 -26 -5 0 -9 7 -9 16 0 12
-6 15 -21 11 -16 -4 -23 1 -31 24 -5 16 -16 30 -24 30 -8 1 -20 2 -26 3 -7 1
-16 -3 -20 -9 -5 -6 -8 -4 -8 6 0 11 -10 16 -32 17 -18 0 -43 4 -55 7 -18 6
-21 4 -16 -14 3 -12 1 -21 -6 -21 -6 0 -11 4 -11 9 0 5 -8 12 -17 15 -10 3 -2
-8 17 -24 31 -27 32 -30 12 -30 -12 0 -22 5 -22 11 0 6 -7 8 -16 5 -24 -9 -64
4 -64 23 -1 13 -2 13 -12 -3 -8 -15 -7 -21 8 -30 11 -5 25 -10 33 -11 8 0 16
-6 18 -12 4 -10 -5 -9 -34 1 -75 27 -118 49 -106 53 7 2 20 0 29 -5 13 -7 23
-5 37 9 15 14 24 16 34 8 9 -9 13 -8 13 0 0 7 5 9 10 6 6 -4 8 -10 5 -15 -3
-4 2 -10 10 -14 18 -6 20 5 4 21 -9 9 -6 19 10 39 25 31 22 39 -11 28 -13 -4
-27 -8 -33 -9 -5 0 -9 -8 -9 -18 1 -9 -3 -14 -9 -10 -11 7 -58 14 -94 13 -34
0 -28 17 21 66 36 37 45 42 50 28 3 -9 1 -22 -4 -30 -18 -21 22 -37 47 -19 11
8 24 11 28 7 3 -4 5 0 3 8 -2 12 11 16 65 18 54 2 67 0 61 -10 -6 -10 -5 -10
8 0 13 11 63 12 240 7 123 -3 246 -6 275 -6 28 1 54 -3 58 -8 3 -5 17 -8 31
-5 14 3 23 1 21 -3 -6 -10 40 -9 50 0 10 11 25 8 18 -3 -3 -5 1 -10 9 -10 9 0
16 5 16 10 0 6 7 10 15 10 8 0 15 -4 15 -9 0 -10 38 -7 85 9 24 8 35 18 35 31
0 11 -4 17 -10 14 -5 -3 -10 -1 -10 5 0 6 6 10 13 9 17 -2 57 12 57 20 0 3
-27 6 -60 6 -33 -1 -60 2 -60 6 0 4 -105 7 -232 8 -294 1 -559 9 -758 21 -85
5 -234 12 -330 15 -192 6 -221 8 -240 20 -9 6 -11 4 -5 -4 6 -10 3 -11 -15 -1
-15 8 -30 9 -51 1 -16 -6 -28 -7 -25 -3 4 8 -170 17 -251 14 -198 -9 -432 -6
-978 14 -150 6 -172 5 -184 -9 -7 -9 -18 -14 -23 -11 -6 4 -5 9 2 14 7 4 -41
9 -106 9 -65 1 -153 4 -194 6 -41 2 -84 -1 -95 -6z m3050 -99 c55 -7 108 -12
117 -12 14 1 15 -2 5 -12 -6 -8 -18 -11 -24 -9 -7 3 -13 0 -13 -7 0 -8 -6 -9
-17 -5 -21 9 -45 9 -171 1 -66 -4 -91 -2 -86 5 4 8 0 7 -15 0 -13 -7 -21 -8
-21 -2 0 6 -6 8 -14 5 -8 -3 -17 -1 -20 5 -6 9 -101 28 -118 23 -9 -2 -86 -2
-112 0 -16 1 -17 3 -3 13 20 14 358 11 492 -5z m-1942 -12 c31 -1 57 -5 57
-10 0 -4 8 -8 18 -8 15 0 15 2 2 10 -11 8 -3 9 30 7 33 -3 45 -8 44 -20 -2
-22 34 -17 40 6 8 30 41 17 39 -16 -2 -26 6 -32 36 -28 7 2 10 -2 6 -8 -3 -6
-2 -11 4 -11 5 0 11 6 14 13 3 9 7 9 17 0 10 -9 6 -15 -19 -27 -17 -9 -31 -19
-31 -22 0 -3 6 -2 13 1 6 4 2 -2 -11 -13 -18 -17 -20 -25 -13 -45 6 -14 15
-28 21 -32 8 -5 5 -11 -7 -21 -25 -18 -32 -17 -26 5 2 10 -1 24 -9 32 -7 8
-13 20 -14 27 -2 28 -5 32 -18 32 -18 0 -66 -39 -66 -53 0 -8 3 -8 8 -2 10 14
53 37 59 32 2 -3 0 -15 -7 -26 -10 -20 -23 -26 -44 -22 -10 2 -26 -18 -26 -33
0 -4 7 -5 16 -2 8 3 12 2 9 -4 -3 -6 -2 -10 3 -10 5 0 12 9 15 19 6 25 47 48
47 27 0 -7 -7 -17 -16 -20 -8 -3 -12 -11 -9 -16 5 -8 11 -8 20 0 8 7 15 7 19
1 8 -13 -11 -24 -30 -17 -9 3 -22 0 -29 -8 -12 -12 -12 -15 -1 -19 7 -3 19 0
25 6 6 6 11 7 11 2 0 -4 9 0 19 9 19 18 41 15 41 -5 0 -6 -4 -7 -10 -4 -13 8
-44 -15 -48 -35 -5 -24 -22 -36 -22 -16 0 9 -4 15 -9 12 -4 -3 -17 10 -27 29
-10 19 -24 35 -31 35 -18 0 -26 19 -14 34 9 10 8 15 -3 19 -8 3 -16 -2 -19
-14 -6 -22 -43 -23 -65 -1 -19 17 -45 16 -38 -3 9 -25 -11 -17 -30 13 -11 17
-12 23 -3 16 11 -9 17 -9 26 1 6 7 9 16 6 19 -4 3 1 6 10 6 9 0 19 5 23 12 5
8 2 9 -12 4 -10 -5 -25 -9 -31 -9 -7 0 -13 -4 -13 -9 0 -4 -10 -8 -22 -8 l-23
0 25 20 c14 11 33 20 43 20 10 0 15 5 11 11 -3 6 -17 8 -31 4 -16 -4 -22 -2
-18 5 8 13 38 13 52 -1 6 -6 24 -13 40 -15 22 -2 31 2 40 21 11 24 1 36 -12
14 -5 -7 -13 -5 -24 5 -10 9 -21 13 -25 9 -9 -10 -46 -14 -45 -5 4 21 -3 31
-16 26 -8 -4 -15 -1 -15 5 0 6 14 11 30 11 17 0 30 5 30 11 0 6 -7 9 -15 5 -8
-3 -26 -1 -40 4 -16 6 -27 6 -31 -2 -4 -7 -3 -8 4 -4 7 4 12 2 12 -4 0 -7 -8
-9 -20 -5 -33 10 -23 -15 10 -28 32 -12 37 -21 19 -33 -7 -4 -16 1 -21 10 -5
9 -19 16 -30 16 -17 0 -19 -3 -10 -12 7 -7 12 -17 12 -22 0 -6 -5 -4 -10 4 -9
13 -11 13 -19 0 -6 -8 -12 -12 -15 -9 -10 9 28 89 42 89 6 0 12 7 12 16 0 12
7 14 28 10 15 -3 53 -6 85 -8z m920 -107 c6 -6 7 -11 2 -11 -4 0 0 -10 11 -22
10 -12 14 -18 7 -15 -15 9 -93 -3 -93 -14 0 -4 15 -5 34 -2 19 3 36 1 40 -6 4
-7 -1 -11 -12 -11 -15 0 -19 -5 -15 -20 5 -19 14 -24 40 -21 6 1 15 -4 19 -10
5 -8 -1 -10 -20 -7 -20 4 -26 2 -22 -8 3 -8 -1 -14 -10 -14 -11 0 -13 6 -9 20
7 22 -13 28 -32 9 -7 -7 -13 -7 -17 -1 -3 5 6 13 20 16 14 4 23 12 21 19 -2 7
-10 11 -17 9 -7 -2 -17 3 -21 10 -9 15 -109 21 -109 7 0 -6 5 -7 10 -4 6 3 15
3 21 -1 8 -4 7 -9 -2 -15 -11 -7 -10 -9 4 -9 16 0 22 -17 17 -50 -3 -23 -10
-26 -21 -10 -8 13 -10 13 -20 0 -9 -12 -10 -11 -6 7 3 14 0 21 -7 20 -6 -1
-10 3 -9 9 1 7 -11 17 -28 24 -27 11 -28 14 -12 25 9 7 22 11 28 8 7 -2 18 3
25 12 7 8 19 15 26 15 8 0 14 5 14 10 0 14 -13 13 -28 -2 -9 -9 -12 -9 -12 3
-1 11 -4 10 -14 -4 -8 -10 -17 -14 -20 -8 -3 5 4 21 16 34 21 24 27 25 107 22
46 -2 88 -8 94 -14z m-1158 -113 c14 -43 14 -53 2 -60 -8 -5 -4 -8 10 -8 12 0
23 -4 25 -10 2 -6 15 -4 32 5 26 14 31 14 52 0 14 -9 24 -11 24 -5 0 6 -7 13
-15 16 -18 7 -19 15 -2 38 12 16 17 17 37 6 16 -9 19 -14 10 -20 -7 -4 -12
-19 -12 -34 0 -38 -23 -53 -48 -31 -11 10 -21 16 -23 14 -21 -35 -27 -52 -23
-57 3 -3 6 0 6 7 0 7 7 11 14 8 10 -4 13 -1 9 9 -3 7 0 14 6 14 6 0 11 -4 11
-10 0 -5 5 -10 11 -10 7 0 18 -8 25 -17 13 -17 13 -17 14 0 0 9 -6 17 -12 17
-7 0 -2 7 10 16 13 9 21 22 18 29 -5 14 20 29 35 19 5 -3 9 0 9 5 0 6 12 11
28 11 l27 0 -30 -16 c-46 -23 -51 -32 -30 -48 14 -10 25 -11 42 -3 13 6 23 15
23 20 0 5 -6 4 -14 -2 -10 -9 -15 -8 -19 3 -4 10 2 17 16 22 12 3 30 13 39 21
10 9 25 13 35 8 17 -6 17 -7 -2 -21 -11 -8 -25 -12 -32 -10 -17 7 -17 -36 -1
-52 9 -9 9 -12 -2 -13 -8 -1 -25 -3 -38 -4 -12 -1 -25 2 -28 6 -7 11 -43 -10
-74 -43 -18 -20 -31 -26 -47 -22 -13 4 -23 10 -23 15 0 5 -8 9 -17 8 -11 0
-13 -3 -5 -6 20 -8 14 -23 -9 -23 -18 0 -20 4 -15 28 6 24 5 25 -7 10 -17 -22
-31 -23 -23 -3 3 9 0 15 -9 15 -8 0 -25 10 -36 21 -17 17 -19 23 -8 31 10 6 7
7 -10 3 -17 -5 -21 -4 -16 5 6 10 1 11 -21 7 -27 -6 -28 -6 -9 8 61 44 58 41
36 41 -11 0 -17 -4 -15 -8 3 -4 0 -8 -5 -8 -19 0 -12 22 9 27 11 3 18 9 15 13
-3 5 -1 11 4 14 5 3 12 -5 15 -19 4 -14 11 -25 16 -25 9 0 7 21 -5 53 -4 9 -3
17 3 17 5 0 13 -10 17 -22z"/>
<path d="M14066 9017 c-25 -27 -34 -31 -43 -21 -14 15 -76 0 -105 -24 -16 -14
-18 -13 -18 6 0 26 0 26 -37 10 -15 -6 -31 -11 -35 -10 -5 1 -8 -3 -8 -10 0
-8 -3 -9 -11 -1 -12 12 -53 0 -154 -46 -51 -23 -62 -26 -57 -13 5 15 4 15 -11
3 -29 -23 -21 12 10 50 25 29 26 31 5 20 -13 -7 -30 -27 -38 -45 -10 -19 -24
-32 -37 -33 -45 -4 -48 -19 -54 -238 l-6 -207 34 7 c19 4 50 15 70 25 28 14
48 16 101 11 36 -4 77 -4 92 0 14 4 26 6 26 5 0 -2 -19 -15 -43 -30 -23 -15
-52 -42 -65 -60 -33 -48 -27 -55 8 -8 32 45 63 56 140 50 l44 -3 -95 -101
c-90 -97 -118 -118 -147 -114 -8 0 -20 -4 -29 -11 -12 -10 -16 -10 -24 2 -7
11 -9 11 -9 -3 0 -11 -5 -15 -14 -12 -8 3 -17 0 -21 -6 -5 -8 -11 -8 -21 1
-11 9 -14 9 -14 0 0 -7 -8 -10 -18 -7 -17 6 -19 -2 -21 -96 -1 -57 -5 -105 -7
-108 -3 -2 -2 187 3 420 4 234 8 463 8 510 l0 85 -185 0 c-329 0 -844 -16
-857 -27 -7 -6 -13 -15 -13 -20 0 -5 -12 -20 -27 -33 -16 -13 -24 -27 -20 -31
4 -5 12 -3 16 5 6 10 10 9 14 -4 4 -9 3 -13 -3 -10 -6 3 -10 2 -10 -4 0 -6 -7
-8 -15 -5 -10 4 -14 16 -12 33 3 14 -1 32 -7 40 -9 11 -7 13 12 7 14 -5 29 -3
37 4 23 19 18 28 -12 20 -65 -17 -70 -21 -65 -46 4 -22 2 -23 -19 -16 -19 7
-27 4 -41 -13 -19 -24 -75 -38 -85 -22 -3 6 -1 7 5 3 17 -11 14 5 -5 26 -9 10
-11 18 -5 18 6 0 15 -7 20 -16 10 -19 43 -15 50 5 3 8 0 11 -6 8 -5 -4 -15 -1
-21 7 -8 10 -5 16 15 25 15 6 24 14 21 18 -9 8 -97 -7 -97 -16 0 -5 -9 -11
-20 -14 -22 -6 -28 8 -7 16 6 3 1 6 -13 6 -22 1 -26 -4 -28 -29 -2 -30 12 -41
21 -17 3 6 4 0 3 -16 -2 -15 -6 -29 -9 -32 -4 -3 -5 -2 -3 1 2 3 -7 16 -21 30
-21 21 -27 23 -41 12 -13 -11 -15 -11 -10 3 5 13 1 15 -20 11 -32 -6 -28 1 13
23 29 15 29 15 5 13 -14 -2 -31 -7 -37 -11 -7 -5 -13 -4 -13 1 0 5 -23 9 -50
8 -46 -1 -51 -4 -56 -26 -3 -14 -8 -32 -10 -41 -3 -11 2 -15 18 -13 13 1 27 3
32 3 5 1 3 8 -4 16 -11 13 -8 15 14 15 15 0 29 -7 32 -15 8 -20 23 -19 46 2
18 16 18 16 12 -2 -6 -15 -4 -17 15 -12 30 8 51 -1 50 -22 0 -10 -2 -11 -6 -3
-2 6 -17 12 -31 12 -26 0 -26 0 -6 -14 24 -17 216 -18 206 -2 -3 5 -1 6 5 3
12 -7 73 14 73 25 0 4 4 8 10 8 5 0 7 -7 4 -15 -4 -8 -16 -15 -28 -15 -18 0
-19 -2 -6 -11 12 -9 12 -10 -4 -5 -22 7 -49 -11 -39 -28 5 -7 2 -7 -8 1 -15
12 -43 12 -55 0 -7 -7 -6 -8 32 -12 12 -1 26 -5 32 -9 6 -3 13 0 16 6 4 9 8 9
11 2 4 -7 22 -8 50 -4 31 5 42 3 38 -4 -4 -6 0 -5 9 2 14 11 20 11 37 0 23
-14 29 -33 7 -25 -7 3 -18 1 -24 -5 -7 -7 -16 -6 -30 1 -10 5 -30 8 -43 6 -13
-3 -48 -1 -76 4 -29 4 -50 4 -47 0 7 -11 -117 -4 -124 7 -4 5 -60 11 -124 12
-114 1 -118 1 -123 -21 -2 -12 -14 -64 -26 -115 -11 -50 -18 -98 -16 -105 3
-7 6 -5 6 6 1 10 9 17 20 17 11 0 21 5 23 12 3 7 7 6 11 -5 6 -16 -8 -23 -36
-18 -5 1 -6 -3 -2 -9 3 -6 11 -8 16 -5 5 4 9 1 9 -6 0 -8 3 -9 14 0 10 9 16 8
26 -4 17 -20 31 -19 23 3 -5 14 -3 14 13 -3 15 -17 32 -20 87 -20 38 0 71 -3
73 -6 2 -3 21 -5 44 -3 22 1 38 -2 34 -7 -3 -5 -1 -9 5 -9 5 0 13 5 16 10 10
16 25 12 25 -7 0 -15 2 -14 15 3 10 13 14 14 15 5 0 -10 3 -11 13 -2 10 8 17
7 26 -2 7 -7 14 -8 19 -2 8 12 114 17 107 5 -2 -4 -21 -10 -42 -13 -21 -3 -49
-8 -63 -12 -14 -3 -41 -8 -60 -10 -19 -2 -46 -7 -60 -9 -50 -10 -225 -37 -274
-42 -28 -3 -52 -10 -54 -14 -2 -5 -9 -7 -17 -4 -7 3 -16 1 -20 -5 -3 -6 2 -11
12 -11 14 0 15 -2 4 -9 -7 -5 -11 -13 -7 -19 3 -6 1 -14 -5 -18 -7 -4 -9 -3
-5 4 3 6 1 14 -5 17 -15 10 -18 3 -8 -24 7 -18 12 -21 23 -12 10 9 16 9 21 1
4 -6 16 -8 27 -4 18 5 19 4 7 -9 -13 -14 -16 -13 -31 0 -16 15 -18 15 -18 0 0
-10 -4 -17 -10 -17 -5 0 -10 -8 -10 -17 0 -14 -2 -15 -9 -5 -6 10 -10 10 -21
-3 -11 -13 -8 -15 21 -17 19 -1 55 -1 81 0 49 2 156 -33 214 -69 33 -20 69
-16 60 7 -3 8 -1 14 4 14 6 0 10 -7 10 -15 0 -11 11 -15 36 -15 33 0 35 2 23
17 -12 15 -12 16 4 10 12 -5 28 0 45 13 20 16 27 18 34 8 5 -10 8 -8 8 5 0 25
27 32 49 13 17 -15 19 -15 32 1 13 16 12 17 -2 5 -14 -10 -18 -10 -23 3 -3 9
0 15 8 15 26 0 46 -12 39 -23 -4 -6 7 -2 23 9 35 25 90 41 204 60 19 3 76 18
125 34 106 33 183 50 230 50 18 0 36 6 38 13 4 10 6 10 6 0 1 -7 9 -13 19 -13
14 0 15 2 2 10 -8 5 -13 10 -10 11 7 2 53 7 117 13 28 3 68 9 87 15 23 6 36 6
36 0 0 -6 4 -8 8 -5 25 15 114 22 133 10 10 -6 12 -214 3 -262 -4 -19 -11 -29
-19 -26 -7 3 -15 -2 -18 -10 -9 -22 -33 -20 -57 4 -24 24 -59 26 -75 3 -12
-17 -68 -26 -58 -9 3 5 -8 7 -25 4 -29 -4 -30 -3 -21 21 9 25 9 25 -6 6 -9
-11 -20 -21 -25 -21 -6 -1 -13 -3 -17 -4 -5 -1 -17 -2 -28 -1 -15 1 -17 0 -7
-7 11 -7 7 -12 -15 -20 -15 -5 -37 -14 -48 -18 -18 -7 -18 -6 -6 9 8 11 9 17
3 17 -6 0 -16 -9 -22 -20 -6 -11 -16 -20 -22 -20 -7 0 -6 5 2 15 11 14 10 14
-15 5 -16 -6 -41 -8 -56 -5 -15 3 -30 1 -34 -4 -3 -6 -11 -11 -16 -11 -6 0 -7
5 -3 11 3 6 -8 3 -25 -6 -40 -20 -89 -27 -97 -13 -4 6 -10 5 -15 -3 -6 -10 -9
-11 -9 -2 0 12 -32 2 -92 -28 -10 -5 -30 -4 -48 2 -17 6 -39 9 -50 6 -13 -3
-18 -1 -13 6 4 6 -2 8 -17 4 -13 -3 -32 -1 -42 4 -16 9 -19 7 -17 -8 3 -21 -9
-62 -23 -80 -8 -10 -13 -9 -24 2 -8 7 -14 20 -14 27 0 8 4 7 11 -4 5 -10 15
-18 22 -18 8 0 8 3 2 8 -5 4 -10 14 -10 22 0 19 -49 42 -98 47 -22 2 -53 10
-71 18 -17 8 -47 14 -66 13 -19 0 -81 8 -137 17 -95 16 -104 17 -127 1 -17
-10 -23 -22 -19 -32 5 -14 3 -15 -14 -6 -34 18 -83 24 -83 10 0 -9 -3 -8 -10
2 -7 11 -10 12 -10 2 0 -9 -7 -11 -19 -7 -11 3 -22 1 -26 -5 -6 -10 0 -12 46
-14 14 -1 38 -9 52 -19 14 -9 31 -17 37 -17 6 0 9 -4 6 -8 -2 -4 -36 -7 -75
-6 -42 1 -71 -2 -71 -8 0 -6 8 -7 18 -4 16 6 16 5 0 -7 -10 -8 -14 -18 -10
-22 4 -5 0 -6 -10 -2 -11 4 -18 -1 -21 -15 -4 -15 -3 -18 5 -10 12 12 38 5 38
-10 0 -5 -4 -7 -8 -4 -14 9 -33 -11 -36 -38 -2 -14 1 -26 5 -26 5 0 9 5 9 12
0 6 3 8 6 5 4 -4 1 -13 -5 -21 -7 -8 -10 -20 -6 -26 3 -6 -3 -10 -15 -10 -19
0 -20 -2 -7 -15 9 -8 17 -20 19 -26 2 -6 19 -13 38 -15 18 -2 36 -7 39 -10 3
-3 -25 -3 -64 1 -70 7 -98 15 -56 15 20 0 21 1 7 16 -19 18 -19 19 -5 64 17
56 37 162 28 153 -4 -4 -20 -62 -35 -128 -37 -169 -43 -199 -38 -204 2 -2 4 1
4 8 0 9 5 9 20 1 11 -6 25 -8 30 -5 6 3 10 1 10 -5 0 -6 10 -10 23 -9 12 2 27
0 34 -4 10 -7 186 -21 223 -18 8 0 29 1 45 2 18 1 23 4 12 6 -21 5 -19 38 3
38 8 0 14 -5 13 -12 -2 -7 4 -10 13 -6 13 5 13 8 2 15 -16 12 -2 7 35 -12 23
-11 32 -11 48 -2 20 13 43 7 34 -8 -3 -5 6 -7 20 -4 24 4 30 -3 26 -34 -2 -10
4 -12 18 -7 16 5 20 3 15 -10 -4 -9 -13 -14 -21 -11 -8 3 -19 6 -24 6 -6 0 -6
7 0 19 13 23 4 33 -19 21 -10 -5 -20 -6 -24 -3 -10 10 -57 12 -51 2 4 -5 14
-9 23 -9 9 0 26 -7 36 -15 20 -15 20 -15 0 -16 -10 -1 -1 -5 21 -9 l40 -7 -35
-2 c-19 -1 -42 -6 -50 -11 -16 -10 9 -9 215 15 66 8 217 24 335 35 197 20 265
33 256 49 -2 3 6 6 17 7 20 1 81 5 251 20 33 2 63 7 68 10 4 3 8 1 8 -5 0 -5
10 -12 23 -14 12 -2 -16 -5 -63 -7 -89 -2 -132 -5 -215 -14 -27 -3 -56 -5 -64
-6 -8 0 -12 -2 -10 -5 3 -2 139 2 304 11 306 15 356 12 369 -22 13 -34 36
-198 29 -205 -4 -4 -24 -9 -43 -12 -26 -3 -21 -4 19 -5 30 -1 52 -5 49 -8 -3
-3 -91 -14 -194 -24 -104 -11 -200 -22 -214 -25 -14 -3 -110 -14 -215 -25
-104 -11 -219 -25 -255 -30 -109 -16 -444 -70 -465 -74 -11 -2 -83 -14 -160
-26 -77 -12 -230 -37 -340 -55 -110 -19 -229 -36 -265 -39 -36 -3 59 16 210
43 151 27 313 56 360 65 84 15 84 15 20 10 -58 -5 -421 -64 -605 -99 -38 -7
-74 -11 -78 -8 -5 3 -6 24 -3 47 4 34 3 31 -10 -16 l-16 -57 -91 -20 c-146
-31 -242 -49 -392 -71 -77 -11 -166 -25 -198 -31 -33 -6 -61 -8 -63 -6 -3 3
11 8 31 11 19 4 35 11 35 16 0 5 -6 7 -12 5 -15 -5 -771 -131 -1208 -200 -162
-26 -389 -65 -505 -86 -115 -22 -365 -62 -555 -89 -509 -74 -616 -94 -1090
-196 -456 -99 -762 -176 -990 -250 -198 -64 -593 -207 -675 -245 -22 -10 -62
-20 -90 -21 l-50 -3 38 -12 c32 -10 44 -9 73 4 18 9 37 13 41 8 5 -4 2 -10 -6
-13 -7 -2 -20 -13 -29 -23 -12 -14 -20 -15 -34 -8 -11 6 -24 8 -31 5 -7 -2 -4
-5 6 -5 9 -1 17 -5 17 -10 0 -6 -51 -8 -122 -6 -68 2 -233 7 -368 10 -135 3
-267 8 -295 10 -27 2 -111 7 -185 10 -282 12 -557 26 -598 31 -35 4 -41 8 -32
19 6 7 20 11 30 8 11 -3 20 0 20 6 0 7 20 9 63 4 34 -3 60 -3 57 0 -3 3 -34 8
-70 10 -50 4 -65 9 -70 23 -6 17 -7 17 -13 -1 -6 -14 -15 -16 -43 -12 -29 5
-35 3 -30 -8 3 -8 2 -15 -3 -15 -4 0 -11 -24 -14 -52 -7 -71 -39 -201 -50
-209 -5 -4 -7 -13 -5 -20 3 -8 -4 -31 -14 -51 -12 -22 -21 -64 -23 -104 -4
-62 -3 -65 11 -45 12 16 25 21 60 21 33 0 43 3 38 13 -6 9 -4 9 7 -1 7 -6 31
-11 53 -11 l41 2 -40 7 c-37 7 -38 7 -10 10 46 4 369 -1 374 -6 2 -2 -70 -4
-160 -4 -102 0 -159 -4 -150 -9 8 -5 60 -10 115 -10 56 0 226 -2 379 -3 248
-3 322 2 255 15 -15 3 -12 4 8 4 22 -1 30 -5 27 -14 -4 -9 5 -13 30 -13 19 0
49 -3 66 -6 19 -4 31 -2 31 4 0 6 -10 13 -22 15 -36 7 503 -2 547 -9 45 -7 75
-20 75 -33 0 -5 -12 -6 -28 -4 l-27 4 25 -13 c31 -17 36 -10 39 50 1 26 3 54
6 62 4 13 -8 15 -76 11 -67 -3 -80 -1 -74 10 6 11 5 12 -6 2 -16 -16 -269 -18
-269 -3 0 6 -5 10 -11 10 -5 0 -7 -4 -4 -10 3 -5 -1 -10 -10 -10 -10 0 -13 5
-9 12 5 7 3 8 -6 3 -7 -4 -47 -7 -89 -6 -42 1 -188 4 -326 6 -619 12 -835 21
-835 37 0 18 58 59 82 57 7 0 4 -5 -7 -10 -14 -6 5 -8 60 -5 47 2 81 8 83 15
3 8 9 8 25 -1 28 -15 97 -21 97 -8 0 5 -6 7 -14 4 -8 -3 -17 0 -22 7 -5 9 2
11 32 6 21 -4 45 -7 52 -7 7 0 10 -6 7 -12 -4 -7 -1 -6 7 2 7 8 22 14 33 14
11 -1 38 -3 60 -5 35 -2 33 -3 -20 -9 l-60 -7 80 -1 c47 0 72 3 60 7 -17 7
-16 9 10 14 47 8 478 -4 495 -15 13 -8 13 -9 0 -5 -8 2 -24 1 -35 -4 -16 -6
-12 -8 17 -8 20 -1 40 4 44 10 4 7 20 9 39 6 18 -3 35 -3 38 -1 10 10 343 13
428 4 89 -10 119 -21 119 -42 0 -7 -5 -7 -13 0 -7 6 -18 7 -26 3 -11 -7 -9
-11 7 -20 27 -14 38 -14 40 2 15 121 15 127 -6 127 -24 0 -38 16 -20 23 7 3 0
6 -16 6 -24 1 -27 -1 -16 -14 13 -16 51 -16 -505 5 -143 5 -330 12 -415 15
-85 3 -173 8 -195 10 -22 2 -132 7 -245 10 -113 4 -213 9 -222 11 -54 15 21
56 86 48 32 -5 52 -2 68 8 19 12 63 14 247 11 133 -2 229 -7 235 -13 7 -7 -11
-11 -55 -12 -41 -1 -20 -4 61 -9 69 -4 251 -5 404 -3 229 2 284 0 307 -11 16
-9 51 -14 81 -13 l53 1 -55 8 c-38 5 -17 6 71 5 69 -2 131 -6 137 -10 21 -13
13 -28 -10 -21 l-23 7 22 -21 c12 -11 25 -21 28 -21 3 0 5 23 5 51 0 40 3 49
13 41 8 -7 17 -7 29 2 10 7 15 15 12 18 -6 6 70 38 89 37 6 0 -8 -9 -33 -19
-66 -28 -34 -24 46 6 46 17 57 23 34 20 -26 -4 -30 -3 -15 4 42 19 404 131
441 137 22 3 44 9 49 13 6 4 39 14 75 23 182 46 563 138 606 147 27 5 130 28
229 50 309 69 733 145 1145 205 342 50 386 56 470 70 134 23 597 91 805 119
174 24 269 38 350 52 17 3 53 8 80 10 28 3 64 9 80 14 33 10 124 24 329 51 44
5 83 12 88 15 5 3 59 7 121 9 115 3 389 33 555 61 52 9 95 14 97 12 2 -2 -14
-62 -35 -133 -154 -521 -190 -648 -187 -652 3 -2 17 35 32 84 15 48 46 151 70
228 24 77 60 196 80 265 46 155 64 207 79 219 10 8 353 63 489 78 26 3 47 9
47 12 0 10 -245 48 -266 41 -16 -6 -15 -8 7 -23 24 -17 24 -17 -21 -13 -25 2
-45 8 -45 14 0 6 -4 14 -8 19 -5 4 -8 4 -7 -2 9 -41 -36 -51 -46 -11 -4 16
-11 23 -20 19 -10 -4 -14 3 -14 21 0 19 7 29 26 36 34 13 80 13 106 -1 11 -6
72 -22 137 -35 70 -14 127 -32 144 -45 26 -19 33 -20 120 -10 51 6 153 16 227
21 74 5 232 18 350 29 118 11 307 22 420 26 113 3 241 8 285 11 44 3 130 3
191 -1 l110 -7 -2 -61 -3 -62 12 70 c10 59 15 70 33 73 40 6 246 -28 330 -54
90 -27 116 -45 108 -72 -11 -31 32 41 59 102 35 76 27 86 -10 12 -28 -57 -36
-63 -63 -46 -13 9 -13 10 0 11 8 1 18 1 21 1 4 -1 9 9 11 22 4 22 1 24 -26 22
-49 -2 -109 28 -113 58 -2 13 2 28 8 32 8 4 9 3 5 -4 -10 -16 0 -15 29 4 14 9
31 14 40 11 8 -4 17 -2 20 3 4 6 23 10 43 10 61 0 75 9 120 73 32 46 35 54 13
30 -28 -31 -49 -44 -37 -25 6 9 4 10 -70 17 -49 4 -51 3 -49 -20 2 -14 -3 -26
-12 -29 -12 -5 -14 -1 -10 16 6 22 5 22 -8 4 -13 -18 -16 -18 -49 -2 -19 9
-43 28 -54 43 -17 24 -26 27 -81 27 -33 0 -61 4 -61 9 0 4 5 5 10 2 6 -3 10
-1 10 5 0 7 7 9 16 6 8 -3 29 1 46 10 23 12 49 15 105 11 64 -4 79 -9 113 -36
31 -25 46 -30 77 -27 22 2 51 11 66 20 14 10 30 18 34 18 4 0 17 7 28 14 24
17 2 19 -24 2 -10 -6 -26 -8 -37 -3 -11 4 -39 9 -64 11 -57 6 -73 11 -65 24 3
5 -1 11 -9 11 -9 1 -20 3 -26 4 -5 1 -47 4 -92 5 -62 2 -75 4 -53 10 41 11
-117 11 -215 1 -44 -5 -80 -4 -87 1 -6 5 -15 35 -19 66 -8 66 -10 76 -23 120
-6 21 -6 32 0 32 6 0 7 5 3 12 -5 8 -2 9 10 5 10 -4 20 -7 22 -7 2 0 4 -21 4
-47 0 -77 17 -121 53 -140 27 -15 54 -18 171 -15 76 1 146 7 155 12 14 8 14 9
-4 10 -15 0 -17 2 -6 9 9 6 25 2 45 -10 53 -32 49 -21 -8 26 -33 26 -68 46
-88 49 -34 4 -257 78 -280 92 -15 10 20 21 69 23 32 1 53 23 53 53 0 10 -2 10
-9 0 -6 -10 -10 -7 -15 12 -5 20 3 43 32 94 22 37 51 88 66 115 15 26 31 47
36 47 14 0 13 -6 -13 -48 -13 -20 -41 -69 -62 -109 -37 -68 -38 -73 -22 -91
10 -10 18 -37 19 -61 1 -30 5 -40 15 -37 7 3 12 2 12 -2 -4 -23 5 -34 41 -52
49 -25 52 -13 5 18 -31 20 -35 27 -35 65 0 60 17 111 47 147 17 21 22 35 16
41 -7 7 -16 -2 -27 -26 -23 -47 -32 -39 -12 10 14 32 20 37 41 33 21 -5 25 -1
26 21 l1 26 10 -29 c8 -22 8 -31 0 -34 -9 -3 -8 -11 2 -30 21 -41 30 -76 18
-68 -6 4 -8 -2 -5 -14 3 -11 9 -18 13 -15 4 3 13 -2 20 -10 7 -8 22 -15 34
-15 12 0 35 -12 53 -27 17 -16 50 -39 74 -51 l44 -24 -30 26 c-25 21 -27 25
-11 26 24 0 17 8 -10 13 -54 8 -174 103 -174 137 0 10 -3 26 -6 34 -5 13 -2
15 12 9 16 -6 16 -3 -4 21 -22 28 -30 76 -13 76 12 0 58 -39 47 -40 -5 0 -18
8 -29 18 -16 13 -19 14 -15 2 8 -25 69 -61 92 -54 12 4 18 3 14 -1 -9 -10 17
-35 36 -35 9 0 16 -4 16 -8 0 -11 61 -33 72 -26 5 3 15 0 23 -6 11 -9 15 -9
15 -1 0 6 5 11 11 11 7 0 9 -10 5 -24 -6 -24 9 -45 22 -32 3 4 7 34 9 67 3 53
1 59 -12 45 -8 -8 -15 -22 -15 -30 0 -9 -4 -16 -10 -16 -9 0 -11 8 -10 35 1
10 -31 65 -36 65 -6 0 2 -54 12 -88 3 -9 -13 3 -36 28 -34 36 -39 46 -25 48
15 3 17 12 11 55 -3 29 -8 63 -11 77 -3 14 5 -4 17 -40 26 -78 24 -74 38 -65
8 5 8 11 -2 23 -10 14 -10 15 1 5 7 -6 20 -9 28 -6 12 5 12 9 -1 28 -8 12 -13
33 -10 46 4 21 3 21 -4 4 -15 -34 -50 77 -50 158 0 37 -3 71 -6 75 -7 7 -136
-125 -136 -140 0 -24 -42 -88 -58 -88 -11 0 -13 3 -5 8 13 8 113 209 113 227
0 7 7 18 15 25 13 11 15 8 15 -14 0 -17 4 -25 11 -21 5 4 9 17 7 28 -1 12 1
28 5 34 6 9 3 11 -8 7 -13 -5 -15 -2 -10 19 11 43 -11 38 -29 -6 -9 -23 -28
-66 -42 -94 -14 -29 -23 -57 -19 -63 4 -6 -1 -7 -11 -3 -13 5 -16 3 -11 -9 3
-9 0 -19 -8 -21 -7 -3 -16 -19 -20 -36 -7 -33 -25 -52 -25 -27 0 9 -4 16 -10
16 -16 0 -12 27 5 33 22 9 65 82 116 200 51 117 59 131 59 101 0 -11 -5 -25
-11 -31 -7 -7 -6 -12 4 -16 15 -6 25 32 32 123 2 19 8 55 13 80 25 109 35 252
21 303 -12 45 -64 96 -98 97 -14 0 -36 -13 -55 -33z m-1102 -58 l11 -36 100 2
c55 2 134 10 175 18 41 9 100 17 130 19 l55 3 3 -40 c2 -35 -1 -42 -24 -52
-31 -14 -42 -10 -26 10 9 10 8 14 -3 14 -8 0 -15 -4 -15 -9 0 -5 -16 -16 -36
-25 -31 -15 -35 -21 -31 -46 3 -22 1 -27 -12 -21 -9 4 -24 7 -33 8 -10 0 -18
4 -18 8 0 4 -8 5 -17 1 -10 -3 -15 -3 -11 2 4 4 0 14 -10 22 -16 13 -15 14 5
10 14 -3 32 4 50 19 15 13 31 24 34 24 4 0 9 9 12 19 3 15 0 19 -14 18 -11 -1
-19 -5 -19 -9 0 -4 -5 -8 -11 -8 -6 0 -17 -7 -25 -15 -9 -8 -24 -15 -35 -15
-10 0 -19 -4 -19 -10 0 -5 -9 -10 -20 -10 -10 0 -25 -10 -31 -22 -6 -13 -21
-34 -33 -47 -15 -18 -17 -23 -5 -19 12 5 15 1 11 -18 -6 -31 -16 -30 -32 4
-11 22 -14 24 -17 10 -3 -10 -8 -18 -13 -18 -5 0 -14 8 -19 18 -13 22 -14 1
-2 -31 8 -20 23 -28 81 -42 40 -10 68 -20 63 -24 -15 -11 -43 -73 -37 -82 3
-5 0 -9 -7 -9 -7 0 -9 -3 -6 -6 10 -10 -12 -44 -28 -44 -9 0 -15 10 -15 25 0
14 -4 25 -9 25 -4 0 -7 13 -5 30 2 16 -3 35 -11 44 -8 8 -15 19 -15 24 0 14
-46 6 -71 -12 -17 -11 -26 -13 -36 -4 -9 8 -13 7 -13 -1 0 -7 -5 -9 -11 -6 -5
4 -19 -1 -29 -10 -18 -16 -18 -16 -14 2 4 14 0 20 -11 20 -9 0 -14 -6 -11 -14
8 -19 2 -16 -20 9 -12 13 -13 18 -4 13 13 -8 13 -6 2 7 -8 9 -20 14 -28 11
-17 -6 -18 1 -4 27 8 16 7 18 -4 14 -13 -5 -14 0 -6 26 9 32 9 32 -10 15 -11
-10 -17 -22 -14 -26 3 -5 0 -9 -7 -9 -6 0 -9 8 -7 18 4 12 -1 18 -13 18 -11 0
-19 -4 -19 -9 0 -5 -7 -6 -16 -3 -8 3 -24 1 -35 -4 -14 -8 -19 -7 -19 1 0 8
-4 8 -15 -1 -21 -17 -29 -7 -21 25 5 20 11 25 25 20 11 -3 22 -1 26 5 3 5 1
10 -4 10 -17 0 -13 17 5 24 9 4 23 1 32 -6 12 -11 17 -9 30 10 9 13 25 22 41
22 14 0 33 5 41 10 10 6 3 7 -24 3 -39 -6 -39 -6 -32 23 9 36 25 56 39 47 6
-4 5 -10 -5 -17 -8 -6 -18 -20 -22 -31 -5 -16 -2 -14 19 7 27 29 31 48 15 64
-6 6 1 11 22 12 18 2 33 4 35 6 2 2 29 3 60 2 55 -1 56 -2 67 -37z m369 -224
c62 -4 68 -5 62 -14 -3 -5 -1 -12 5 -16 6 -4 8 -11 5 -16 -4 -5 1 -9 10 -9 9
0 15 -6 12 -12 -2 -7 -11 -11 -18 -10 -38 10 -49 10 -44 1 4 -5 -1 -9 -9 -9
-9 0 -16 5 -16 11 0 6 -9 9 -20 6 -11 -3 -20 -1 -20 4 0 5 -27 9 -60 9 -41 0
-60 4 -60 13 0 6 -3 23 -7 36 l-6 24 69 -8 c38 -4 81 -8 97 -10z m-1379 -611
c3 -8 10 -13 15 -10 4 3 22 1 40 -4 22 -6 31 -5 31 3 0 7 5 4 11 -6 8 -14 20
-18 47 -15 31 3 37 0 42 -22 4 -17 12 -24 24 -22 15 3 15 0 4 -17 -8 -13 -16
-17 -22 -11 -12 12 -29 13 -22 2 2 -4 -7 -7 -22 -7 -15 1 -36 -6 -46 -14 -12
-11 -20 -12 -23 -5 -4 13 -53 6 -53 -8 0 -5 4 -7 9 -4 5 3 11 -4 14 -15 3 -12
10 -18 16 -14 6 3 9 10 7 14 -3 4 1 8 9 8 10 0 11 -6 5 -23 -9 -22 -8 -22 15
-12 16 7 21 16 17 27 -5 13 -3 14 10 3 13 -10 17 -10 21 0 3 7 6 9 6 3 1 -14
-20 -38 -49 -56 -25 -16 -26 -16 -48 17 -21 33 -42 45 -42 24 0 -16 -17 -12
-24 6 -5 12 -2 15 10 10 11 -4 14 -1 12 11 -3 16 -17 19 -114 26 -20 2 -21 4
-8 40 20 57 45 86 75 87 15 0 29 -7 33 -16z m345 -81 c6 -21 11 -45 11 -55 0
-23 22 -28 44 -9 18 15 19 15 13 -2 -4 -10 -7 -22 -7 -26 0 -4 -9 -7 -20 -8
-11 -1 -18 2 -15 8 4 5 1 9 -5 9 -7 0 -10 -6 -7 -14 3 -8 1 -17 -6 -20 -7 -3
1 -4 17 -3 17 1 31 -4 34 -12 3 -9 0 -11 -8 -6 -8 5 -18 1 -27 -10 -7 -11 -13
-16 -13 -12 0 4 -14 0 -31 -9 -30 -15 -32 -15 -25 1 6 16 4 16 -11 4 -14 -12
-16 -12 -8 0 6 11 3 13 -12 9 -16 -4 -20 -1 -18 16 4 31 4 31 21 10 14 -18 15
-18 4 4 -12 24 -26 29 -33 10 -2 -7 -7 -10 -11 -6 -4 3 -2 17 4 30 10 19 10
21 -1 11 -7 -7 -20 -13 -28 -13 -11 0 -10 4 5 15 11 8 14 15 7 15 -18 0 -16
29 2 36 8 4 15 15 15 25 0 11 7 19 18 20 27 1 53 7 60 13 12 13 22 4 31 -31z
m1516 0 c35 -6 37 -7 15 -13 -19 -4 -27 -15 -34 -45 -5 -22 -21 -89 -35 -150
l-26 -110 -39 -3 c-36 -3 -38 -2 -34 20 3 13 20 87 39 166 37 157 31 149 114
135z m-1669 -132 c31 5 52 -29 31 -50 -14 -14 -30 -14 -22 -1 13 21 -11 9 -38
-20 -30 -31 -25 -40 9 -15 29 22 40 18 13 -5 -17 -14 -19 -18 -6 -14 20 7 22
-6 5 -25 -11 -11 -10 -12 6 -4 14 8 27 6 50 -7 17 -10 60 -21 96 -25 108 -10
192 -43 106 -41 -24 1 -42 5 -39 10 3 4 -4 5 -16 1 -11 -3 -21 -2 -21 3 0 5
-21 12 -47 16 -27 3 -76 11 -111 17 -56 10 -62 13 -56 31 5 16 3 18 -7 12 -19
-12 -39 -14 -39 -4 0 5 6 11 13 14 6 3 2 3 -9 1 -14 -4 -24 0 -28 11 -9 24 3
36 30 30 23 -6 29 1 25 31 -1 7 5 10 13 7 20 -8 30 14 14 34 -11 15 -11 16 3
4 9 -7 21 -12 25 -11z m749 -209 c-5 -5 -55 -13 -110 -16 -125 -8 -484 -45
-509 -52 -12 -4 -27 4 -46 25 -16 17 -25 33 -20 36 4 3 11 -1 14 -7 5 -10 7
-10 12 0 10 21 39 13 56 -15 10 -16 18 -22 18 -13 0 11 15 16 61 18 34 1 65 5
69 7 5 3 63 7 131 10 67 3 124 6 126 8 1 2 49 4 105 6 65 1 99 -1 93 -7z
m-117 -466 c34 -16 45 -18 51 -8 7 11 11 10 23 -2 9 -8 17 -13 20 -11 2 2 16
6 31 9 22 4 27 1 25 -12 -2 -14 5 -17 37 -17 22 0 50 -5 61 -12 12 -7 49 -13
83 -14 34 -1 59 -4 56 -7 -8 -8 -66 -11 -285 -13 -107 -1 -223 -5 -258 -8 -34
-4 -68 -4 -74 0 -14 9 -1 29 18 29 13 0 19 12 15 33 -1 5 4 5 11 1 19 -12 58
-14 58 -3 0 5 -3 8 -7 8 -19 -3 -33 2 -33 12 0 5 6 7 13 3 9 -6 9 -4 -1 8 -11
14 -10 17 10 21 48 9 104 3 146 -17z"/>
<path d="M9645 8340 c-3 -5 -1 -19 5 -30 6 -11 7 -20 3 -19 -25 4 -39 -3 -39
-21 1 -27 -18 -26 -26 2 -5 21 -6 20 -7 -7 -1 -23 -3 -27 -11 -15 -8 13 -10
12 -11 -5 -1 -11 -2 -26 -2 -32 1 -15 -13 -17 -21 -4 -3 5 -14 7 -25 4 -27 -7
-52 32 -40 64 5 13 9 30 9 36 -1 16 -37 -70 -44 -104 -3 -15 -18 -34 -33 -44
-22 -15 -30 -16 -47 -5 -21 13 -21 13 -2 -9 11 -11 15 -21 10 -21 -5 -1 -22
-12 -39 -26 -28 -24 -29 -25 -5 -19 13 4 30 14 38 21 7 8 19 14 25 13 9 0 8
-2 0 -6 -22 -8 -14 -21 12 -19 14 0 25 4 25 9 0 4 5 7 10 7 6 0 10 -7 10 -15
0 -24 14 -17 28 13 7 15 19 36 27 46 14 19 15 19 35 1 11 -10 18 -25 16 -32
-3 -7 -1 -13 5 -13 6 0 7 -4 4 -10 -8 -13 -42 -13 -51 1 -3 6 -1 15 6 19 8 5
7 9 -4 13 -10 4 -16 1 -16 -7 0 -8 -3 -22 -7 -32 -5 -12 -3 -15 6 -9 8 4 16 3
20 -3 4 -6 40 -14 81 -17 41 -3 83 -8 92 -11 12 -3 18 0 18 10 0 9 -4 16 -10
16 -5 0 -10 5 -10 11 0 12 63 2 68 -11 10 -26 33 -40 78 -46 l51 -6 2 63 c1
35 7 69 12 74 11 11 462 11 712 0 230 -10 250 -10 254 0 2 6 -7 10 -19 11
-162 8 -477 18 -565 18 -62 1 -113 5 -113 10 0 4 -11 6 -25 4 -14 -3 -25 -2
-25 3 0 4 -10 6 -22 4 -12 -3 -27 0 -34 6 -9 7 -18 5 -31 -9 -10 -11 -30 -21
-45 -24 -25 -5 -27 -2 -30 30 -2 20 -8 37 -15 39 -7 3 -9 -4 -6 -18 4 -16 2
-20 -8 -17 -8 3 -13 10 -12 16 1 5 -9 13 -22 16 -14 4 -25 14 -26 24 0 11 -2
12 -6 4 -3 -7 1 -19 7 -27 17 -21 7 -19 -36 7 -32 19 -37 20 -31 5 5 -12 1
-17 -13 -17 -10 0 -22 5 -25 10 -10 16 -25 12 -19 -5 5 -13 1 -13 -24 2 -17
10 -26 20 -20 24 6 4 1 12 -11 21 -14 10 -19 21 -15 32 7 17 -11 23 -21 6z"/>
<path d="M9133 8045 c-9 -19 -22 -35 -28 -35 -13 0 -255 19 -294 23 -13 1 -26
-3 -28 -9 -3 -8 24 -14 79 -18 420 -32 611 -47 653 -52 l50 -5 -29 16 c-34 20
-43 21 -216 29 -74 4 -148 10 -165 13 l-29 5 22 19 c14 10 18 20 12 24 -6 3
-8 11 -5 16 4 5 4 9 0 9 -3 0 -13 -16 -22 -35z"/>
<path d="M4553 7072 c-53 -5 -38 -22 20 -23 50 -1 51 -1 17 -10 -19 -5 -65 -6
-102 -3 -51 5 -68 3 -68 -6 0 -10 -3 -10 -15 0 -8 6 -20 10 -27 7 -8 -3 -1 -9
16 -16 19 -8 32 -8 41 -1 6 5 14 7 18 4 8 -8 152 -7 179 2 13 3 20 4 17 0 -12
-13 -108 -33 -121 -25 -8 5 -24 -2 -43 -20 -16 -15 -47 -32 -68 -38 l-37 -11
17 29 c22 37 9 50 -21 18 -17 -18 -20 -28 -13 -40 8 -13 2 -31 -22 -74 -18
-31 -30 -60 -27 -63 3 -3 6 0 6 6 0 7 7 12 16 12 15 0 15 -3 -1 -27 -9 -16
-35 -45 -58 -66 -40 -36 -41 -37 -12 -27 17 6 37 13 45 16 13 4 13 6 0 15 -11
8 -10 9 7 4 29 -8 51 4 32 16 -11 7 -10 9 3 9 31 0 29 -18 -5 -39 -17 -11 -28
-21 -24 -21 11 0 175 87 312 166 66 39 150 85 187 104 37 19 65 36 63 38 -1 2
-34 -12 -71 -31 -38 -19 -103 -49 -145 -66 -42 -17 -98 -46 -125 -63 -27 -17
-53 -31 -59 -32 -5 -1 -16 -6 -24 -11 -10 -5 -16 -4 -19 3 -2 7 -13 10 -25 7
-22 -5 -56 9 -46 19 2 3 20 1 39 -3 44 -10 60 -4 60 19 0 10 5 22 11 25 6 4 9
21 8 39 -4 50 21 101 33 67 2 -6 24 -4 53 3 99 26 132 26 55 1 -41 -14 -83
-25 -92 -25 -10 0 -18 -6 -18 -14 0 -11 23 -7 102 20 99 33 139 42 108 25 -8
-5 -59 -24 -112 -42 -58 -19 -98 -39 -98 -46 0 -11 4 -11 23 1 46 28 166 68
189 61 17 -5 19 -4 9 4 -12 8 -9 11 15 16 74 17 79 24 18 23 -51 0 -72 5 -125
33 -44 23 -74 33 -96 31z"/>
<path d="M14505 6736 c-115 -69 -268 -387 -374 -773 -19 -71 -19 -73 -1 -73
10 0 26 -10 34 -21 12 -18 17 -19 29 -8 12 12 12 15 -2 27 -12 10 -13 15 -4
18 9 4 10 11 3 25 -8 13 -7 19 0 19 10 0 8 85 -5 148 -2 12 0 22 4 22 8 0 19
-56 27 -130 1 -19 6 -55 10 -80 4 -25 6 -69 6 -97 0 -50 17 -89 19 -41 l0 23
10 -23 c5 -13 7 -28 4 -32 -10 -16 -12 -70 -3 -64 5 3 8 -14 6 -40 l-3 -45
-30 33 c-18 19 -36 31 -45 28 -13 -4 -13 -3 -2 10 8 10 9 19 3 22 -10 6 -55
-63 -47 -72 3 -2 17 3 32 12 14 10 27 16 29 14 3 -2 -9 -24 -25 -48 -17 -25
-30 -39 -30 -31 0 20 -13 5 -27 -32 -12 -30 -12 -27 -8 28 4 50 3 56 -6 35 -6
-14 -12 -44 -14 -67 -2 -24 -11 -50 -20 -59 -9 -9 -13 -19 -10 -22 3 -4 10 0
15 8 6 8 10 11 10 5 0 -5 -4 -16 -9 -23 -6 -11 -10 -11 -18 0 -26 34 -26 88 1
88 13 0 34 67 33 102 0 15 -3 16 -16 5 -25 -19 -40 -41 -34 -51 3 -4 -1 -13
-8 -18 -11 -8 -12 -11 -1 -15 11 -4 10 -8 -1 -22 -16 -17 -77 -333 -101 -521
-3 -19 -8 -51 -11 -70 l-6 -35 21 28 c12 15 32 32 43 39 19 10 20 9 10 -4 -7
-8 -10 -17 -7 -20 2 -3 -4 -30 -15 -59 -20 -53 -20 -53 -1 -29 11 14 27 33 36
42 9 9 13 21 10 27 -4 6 2 19 14 31 11 11 20 24 20 30 0 5 7 13 15 18 21 11 8
45 -14 37 -9 -3 -6 3 7 13 25 19 62 71 62 87 0 5 -11 -7 -25 -27 -31 -45 -62
-65 -78 -49 -8 8 -7 11 4 11 15 0 69 49 69 63 0 3 -7 4 -15 1 -8 -4 -15 -1
-15 5 0 10 13 15 32 12 4 0 9 8 13 18 3 10 14 21 24 24 10 2 37 38 59 78 46
81 49 78 27 -26 -18 -83 -17 -75 -4 -75 6 0 9 6 6 13 -2 6 2 33 9 58 8 25 16
61 18 81 3 20 12 73 20 118 9 45 16 97 16 116 0 19 4 34 10 34 5 0 6 8 3 18
-6 15 -5 15 10 3 23 -19 22 2 -2 23 -19 18 -18 48 2 74 8 10 7 16 -4 23 -8 5
-9 9 -3 9 6 0 10 14 9 30 -2 31 9 40 19 18 3 -7 3 -3 0 10 -3 13 -1 29 5 36 8
9 5 18 -9 34 -24 25 -25 33 -5 26 9 -4 15 0 15 10 0 9 5 16 11 16 5 0 7 5 4
10 -4 6 -11 8 -16 4 -6 -3 -3 11 5 31 11 26 13 42 6 55 -6 11 -6 21 -1 24 5 3
8 19 7 35 -2 22 2 28 14 24 10 -3 9 0 -4 11 -11 9 -15 16 -8 16 18 0 10 50 -8
51 -10 0 -11 2 -2 6 6 2 12 14 12 24 0 11 -5 17 -10 14 -6 -4 -8 -11 -5 -16 4
-5 1 -9 -4 -9 -16 0 -14 25 3 39 11 9 17 5 29 -20 8 -17 14 -45 13 -61 -2 -27
-1 -28 11 -12 7 10 9 20 4 23 -4 3 -5 15 0 26 l8 20 1 -20 c1 -11 3 -36 5 -55
2 -19 0 -39 -5 -45 -19 -23 -15 -105 5 -105 8 0 15 -5 15 -11 0 -5 -5 -7 -11
-3 -8 5 -8 1 0 -14 13 -25 14 -35 2 -27 -5 3 -13 0 -17 -6 -4 -7 -3 -9 3 -6 6
4 14 0 17 -9 10 -27 7 -36 -11 -30 -16 5 -16 4 -3 -6 17 -15 24 -44 13 -51 -5
-3 -7 -34 -5 -69 l4 -63 53 -1 c29 0 67 -7 85 -14 30 -13 32 -16 27 -54 -3
-23 -9 -54 -13 -71 -4 -16 -8 -43 -8 -59 -1 -27 3 -30 62 -46 l63 -17 -2 51
c0 28 2 113 6 189 4 76 8 285 8 465 1 351 -9 456 -52 540 -20 40 -64 82 -85
82 -6 0 -29 -11 -51 -24z"/>
<path d="M9404 6541 c-57 -30 -109 -74 -137 -118 -16 -24 -30 -49 -31 -56 -1
-6 -5 -18 -9 -24 -9 -14 -13 -131 -5 -138 11 -11 38 8 38 26 0 12 5 16 15 13
10 -4 15 0 15 11 0 9 4 14 9 10 6 -3 14 3 20 12 6 10 11 13 11 6 0 -8 7 -10
18 -6 16 6 16 5 0 -14 -20 -22 -23 -33 -7 -33 5 0 8 4 4 9 -12 20 16 21 55 1
40 -20 49 -33 30 -45 -5 -3 -10 -12 -10 -18 0 -7 4 -6 10 3 5 8 10 11 10 6 0
-5 8 -2 18 5 14 11 15 11 5 -1 -8 -8 -10 -29 -6 -57 4 -29 2 -43 -6 -43 -6 0
-12 17 -12 38 -1 20 -3 29 -6 20 -6 -22 -21 -23 -45 -1 -12 10 -18 12 -18 4 0
-8 -7 -10 -21 -6 -15 5 -19 4 -14 -5 4 -6 16 -10 26 -7 11 3 17 1 13 -4 -3 -5
-12 -9 -20 -9 -8 0 -14 -6 -15 -12 0 -7 -5 -2 -10 12 l-10 24 -13 -24 c-18
-35 -10 -51 23 -44 14 4 33 10 41 15 8 4 23 3 33 -3 10 -5 30 -12 43 -14 31
-6 194 -102 194 -115 0 -5 11 -14 24 -21 21 -9 32 -6 71 16 109 65 181 271
115 331 -10 9 -24 14 -29 10 -6 -3 -11 -2 -11 4 0 17 25 19 44 2 21 -18 21
-17 -16 59 -15 31 -42 70 -61 88 -31 31 -35 32 -48 16 -12 -16 -12 -17 3 -12
9 4 24 0 35 -7 17 -14 17 -14 -2 -15 -11 0 -26 -9 -33 -20 -7 -12 -17 -18 -23
-14 -7 4 -6 10 1 19 8 9 6 14 -6 19 -22 8 -26 8 -19 -4 10 -17 -6 -34 -17 -19
-7 10 -8 8 -3 -6 8 -23 8 -25 6 -47 -1 -14 -5 -15 -31 -6 -39 13 -46 26 -24
43 12 9 14 14 6 15 -20 0 -39 -23 -34 -42 4 -16 57 -41 78 -37 24 4 52 -2 70
-16 17 -14 6 -14 -111 -9 -71 4 -127 4 -124 0 3 -4 24 -7 45 -8 21 -1 43 -6
47 -12 6 -8 10 -7 14 1 3 9 10 10 22 3 10 -5 22 -6 26 -2 5 4 5 2 2 -5 -4 -6
-16 -9 -26 -6 -10 3 -22 0 -25 -6 -4 -6 -14 -11 -22 -11 -8 0 -12 5 -9 10 10
16 -7 12 -27 -7 -17 -15 -19 -14 -43 11 -17 18 -38 29 -61 30 -44 4 -57 16
-18 17 18 1 8 5 -25 10 -39 7 -57 6 -62 -2 -3 -6 -9 -7 -12 -2 -7 11 12 36 38
51 13 7 15 11 6 12 -8 0 -25 -10 -38 -22 -20 -19 -23 -19 -23 -4 0 9 -4 14
-10 11 -5 -3 -10 -1 -10 4 0 6 7 11 16 11 9 0 21 13 27 30 8 22 16 28 29 24
14 -4 18 0 18 21 0 15 -4 24 -10 20 -5 -3 -7 0 -4 8 3 9 14 13 27 11 12 -2 16
-2 10 2 -20 9 -15 26 6 19 12 -4 21 0 25 11 9 23 6 23 -30 5z"/>
<path d="M3375 6252 c10 -11 94 -59 235 -134 41 -22 80 -45 85 -51 6 -5 -65
29 -157 76 -93 48 -168 85 -168 83 0 -3 27 -21 60 -41 33 -20 58 -41 55 -45
-3 -5 -13 -7 -23 -3 -9 3 3 -8 28 -24 25 -16 46 -26 48 -22 4 10 32 -1 32 -13
0 -5 -6 -6 -12 -2 -8 4 -8 2 1 -7 10 -10 15 -11 18 -2 3 8 41 -8 109 -43 l104
-56 -1 44 -1 43 -198 100 c-207 104 -232 115 -215 97z"/>
<path d="M3505 6226 c17 -14 92 -57 169 -97 l138 -73 -6 -65 c-3 -36 -8 -100
-11 -141 -3 -41 -10 -115 -16 -165 -20 -179 -22 -234 -9 -250 10 -12 9 -15 -6
-15 -17 0 -17 -1 2 -15 29 -22 40 -18 41 13 1 15 15 86 31 157 17 72 44 191
61 266 17 75 35 148 41 163 9 23 6 34 -20 71 -16 24 -30 50 -30 59 0 8 -4 17
-9 20 -5 3 -8 -9 -7 -27 1 -20 -4 -34 -10 -34 -7 0 -10 6 -7 14 3 7 1 13 -4
13 -16 0 -44 -36 -36 -45 5 -4 -12 4 -37 18 -113 64 -217 119 -259 138 l-46
20 30 -25z"/>
<path d="M3290 6193 c1 -13 325 -223 345 -223 2 0 31 -16 64 -35 68 -40 81
-43 81 -17 0 13 -15 25 -45 38 -42 17 -65 40 -27 28 9 -4 -14 12 -52 35 -38
23 -71 39 -73 37 -3 -3 19 -18 49 -35 31 -18 45 -31 34 -31 -10 0 -59 27 -108
60 -50 34 -94 57 -101 54 -7 -4 -9 -4 -5 1 5 5 -26 28 -68 52 -76 43 -94 50
-94 36z"/>
<path d="M3311 6142 c13 -10 48 -33 77 -51 52 -33 65 -53 20 -31 -19 9 -17 6
7 -16 22 -20 25 -25 10 -20 -44 14 80 -69 253 -169 52 -30 79 -51 72 -55 -9
-6 -9 -9 -1 -13 7 -3 7 -5 -1 -3 -7 2 -13 9 -13 17 0 8 -11 14 -27 14 -14 0
-30 4 -34 8 -5 4 0 5 11 1 19 -7 19 -6 2 12 -14 16 -19 16 -26 5 -7 -11 -21
-7 -70 20 -33 18 -61 37 -61 41 0 4 25 -6 55 -22 59 -32 70 -36 60 -20 -3 5
-26 18 -50 29 -24 11 -65 34 -90 51 -26 18 -49 30 -51 27 -3 -3 11 -15 31 -27
20 -12 34 -24 31 -27 -2 -2 -50 23 -105 56 -56 34 -111 61 -122 61 -18 0 -18
-2 8 -23 15 -12 60 -44 99 -70 40 -26 84 -59 99 -72 14 -14 30 -23 35 -20 9 6
182 -86 211 -111 23 -21 26 -18 28 34 1 26 4 54 6 63 4 11 -10 24 -47 44 -100
53 -289 167 -284 172 2 2 63 -30 136 -72 72 -42 134 -75 136 -72 3 3 -46 33
-108 67 -62 35 -131 75 -153 90 -121 81 -210 132 -144 82z"/>
<path d="M14810 5885 c0 -179 -3 -171 58 -159 35 7 39 22 44 167 3 76 3 77
-22 77 -32 0 -46 -10 -53 -35 -3 -13 -5 -9 -6 13 -1 31 1 32 37 32 38 0 71 14
56 22 -5 3 -26 8 -47 12 -21 4 -35 11 -32 15 4 7 -16 21 -31 21 -2 0 -4 -74
-4 -165z"/>
<path d="M3325 5936 c11 -9 31 -27 45 -39 14 -12 30 -22 37 -23 16 -3 60 -34
47 -34 -5 0 -15 5 -22 12 -6 6 -14 10 -16 7 -2 -2 69 -53 159 -114 90 -60 159
-113 154 -116 -6 -3 -4 -11 5 -18 12 -10 15 -9 14 6 0 10 2 29 6 43 6 24 -3
31 -179 133 -102 60 -185 111 -185 114 0 2 10 1 23 -3 25 -8 23 -5 -18 21 -25
15 -28 16 -16 2 18 -22 10 -21 -36 4 -22 12 -30 14 -18 5z"/>
<path d="M3278 5868 c-6 -17 80 -78 101 -71 14 4 14 3 1 -6 -17 -12 -14 -16
19 -26 16 -5 21 -4 17 4 -5 7 -1 8 9 4 12 -4 13 -8 5 -13 -7 -4 16 -24 57 -51
180 -115 253 -157 259 -148 8 13 -23 47 -61 66 -48 25 -136 85 -131 90 2 2 32
-14 66 -37 33 -24 63 -40 65 -38 6 5 -314 224 -342 235 -16 6 -16 5 -4 -10 7
-9 17 -17 22 -17 5 0 46 -25 92 -56 97 -67 92 -63 85 -69 -3 -3 -22 7 -44 23
-32 23 -157 101 -201 126 -6 3 -13 0 -15 -6z"/>
<path d="M3276 5787 c2 -6 18 -21 36 -32 17 -11 46 -29 63 -40 17 -11 62 -42
99 -68 37 -27 105 -69 151 -94 47 -24 88 -49 92 -55 4 -8 0 -9 -10 -5 -10 4
-25 10 -34 14 -12 5 -15 2 -10 -10 7 -19 -16 -13 -52 15 -13 10 -30 18 -37 18
-12 0 -72 36 -101 60 -7 5 -16 10 -21 10 -5 0 -17 9 -27 20 -10 11 -16 20 -12
20 6 0 106 -64 125 -81 12 -10 32 -5 21 5 -32 30 -203 135 -212 130 -7 -4 -9
-4 -5 1 4 4 0 14 -10 21 -25 20 -38 17 -19 -4 25 -27 21 -35 -8 -16 -13 9 -30
14 -37 12 -7 -3 5 -16 27 -31 22 -15 36 -27 32 -27 -4 0 -19 7 -33 16 -13 9
-27 14 -30 11 -11 -10 220 -156 312 -196 29 -13 43 -25 38 -32 -4 -7 -2 -10 6
-7 8 2 22 -4 32 -14 10 -10 23 -16 28 -13 5 3 14 -4 20 -15 17 -32 31 -13 28
38 -1 26 1 52 5 59 5 7 -13 23 -50 44 -32 18 -119 72 -193 119 -213 137 -220
140 -214 127z"/>
<path d="M3274 5584 c21 -11 25 -18 16 -24 -9 -6 -6 -11 11 -21 13 -7 27 -12
32 -11 4 1 7 -5 7 -13 0 -14 136 -110 276 -193 78 -46 84 -49 84 -28 0 8 5 18
11 22 7 4 9 0 6 -12 -13 -46 -17 -94 -9 -94 5 0 12 23 15 52 8 67 -5 87 -85
131 -35 19 -108 59 -163 89 -55 31 -116 64 -135 74 -19 11 -37 22 -40 25 -3 4
-16 9 -30 13 -23 6 -23 5 4 -10z"/>
<path d="M3235 5490 c-3 -5 -1 -10 5 -10 6 0 9 -4 6 -9 -3 -5 49 -46 115 -92
66 -46 134 -94 152 -106 18 -13 37 -26 42 -31 21 -16 81 -51 105 -60 25 -10
26 -9 28 34 1 33 -2 44 -13 44 -8 0 -24 9 -34 19 -11 11 -22 17 -24 14 -9 -9
-57 29 -50 40 3 5 1 7 -4 4 -6 -4 -26 4 -44 17 -67 48 -138 86 -152 80 -8 -3
-17 2 -20 10 -4 9 -14 16 -23 16 -9 0 -27 9 -41 20 -29 22 -39 25 -48 10z"/>
<path d="M3879 5468 c0 -7 -4 -35 -8 -61 -8 -46 1 -73 13 -42 3 8 10 15 16 15
6 0 8 -5 4 -11 -4 -8 -1 -8 12 -1 65 34 118 43 213 35 l96 -8 -75 -6 -75 -5
78 -2 c46 -1 77 2 77 8 0 6 7 10 16 10 8 0 13 -4 9 -9 -3 -5 3 -12 13 -15 26
-9 163 -3 169 7 4 7 178 4 383 -8 47 -3 177 -9 290 -15 422 -21 432 -22 460
-57 22 -28 28 -55 8 -35 -14 14 -28 16 -28 3 0 -14 43 -22 51 -9 4 6 2 20 -4
30 -9 14 -9 20 -1 26 6 4 15 31 19 60 l7 52 -64 0 c-34 1 -110 3 -168 5 -58 2
-258 7 -445 10 -187 4 -376 8 -420 10 -44 1 -199 6 -345 9 -146 4 -273 9 -282
12 -11 3 -18 0 -19 -8z"/>
<path d="M3213 5409 c0 -25 4 -30 20 -25 25 6 47 -3 47 -19 0 -16 -25 -26 -44
-19 -8 3 -17 1 -20 -4 -9 -15 67 -78 201 -168 65 -43 120 -82 123 -85 3 -4 21
-15 40 -25 19 -11 50 -29 68 -42 l32 -23 0 29 c0 16 3 43 6 59 6 29 1 32 -133
121 -76 50 -183 122 -239 161 l-101 70 0 -30z"/>
<path d="M3815 5320 c-3 -5 -13 -6 -22 -3 -30 12 -2 -18 31 -33 17 -7 24 -13
14 -14 -12 0 -18 -13 -23 -51 -4 -27 -4 -53 -1 -56 3 -3 1 -12 -5 -19 -7 -8
-5 -20 8 -41 17 -26 21 -28 73 -23 57 6 104 29 121 61 13 25 66 52 74 39 3 -6
-3 -10 -14 -10 -11 0 -23 -5 -27 -12 -5 -8 8 -10 50 -5 71 7 126 -1 126 -19 0
-8 -5 -14 -11 -14 -5 0 -7 5 -4 10 8 13 -55 13 -75 0 -12 -8 -10 -10 11 -10
14 0 29 -3 33 -7 8 -8 24 -10 127 -19 60 -5 81 -3 100 9 18 12 53 16 139 17
63 1 121 1 128 1 18 -1 15 -19 -5 -24 -10 -2 2 -4 26 -4 27 -1 38 3 30 8 -22
13 -2 23 41 21 22 -2 40 1 40 5 0 5 -123 9 -272 9 -225 1 -275 -1 -283 -13 -9
-12 -11 -10 -11 6 0 18 7 21 51 21 82 1 608 9 640 10 32 2 134 2 422 4 157 1
180 3 170 15 -9 11 -9 13 0 8 6 -4 29 -9 50 -11 21 -2 46 -7 55 -11 13 -5 15
-2 11 14 -4 17 -8 19 -19 10 -13 -10 -18 -6 -15 14 0 4 -38 8 -86 9 -83 2 -84
2 -20 5 65 4 87 15 47 26 -11 3 -20 0 -20 -6 0 -18 -361 -2 -930 42 -69 6
-204 13 -300 16 -96 4 -183 9 -194 12 -13 4 -16 1 -11 -8 6 -11 5 -12 -6 -1
-8 8 -46 12 -111 12 -59 0 -98 4 -98 10 0 6 -4 10 -10 10 -5 0 -7 -7 -4 -15 4
-11 0 -15 -16 -15 -16 0 -20 4 -16 15 6 17 0 20 -9 5z"/>
<path d="M3200 5247 c0 -20 4 -23 25 -19 17 3 25 0 25 -10 0 -8 28 -37 63 -64
34 -27 64 -52 65 -56 2 -5 7 -8 11 -8 16 0 206 -132 203 -141 -1 -5 5 -10 13
-10 8 -1 20 -2 27 -3 15 -1 23 -26 8 -26 -6 0 -37 18 -67 40 -31 22 -62 40
-70 40 -7 0 -13 4 -13 9 0 5 -13 14 -29 21 -16 6 -32 18 -35 26 -3 8 -10 14
-16 14 -14 0 -72 41 -83 58 -5 7 -12 10 -17 7 -5 -3 -11 4 -15 15 -7 22 -13
24 -32 12 -22 -14 61 -81 300 -246 l97 -67 0 28 c0 15 3 44 6 63 5 33 3 37
-43 64 -26 16 -112 72 -191 123 -79 51 -145 93 -148 93 -3 0 -15 9 -27 21 -12
11 -30 25 -39 30 -15 8 -18 6 -18 -14z"/>
<path d="M1099 5197 c10 -12 10 -17 1 -17 -6 0 0 -10 15 -22 103 -87 159 -170
208 -313 30 -85 31 -98 32 -245 0 -136 -2 -160 -21 -200 -25 -54 -77 -111
-122 -134 -51 -26 -30 -32 22 -6 64 31 119 97 155 188 36 92 46 138 46 214 0
39 4 58 12 58 8 0 12 14 10 40 -1 22 -5 40 -10 40 -4 0 -6 3 -6 8 1 4 0 21 -1
37 l-2 30 -9 -29 c-5 -18 -5 -34 1 -41 6 -7 7 -15 3 -18 -3 -4 -2 -7 3 -7 5 0
10 -12 10 -26 2 -22 -2 -25 -24 -22 -29 3 -69 63 -74 109 -2 13 -8 30 -15 37
-7 7 -10 19 -7 27 4 9 -1 18 -11 21 -9 4 -14 13 -11 21 3 8 1 11 -4 8 -5 -3
-13 7 -16 22 -4 15 -16 43 -26 62 -11 19 -17 44 -14 55 3 12 1 28 -5 36 -8 11
-9 9 -4 -10 6 -24 5 -24 -19 5 -14 17 -26 33 -26 37 0 4 -12 10 -27 14 -16 4
-39 13 -53 22 -23 14 -24 14 -11 -1z"/>
<path d="M980 5128 c0 -10 7 -18 14 -18 13 0 13 -4 0 -35 -16 -40 -17 -45 -5
-45 8 0 24 60 21 76 -2 10 23 23 32 18 4 -3 8 -10 8 -15 0 -6 -4 -8 -9 -5 -5
3 -11 -4 -14 -17 -2 -12 -8 -30 -12 -39 -4 -11 -3 -18 4 -18 6 0 11 8 11 18 0
9 4 23 9 30 14 23 48 -5 45 -37 -2 -14 -1 -18 2 -8 7 21 24 22 24 1 0 -10 6
-14 15 -11 15 6 60 -41 49 -52 -3 -3 -14 5 -25 18 -10 13 -19 19 -19 14 0 -5
5 -14 10 -19 12 -12 -7 -77 -21 -69 -4 3 -6 12 -2 20 3 8 0 15 -7 15 -8 0 -10
-8 -7 -21 3 -12 0 -27 -7 -34 -10 -11 -13 -8 -13 14 0 15 -7 38 -16 51 l-16
24 -10 -25 c-5 -13 -10 -22 -11 -19 -1 3 -3 13 -5 23 -6 30 -15 33 -15 5 0
-25 -20 -31 -47 -15 -8 5 -11 1 -10 -11 1 -13 9 -19 27 -20 50 -2 65 -6 78
-19 12 -12 9 -13 -22 -11 -20 1 -36 6 -36 10 0 4 -20 8 -45 8 -25 0 -45 -4
-45 -10 0 -14 -43 -12 -59 3 -11 10 -13 9 -8 -5 4 -10 2 -18 -3 -18 -5 0 -11
8 -13 18 -3 9 -5 2 -6 -17 -1 -28 1 -32 13 -22 12 10 19 8 35 -8 12 -12 21
-17 21 -12 0 6 -4 13 -10 16 -5 3 -10 12 -10 18 0 8 3 7 9 -2 5 -8 15 -12 22
-9 8 3 22 2 32 -1 18 -7 18 -8 1 -21 -14 -12 -16 -12 -10 -1 6 9 5 12 -5 9 -8
-3 -13 -13 -11 -23 3 -13 -1 -16 -14 -11 -14 5 -15 4 -4 -9 10 -12 10 -15 -3
-15 -19 0 -31 -16 -18 -25 6 -3 19 3 29 13 24 24 64 52 75 52 5 0 6 -9 2 -20
-3 -11 -1 -28 5 -37 10 -16 11 -15 6 7 -6 29 7 59 18 41 4 -6 2 -11 -3 -11 -6
0 -11 -4 -11 -10 0 -5 10 -9 23 -7 18 2 23 -4 25 -31 2 -18 0 -31 -5 -30 -10
4 -13 -6 -12 -34 1 -17 2 -19 6 -5 2 9 8 17 13 17 5 0 11 -8 13 -17 4 -14 5
-12 6 5 0 12 6 22 11 22 6 0 10 -10 11 -22 l1 -23 6 23 c4 13 10 23 15 22 4 0
22 6 40 13 60 24 75 9 61 -62 -7 -32 -24 -43 -24 -15 0 8 -4 13 -8 10 -10 -6
-2 -86 9 -86 5 0 9 11 9 25 0 13 7 28 16 33 10 5 15 23 16 50 0 23 4 45 9 48
14 8 0 24 -21 24 -10 0 -22 5 -26 11 -4 8 0 9 15 4 21 -6 30 12 14 29 -11 11
-14 46 -3 46 9 0 12 -14 9 -36 0 -4 3 -10 8 -13 15 -10 33 -95 22 -102 -14 -8
-7 -72 9 -77 9 -3 10 3 2 23 -9 22 -8 26 4 22 20 -8 27 17 14 53 -13 40 -2 52
12 14 14 -36 18 -199 6 -239 -9 -30 -9 -30 -16 15 -4 27 -3 48 3 51 6 4 7 15
2 25 -8 18 -8 18 -13 -1 -2 -11 -8 -25 -13 -30 -4 -6 -4 -17 1 -25 12 -18 13
-60 3 -60 -5 0 -9 -10 -9 -22 -1 -13 -5 -34 -9 -48 -3 -14 3 -5 14 19 24 49
39 49 22 0 -13 -39 -55 -95 -80 -109 -14 -7 -26 -4 -47 12 -26 20 -27 20 -11
2 29 -34 19 -40 -15 -8 -27 23 -29 24 -10 3 27 -31 27 -34 5 -36 -10 0 -29 -2
-43 -3 -57 -4 -127 21 -114 41 3 5 -3 10 -13 10 -41 3 -46 5 -57 21 -14 24 -1
34 19 14 9 -9 21 -16 28 -16 6 0 2 7 -9 15 -18 14 -17 14 9 5 18 -6 27 -6 27
0 0 10 -56 27 -72 22 -5 -1 -8 3 -8 9 0 6 7 9 15 5 17 -6 19 2 5 24 -6 9 -5
17 2 21 6 4 -1 6 -16 6 -23 -2 -24 -4 -10 -14 17 -12 10 -38 -7 -27 -6 3 -8
-6 -4 -23 l5 -28 -11 28 c-6 15 -15 27 -21 27 -6 0 -7 -7 -4 -16 5 -14 4 -15
-9 -4 -16 13 -21 35 -6 26 5 -3 13 0 19 7 14 16 -1 42 -18 32 -8 -5 -11 -4 -7
2 4 6 -1 17 -10 24 -14 12 -15 11 -8 -11 4 -14 10 -31 13 -39 4 -10 1 -12 -7
-6 -10 6 -11 3 -3 -12 15 -28 150 -153 176 -162 12 -5 22 -18 23 -31 2 -29 22
-50 70 -75 21 -11 48 -30 61 -43 20 -21 27 -21 23 1 -1 5 3 6 8 3 11 -7 77 54
73 67 -1 5 2 6 8 2 16 -10 122 59 172 113 46 49 69 84 75 112 14 75 12 81 -9
26 -27 -71 -110 -168 -135 -159 -10 4 -14 2 -10 -4 4 -6 -21 -22 -57 -37 -63
-27 -65 -27 -91 -10 -22 14 -31 15 -46 6 -22 -14 -75 -16 -83 -3 -3 4 9 8 27
7 17 0 33 3 34 8 2 14 72 48 83 41 5 -3 7 0 5 7 -3 8 6 25 20 38 16 15 25 19
25 10 0 -27 19 5 46 75 45 120 40 324 -10 346 -24 11 -51 47 -42 57 4 3 12 0
18 -6 15 -15 28 -16 28 -2 0 6 -7 10 -15 10 -9 0 -27 27 -44 64 -29 65 -119
194 -160 230 -24 22 -62 28 -73 12 -6 -8 -11 -6 -18 4 -8 13 -10 12 -10 -2z"/>
<path d="M3184 5090 c-1 -26 2 -29 21 -24 16 4 33 -6 66 -38 25 -24 62 -56 82
-71 21 -16 35 -32 32 -37 -3 -6 0 -7 8 -4 8 3 21 -1 28 -8 8 -8 58 -44 111
-82 104 -72 114 -81 98 -91 -6 -3 -13 1 -16 9 -3 9 -10 13 -15 10 -5 -3 -12 2
-15 10 -3 8 -15 18 -26 22 -29 9 -89 51 -105 74 -7 10 -19 17 -26 14 -7 -2
-32 16 -56 40 -40 41 -61 50 -61 27 0 -12 164 -150 250 -210 l75 -52 7 33 c19
90 32 74 -195 228 -114 77 -211 140 -215 140 -4 0 -13 9 -20 20 -17 28 -27 25
-28 -10z"/>
<path d="M3808 5035 c-1 -16 -1 -49 -1 -72 0 -24 -4 -43 -10 -43 -6 0 -8 -24
-5 -64 3 -38 1 -69 -5 -75 -9 -9 -22 -114 -32 -271 -2 -36 -9 -90 -14 -120 -5
-31 -5 -60 0 -66 5 -6 2 -21 -5 -36 -13 -24 -21 -99 -31 -268 -2 -36 -8 -92
-14 -125 -5 -33 -9 -79 -7 -102 1 -24 -2 -43 -7 -43 -5 0 -7 -27 -5 -59 1 -33
0 -62 -4 -66 -4 -4 -4 -13 -1 -21 3 -8 1 -14 -4 -14 -5 0 -8 -31 -7 -70 1 -49
-2 -68 -10 -63 -6 4 -5 -1 3 -10 7 -10 9 -17 3 -17 -6 0 -10 -28 -9 -74 2 -59
4 -70 13 -55 15 29 63 52 80 38 17 -14 59 -18 76 -8 8 6 -3 9 -32 10 l-45 2
45 6 c25 3 72 3 105 -1 33 -3 141 -10 240 -13 99 -4 198 -9 220 -10 79 -7 761
-6 779 1 13 5 17 4 13 -3 -5 -7 5 -11 26 -11 17 0 53 -4 80 -10 51 -10 55 -8
30 20 -13 15 -14 18 -1 18 24 0 58 -44 59 -76 0 -26 1 -27 9 -8 4 11 11 47 14
80 5 57 5 58 -5 16 -10 -44 -11 -44 -32 -25 -12 10 -24 19 -27 21 -2 2 1 7 8
11 7 4 -141 11 -330 15 -372 7 -888 23 -1008 31 -41 2 -123 7 -182 11 -92 5
-108 8 -108 22 1 39 55 71 90 52 20 -11 220 -18 220 -7 0 4 -34 7 -77 7 -42 0
-73 3 -69 7 6 7 357 5 426 -2 19 -2 86 -5 148 -6 74 -1 112 -6 112 -13 0 -8 2
-8 8 0 5 8 82 11 261 10 140 -1 280 1 312 4 34 3 63 2 69 -4 7 -7 10 -6 10 1
0 12 32 8 67 -9 12 -6 31 -8 42 -5 12 3 19 1 16 -3 -3 -5 5 -10 17 -12 12 -2
28 -14 34 -27 11 -21 13 -16 23 50 6 41 16 102 21 135 15 94 15 97 -17 89 -30
-7 -500 -7 -623 0 -41 2 -142 7 -225 10 -281 10 -660 26 -680 30 -11 2 -47 4
-80 4 -78 2 -94 11 -76 45 12 22 18 24 61 19 35 -4 54 -1 74 12 23 15 43 17
149 11 67 -3 212 -8 322 -12 110 -4 204 -9 210 -12 15 -9 45 -10 40 -1 -6 9
57 5 73 -5 7 -4 16 -5 21 -2 4 3 161 6 347 7 240 1 339 -2 342 -10 2 -6 11
-11 21 -11 9 0 22 -5 29 -12 9 -9 12 -9 12 0 0 6 -18 23 -41 38 -22 14 -38 28
-35 32 4 3 12 0 18 -6 7 -7 17 -12 23 -12 5 0 3 5 -5 10 -13 9 -13 10 0 10 8
0 25 3 38 6 22 6 22 5 18 -52 -5 -59 2 -42 17 42 l6 32 -42 -6 c-23 -3 -43 -8
-45 -12 -2 -4 -20 -4 -40 1 -20 4 -269 13 -552 19 -283 6 -546 13 -585 15 -38
3 -155 10 -260 15 -104 6 -193 14 -196 18 -4 4 -3 17 2 30 10 25 61 50 67 33
5 -15 29 -14 75 3 46 16 281 12 397 -6 41 -7 176 -12 300 -13 138 0 228 -4
232 -10 5 -6 8 -6 8 2 0 8 10 9 36 1 28 -7 39 -7 46 4 7 9 11 10 14 2 3 -7 13
-10 22 -8 43 9 92 11 92 4 0 -5 -6 -10 -12 -12 -7 -3 4 -5 24 -6 21 -1 40 3
43 8 3 6 11 10 16 10 6 0 7 -4 4 -10 -3 -5 -2 -10 4 -10 5 0 11 5 13 11 4 13
187 16 258 4 42 -7 44 -6 30 10 -8 9 -23 21 -34 25 -18 6 -17 7 7 12 14 3 24
2 22 -2 -2 -4 7 -18 20 -30 14 -13 25 -29 25 -37 0 -7 5 -13 10 -13 6 0 10 13
10 29 0 16 3 43 6 60 7 31 6 31 -22 20 -21 -8 -120 -9 -349 -4 -176 3 -336 9
-355 12 -19 2 -109 6 -200 7 -284 5 -286 5 -270 16 13 8 13 10 -2 10 -9 0 -19
-4 -23 -10 -3 -5 -27 -7 -53 -5 -26 2 -123 7 -217 10 -93 4 -181 8 -195 10
-14 2 -28 4 -32 4 -15 2 -8 38 11 55 15 14 29 16 58 12 25 -5 51 -2 75 8 48
21 235 12 258 -11 8 -9 10 -13 3 -9 -6 3 -15 1 -19 -5 -5 -9 12 -11 65 -7 39
3 71 1 71 -3 0 -5 7 -9 16 -9 9 0 12 -5 8 -12 -9 -15 56 -2 71 14 10 11 4 10
-41 -9 -12 -4 -15 -2 -12 8 2 8 20 16 39 19 26 3 18 6 -36 11 -68 6 909 1
1010 -6 28 -2 63 -8 79 -14 31 -13 50 -6 26 9 -8 5 -19 11 -25 13 -5 3 -6 8
-2 13 5 5 22 -6 39 -24 16 -19 31 -32 32 -30 2 1 6 27 10 56 5 36 4 52 -3 47
-12 -7 -396 -7 -521 0 -180 11 -588 27 -645 27 -68 -1 -399 15 -492 24 -35 3
-63 10 -63 15 0 6 12 22 26 36 24 24 28 25 39 10 8 -12 19 -14 39 -9 16 4 65
4 110 0 127 -11 256 -15 256 -6 0 4 -9 8 -21 8 -11 0 -17 4 -14 10 4 7 22 2
48 -13 43 -24 97 -34 97 -17 0 5 30 11 68 13 58 3 55 4 -18 3 -47 0 -89 -3
-95 -7 -5 -4 -16 0 -24 8 -12 13 17 14 240 9 140 -3 394 -6 564 -7 224 -1 320
-4 347 -14 44 -15 40 1 -6 21 l-31 13 27 1 c19 0 35 -11 57 -37 l31 -38 0 45
c0 25 3 56 7 69 5 21 4 22 -14 12 -38 -20 -349 -19 -953 4 -47 1 -173 5 -280
8 -330 10 -475 18 -484 28 -6 5 -5 17 3 32 12 22 16 22 119 19 100 -4 135 4
62 13 -18 3 -35 7 -39 11 -3 3 68 3 159 0 91 -4 291 -11 445 -17 154 -5 430
-11 614 -12 l333 -3 21 -24 c19 -24 20 -24 15 -3 -3 12 -2 23 2 25 4 2 11 23
15 47 7 40 6 43 -11 37 -38 -14 -705 -7 -1329 14 -359 13 -395 16 -395 40 0
33 26 49 63 40 22 -5 45 -3 65 6 17 7 33 10 36 7 3 -4 6 -1 6 6 0 13 188 11
460 -4 109 -6 900 -19 963 -16 27 1 47 -2 44 -6 -3 -4 14 -9 36 -11 24 -1 47
-9 54 -18 10 -14 13 -11 18 19 4 20 5 42 2 49 -3 7 -6 -3 -7 -22 l-1 -35 -19
23 c-11 14 -24 20 -31 16 -8 -4 -9 -3 -5 4 4 7 1 12 -6 12 -8 0 -23 6 -33 14
-18 13 -16 14 15 10 40 -5 100 3 100 14 0 4 -165 8 -368 9 -202 1 -419 5 -482
8 -138 6 -347 14 -647 24 -123 4 -226 11 -230 14 -3 4 -1 18 5 31 11 24 14 25
89 21 177 -10 273 -18 273 -25 0 -4 10 -6 23 -4 12 1 35 3 50 3 16 1 26 5 22
11 -3 6 -2 10 4 10 5 0 13 -4 16 -10 8 -13 45 -13 45 0 0 5 35 8 85 6 47 -2
85 0 85 5 0 5 12 4 26 -1 35 -14 67 -13 58 1 -4 7 0 9 12 5 47 -14 96 -17 352
-21 166 -2 272 0 272 6 0 5 7 9 15 9 18 0 20 -16 3 -23 -7 -3 20 -6 60 -6 48
-1 72 -5 72 -13 0 -6 2 -9 5 -6 3 3 3 13 -1 22 -5 14 -15 15 -57 10 -36 -5
-48 -4 -43 5 12 18 97 14 112 -6 11 -14 13 -15 9 -2 -5 13 2 15 52 11 37 -2
63 -10 72 -21 12 -14 13 -14 8 6 -3 13 -1 26 4 29 5 3 9 20 9 39 0 33 -1 33
-31 25 -17 -5 -83 -7 -147 -5 -65 3 -322 7 -572 11 -250 3 -462 6 -470 6 -8 1
-21 5 -27 11 -9 6 -13 6 -13 -1 0 -6 -6 -9 -12 -7 -12 4 -247 13 -390 14 -65
1 -68 2 -68 25 0 13 6 28 13 33 18 14 49 24 42 14 -3 -6 30 -9 77 -8 46 0 71
2 56 5 -16 2 -28 8 -28 14 0 8 51 9 172 4 95 -4 174 -9 177 -11 5 -5 -74 -8
-169 -7 -49 1 -52 0 -25 -8 17 -6 64 -8 105 -6 41 3 98 6 125 7 l50 2 -40 8
c-22 4 66 5 195 3 129 -3 239 -9 245 -15 5 -5 20 -8 35 -8 24 1 24 2 -5 9 -16
5 116 7 295 5 179 -1 339 -6 355 -10 28 -8 29 -7 15 10 -8 9 -23 21 -35 26
-15 6 -10 7 20 6 30 -2 40 -7 39 -19 -1 -10 4 -14 12 -11 8 3 14 19 14 37 l0
31 -157 -6 c-192 -7 -1175 -2 -1264 7 -35 4 -124 7 -197 8 l-132 1 -2 -30z
m-26 -1377 c3 -9 15 -9 51 1 44 13 141 11 357 -5 30 -2 123 -6 205 -9 83 -3
179 -8 215 -11 36 -3 216 -6 401 -7 360 -2 369 -4 369 -53 0 -46 -17 -47 -435
-40 -214 4 -412 9 -440 11 -27 2 -147 7 -265 10 -118 4 -226 8 -240 10 -14 1
-81 6 -150 10 -180 11 -180 11 -162 50 17 37 85 61 94 33z"/>
<path d="M3220 4914 c0 -9 79 -83 152 -142 38 -30 68 -59 68 -64 0 -6 6 -8 14
-5 8 3 21 -2 30 -12 19 -20 20 -31 5 -31 -5 0 -7 6 -3 13 5 7 0 6 -11 -3 -15
-12 -19 -12 -23 -2 -6 19 -62 75 -69 69 -17 -17 154 -178 221 -208 22 -10 26
-19 26 -56 0 -23 -4 -43 -9 -43 -5 0 -8 7 -7 17 0 10 -37 44 -99 89 -55 40
-156 117 -225 173 l-125 100 -5 -32 c-7 -40 -6 -41 17 -27 15 10 28 2 88 -55
60 -57 167 -145 299 -248 20 -16 34 -33 31 -38 -4 -5 -11 -7 -16 -3 -5 3 -7
10 -4 15 4 5 -1 9 -10 9 -9 0 -33 11 -53 25 -20 14 -32 25 -27 25 6 0 -3 9
-20 20 -48 32 -59 24 -24 -20 29 -35 141 -120 160 -120 4 0 7 -21 7 -46 0 -60
21 -85 24 -28 0 21 2 50 4 64 9 70 10 170 3 170 -5 0 -11 11 -15 24 -3 13 -23
33 -47 47 -59 32 -78 52 -68 68 7 11 13 8 26 -13 10 -14 23 -26 30 -26 7 0 24
-9 39 -21 14 -11 26 -16 26 -11 0 6 3 17 6 25 4 11 -14 28 -58 58 -35 23 -121
86 -193 139 -121 90 -165 118 -165 104z"/>
<path d="M12920 4775 c-199 -95 -491 -219 -690 -293 -218 -81 -565 -207 -698
-254 -67 -23 -118 -44 -114 -46 35 -11 970 339 1332 498 94 42 350 166 358
175 14 14 -27 -4 -188 -80z"/>
<path d="M13751 4760 c-130 -63 -139 -69 -109 -84 32 -16 64 -79 71 -139 5
-52 42 -131 81 -176 31 -34 115 -72 146 -64 24 6 52 34 77 77 16 28 16 36 -2
36 -8 0 -15 5 -15 10 0 6 3 9 8 9 17 -3 32 2 32 10 0 5 -14 9 -32 9 -50 -2
-107 68 -135 163 -29 101 -37 167 -22 185 16 19 18 20 -100 -36z"/>
<path d="M917 4770 c-26 -21 -61 -27 -87 -16 -13 5 -15 -1 -12 -35 5 -45 -12
-74 -28 -49 -7 11 -5 19 8 28 16 13 16 13 -3 10 -13 -2 -19 2 -17 12 1 10 -3
8 -13 -5 -9 -11 -19 -18 -23 -15 -4 3 -8 -7 -10 -22 -3 -23 1 -28 17 -28 12 0
21 5 21 11 0 5 -5 7 -12 3 -7 -4 -8 -3 -4 5 6 9 11 9 22 0 12 -10 10 -16 -18
-40 -18 -15 -30 -30 -26 -34 4 -4 26 9 50 29 l43 37 20 -25 c16 -19 24 -23 38
-15 9 6 17 17 17 26 0 12 3 13 13 5 9 -8 23 -8 43 -2 26 8 26 9 4 7 -26 -1
-50 9 -50 22 0 4 14 6 30 5 17 -1 32 2 35 7 3 4 13 5 21 2 12 -4 15 -1 12 13
-4 21 -47 22 -60 1 -6 -9 -8 -9 -8 2 0 7 -6 11 -15 8 -29 -12 -26 15 6 44 37
33 26 40 -14 9z"/>
<path d="M3145 4614 c0 -25 4 -43 10 -41 6 2 9 14 7 25 -2 12 1 22 7 22 6 0 8
-7 4 -16 -4 -12 -2 -15 8 -12 8 3 50 -31 99 -78 47 -45 128 -117 180 -159 52
-42 103 -82 113 -91 16 -13 18 -12 24 3 7 19 15 12 -212 193 -77 61 -158 128
-180 149 -58 54 -60 54 -60 5z"/>
<path d="M10100 4561 c-14 -5 -18 -9 -10 -10 38 -2 132 -87 181 -163 27 -42
49 -82 49 -88 0 -6 10 -30 23 -53 13 -23 31 -61 40 -83 8 -23 27 -58 41 -79
15 -21 33 -61 42 -89 25 -81 71 -273 79 -326 2 -14 7 -45 10 -70 4 -25 7 -57
7 -72 0 -15 4 -25 9 -22 5 3 6 -2 3 -10 -3 -9 -2 -16 3 -16 5 0 8 -18 6 -40
-1 -22 2 -38 6 -36 4 3 8 -1 8 -9 0 -8 -3 -15 -7 -15 -3 0 -6 -9 -6 -20 0 -11
3 -20 7 -20 4 0 10 -7 13 -16 3 -8 2 -12 -3 -9 -9 5 -9 -22 4 -249 5 -84 17
-122 35 -111 5 3 6 -3 3 -13 -4 -16 0 -18 28 -14 32 5 33 4 16 -13 -10 -9 -17
-18 -15 -20 15 -12 49 -25 44 -16 -13 20 9 11 33 -14 13 -14 31 -25 40 -25 9
0 25 -3 36 -5 11 -3 26 -1 34 4 11 7 11 12 -2 32 -14 23 -29 66 -41 122 -4 18
-11 25 -19 21 -7 -4 -9 -4 -6 0 4 4 0 33 -8 64 -8 31 -15 79 -17 105 -2 27 -7
52 -13 55 -12 9 -26 45 -14 37 17 -10 20 11 9 47 -9 31 -8 38 10 56 14 14 22
17 26 9 2 -7 5 -4 5 5 1 13 -6 17 -23 16 -17 -2 -22 -7 -18 -18 4 -12 2 -13
-9 -2 -11 10 -11 16 -1 32 15 25 15 33 0 27 -8 -3 -14 5 -14 19 -1 13 2 24 8
24 5 0 6 -4 3 -10 -3 -5 -1 -10 5 -10 7 0 9 7 6 16 -3 9 -6 18 -6 20 0 3 -4 2
-10 -1 -5 -3 -10 0 -11 7 -1 18 -6 40 -13 59 -4 10 5 27 25 48 25 27 27 32 10
26 -21 -6 -21 -7 -35 70 -4 17 -9 40 -11 53 -4 16 -2 21 5 17 6 -4 9 -13 6
-21 -3 -8 1 -14 8 -14 14 0 13 22 -2 60 -3 8 -6 18 -7 23 -2 4 -3 8 -4 10 -1
1 -4 22 -7 47 -2 24 -9 49 -15 55 -7 7 -8 5 -4 -7 4 -10 3 -18 -3 -18 -14 0
-25 32 -13 40 20 12 -97 274 -170 382 -23 33 -34 58 -27 60 6 2 -4 15 -23 28
-19 13 -51 39 -73 58 -21 19 -58 43 -81 53 -49 22 -148 32 -185 20z"/>
<path d="M3133 4468 c-1 -50 16 -69 18 -20 1 16 3 20 6 10 2 -10 10 -18 17
-18 6 0 58 -43 114 -96 117 -110 273 -244 285 -244 27 0 -6 38 -90 106 -93 74
-218 184 -309 270 l-40 39 -1 -47z"/>
<path d="M12880 4372 c0 -4 -28 -23 -62 -41 -232 -126 -481 -278 -698 -428
-77 -53 -248 -186 -269 -207 -39 -43 -8 -29 45 19 27 25 74 62 104 83 30 20
73 51 95 68 76 60 356 244 370 244 8 0 15 5 15 10 0 6 5 10 10 10 6 0 29 12
53 27 50 33 60 38 215 126 116 66 159 97 133 97 -6 0 -11 -3 -11 -8z"/>
<path d="M9689 4303 c-49 -51 -70 -78 -309 -413 -246 -345 -311 -449 -522
-850 -141 -267 -317 -516 -625 -887 -51 -61 -93 -114 -93 -117 0 -3 6 -6 14
-6 7 0 36 -24 63 -53 l50 -52 -4 -95 c-2 -52 -7 -120 -13 -150 -11 -65 -23
-264 -36 -585 -4 -93 -6 -177 -5 -185 1 -8 3 -75 5 -148 2 -72 7 -153 11 -180
4 -26 9 -68 10 -93 2 -25 8 -64 14 -86 11 -40 42 -79 54 -66 4 3 7 1 7 -5 0
-6 14 -13 30 -17 17 -4 30 -10 30 -15 0 -5 9 -12 20 -15 11 -3 20 -12 20 -20
0 -18 66 -75 109 -92 20 -8 43 -21 51 -27 8 -7 38 -21 65 -31 28 -10 61 -26
74 -37 17 -13 41 -18 87 -18 70 0 94 15 104 67 4 21 15 29 50 41 84 28 88 30
92 58 2 22 10 29 43 38 36 11 41 16 50 56 6 25 23 78 38 118 29 72 29 72 9 90
-24 20 -46 113 -30 123 7 4 7 9 -1 13 -6 4 -11 13 -11 19 0 7 4 6 10 -3 8 -13
10 -12 10 3 0 11 4 15 12 11 7 -4 8 -3 4 4 -4 6 -14 8 -23 5 -11 -4 -14 -3 -9
5 4 7 2 12 -4 12 -6 0 -8 5 -4 11 4 8 9 7 15 -2 4 -7 11 -11 14 -7 9 9 -17 47
-29 42 -7 -3 -11 24 -11 81 0 47 3 85 8 85 4 0 7 5 7 11 0 5 -3 8 -8 5 -4 -2
-8 47 -10 110 -1 63 2 113 6 110 4 -2 6 37 5 87 -1 51 2 133 7 182 5 50 11
126 15 170 10 129 14 173 30 305 8 69 17 152 20 185 3 33 11 107 19 165 17
121 37 274 41 310 12 95 18 135 30 198 6 32 9 55 20 146 3 27 7 51 9 55 2 3 7
26 10 51 8 56 9 65 36 225 17 96 28 136 44 155 14 16 15 20 3 11 -16 -13 -17
-10 -12 30 3 24 12 72 20 105 8 34 17 75 19 90 13 68 19 89 31 99 18 14 32 80
15 70 -9 -6 -11 -4 -5 5 6 10 11 9 21 -4 11 -16 14 -13 24 25 26 98 49 163 49
139 1 -14 -4 -41 -10 -60 -5 -19 -18 -66 -29 -103 -10 -38 -26 -75 -37 -84
-16 -13 -16 -14 -1 -9 14 4 16 1 8 -18 -5 -13 -6 -27 -3 -30 4 -3 1 -6 -5 -6
-6 0 -11 -8 -10 -17 0 -10 -10 -70 -21 -133 -12 -63 -26 -142 -32 -175 -6 -33
-13 -67 -16 -75 -10 -27 -11 -70 -2 -64 15 9 10 -13 -6 -29 -8 -8 -19 -46 -25
-83 -6 -38 -16 -87 -22 -108 -5 -22 -14 -78 -19 -125 -10 -101 -25 -224 -34
-278 l-6 -38 16 30 15 30 -5 -35 c-3 -19 -10 -36 -15 -38 -6 -2 -10 -21 -10
-42 0 -20 -7 -77 -15 -125 -9 -48 -15 -92 -14 -98 1 -7 0 -19 -3 -27 -3 -8
-11 -51 -17 -95 -26 -194 -33 -295 -29 -382 3 -51 1 -90 -3 -87 -5 3 -9 1 -9
-5 0 -5 14 -9 32 -8 25 2 38 10 55 36 25 37 28 33 13 -18 -12 -45 -41 -213
-37 -217 4 -4 43 177 58 266 26 162 33 184 66 195 46 15 58 30 78 94 13 44 23
61 37 63 26 4 58 94 58 163 0 27 5 79 11 115 29 186 27 302 -6 326 -19 14 -21
96 -2 88 7 -2 13 4 14 16 1 11 -3 20 -8 20 -6 0 -7 -4 -4 -10 3 -5 1 -10 -4
-10 -6 0 -11 9 -11 19 0 11 -4 23 -10 26 -21 13 -9 21 22 17 30 -5 32 -3 19
12 -7 9 -9 16 -4 16 11 0 21 50 29 140 2 30 7 61 9 68 2 6 0 12 -6 12 -6 0 -7
6 -2 13 9 14 10 25 18 130 3 42 9 87 13 100 5 12 10 69 11 127 1 58 7 182 12
275 5 94 9 175 8 180 -3 61 1 166 6 187 5 20 2 32 -14 49 -12 13 -21 28 -21
33 0 6 -3 22 -7 36 -3 14 -2 22 2 18 4 -4 15 6 24 22 9 16 26 43 39 59 33 44
23 38 -29 -16z m-184 -1058 c-4 -99 -8 -182 -10 -184 -2 -1 -9 15 -15 37 -6
24 -18 43 -28 46 -15 5 -18 16 -17 59 2 53 16 155 25 172 1 3 3 9 4 14 2 17
16 24 16 8 0 -9 4 -18 9 -22 6 -3 9 7 7 22 -1 16 -8 27 -14 26 -7 -2 -12 4
-12 12 0 13 3 13 21 3 20 -13 21 -17 14 -193z m96 -25 c5 0 9 -4 9 -10 0 -5
-7 -7 -16 -3 -13 5 -15 2 -9 -15 4 -13 2 -22 -4 -22 -16 0 -13 -26 4 -40 17
-14 20 -46 6 -54 -5 -4 -8 5 -7 18 2 17 -1 23 -11 19 -10 -4 -11 -9 -2 -19 9
-11 8 -14 -2 -15 -8 0 -4 -5 9 -11 12 -6 22 -15 22 -20 0 -17 -52 -87 -68 -91
-11 -3 -9 -5 7 -6 17 -1 21 -5 17 -17 -3 -8 -2 -13 2 -10 17 10 29 -10 25 -40
-4 -27 -8 -30 -35 -29 -39 2 -59 28 -49 63 4 15 9 52 10 82 1 30 4 64 6 75 2
11 4 22 4 25 1 3 6 -2 11 -10 6 -9 10 -10 10 -3 0 6 -4 15 -10 18 -11 7 -14
98 -2 92 11 -7 52 11 52 22 0 6 -8 8 -17 5 -15 -5 -15 -3 2 11 18 14 20 14 23
1 2 -9 8 -16 13 -16z m-128 -414 c11 -8 17 -27 17 -50 l0 -37 26 28 26 28 -6
-45 c-3 -25 -8 -63 -12 -85 -5 -38 -4 -39 10 -21 19 24 19 32 16 -144 -1 -80
-1 -153 -1 -163 0 -9 -5 -15 -11 -11 -5 4 -7 19 -4 35 3 16 1 29 -4 29 -6 0
-11 -12 -11 -27 -1 -19 -3 -22 -6 -10 -3 10 3 57 12 103 9 46 14 90 12 97 -3
6 -6 1 -7 -13 -2 -23 -3 -23 -10 5 l-7 30 -10 -35 c-9 -30 -10 -22 -9 54 1 65
-3 90 -12 93 -8 3 -18 -8 -25 -26 -15 -41 -28 -40 -20 1 6 30 5 31 -9 17 -9
-8 -18 -40 -21 -70 -3 -30 -13 -68 -22 -84 l-17 -30 6 30 c3 17 10 66 15 111
9 79 18 138 27 182 5 25 30 28 57 8z"/>
<path d="M3651 4290 c-1 -14 -4 -36 -8 -49 -4 -18 -3 -22 6 -17 10 6 11 -14 6
-91 -4 -68 -3 -93 4 -83 6 8 11 31 12 50 1 21 3 27 6 14 2 -12 -3 -75 -11
-140 -9 -65 -16 -135 -16 -156 0 -21 -4 -38 -10 -38 -5 0 -7 -7 -3 -16 4 -12
2 -15 -8 -12 -8 3 -16 13 -17 24 -6 32 -21 39 -18 8 2 -16 0 -42 -5 -59 -4
-16 -10 -66 -13 -111 -3 -44 -9 -103 -13 -130 -6 -46 -6 -48 11 -31 22 22 26
21 26 -3 0 -13 -10 -24 -25 -30 -17 -6 -25 -17 -24 -32 l0 -23 11 23 c12 24
31 31 22 7 -4 -8 -1 -15 6 -15 6 0 8 5 5 10 -3 6 -3 10 2 10 4 0 9 11 9 25 1
14 5 36 8 50 6 23 4 24 -19 15 -16 -6 -25 -6 -25 0 0 6 6 10 13 10 15 0 19 32
5 41 -5 3 -2 9 7 12 9 4 13 3 10 -3 -3 -6 -2 -10 4 -10 6 0 8 -7 5 -15 -4 -8
-1 -15 5 -15 6 0 11 10 10 23 0 12 7 69 15 127 8 58 17 134 21 170 3 36 11
120 18 187 11 103 11 123 -1 128 -9 3 -13 18 -11 42 1 21 -1 45 -4 53 -3 8 -8
29 -10 45 -3 26 -4 26 -6 5z"/>
<path d="M7048 4120 c12 -5 22 -11 22 -13 0 -2 -41 -3 -90 -2 -53 2 -108 -2
-133 -10 -48 -15 -149 -66 -143 -72 2 -3 16 3 30 12 20 13 53 18 129 21 117 3
178 -6 203 -30 9 -9 23 -15 31 -12 8 4 11 1 8 -5 -4 -6 -1 -9 7 -7 37 8 191
-104 240 -175 l21 -32 -38 35 -38 35 33 -42 c18 -23 36 -40 41 -38 4 3 11 0
15 -6 4 -8 3 -9 -4 -5 -15 9 -15 1 -1 -25 5 -11 15 -16 21 -13 7 4 8 3 4 -4
-8 -13 28 -88 44 -94 13 -4 50 -130 50 -171 0 -17 -4 -26 -11 -22 -6 4 -8 13
-5 21 3 7 1 16 -4 19 -6 4 -10 18 -10 32 0 21 -3 23 -14 14 -17 -14 -22 -8
-40 53 -7 24 -19 50 -25 58 -7 7 -27 37 -45 66 -58 95 -160 189 -256 235 -57
28 -98 41 -122 40 -21 0 -38 4 -38 8 0 5 -15 7 -34 5 -44 -5 -51 2 -23 25 20
16 20 18 4 19 -10 0 -16 -4 -12 -9 5 -9 -53 -31 -82 -31 -7 0 -13 -4 -13 -9 0
-5 -10 -13 -22 -17 -13 -4 -42 -20 -66 -36 -45 -31 -72 -30 -44 2 18 22 38 28
26 8 -4 -6 3 -4 16 5 21 15 37 47 23 47 -18 0 -114 -84 -109 -95 2 -8 -2 -19
-10 -26 -10 -8 -13 -21 -9 -36 3 -13 1 -23 -5 -23 -5 0 -10 5 -10 11 0 7 -11
0 -25 -15 -20 -22 -22 -30 -13 -40 18 -19 41 -2 62 46 11 27 21 38 31 34 9 -3
12 0 9 8 -5 14 92 85 146 106 19 7 39 17 45 22 15 13 25 9 18 -8 -3 -8 -16
-20 -29 -25 -13 -4 -24 -14 -24 -21 0 -9 3 -8 10 2 8 12 12 12 18 2 6 -9 12
-6 20 13 10 21 18 25 57 25 32 0 45 -4 45 -14 0 -8 -8 -13 -17 -12 -12 0 -19
-7 -21 -21 -2 -13 1 -23 7 -23 6 0 10 5 9 11 -2 6 2 13 8 16 7 2 11 -4 10 -14
-1 -13 5 -17 19 -15 15 2 17 1 6 -7 -15 -9 -24 -71 -11 -71 4 0 11 12 14 26 4
15 9 24 12 21 3 -3 0 -24 -7 -46 -7 -23 -15 -37 -19 -31 -5 8 -9 6 -13 -4 -9
-23 -30 -20 -24 4 3 11 1 20 -4 20 -5 0 -9 5 -9 10 0 6 6 10 14 10 21 0 26 26
10 47 -15 17 -15 17 -11 -2 2 -11 -3 -27 -10 -34 -10 -9 -13 -24 -9 -43 4 -20
2 -27 -5 -22 -8 4 -9 -1 -4 -15 4 -13 1 -28 -5 -36 -10 -12 -10 -15 0 -15 9 0
9 -4 -1 -17 -12 -16 -12 -17 2 -6 9 7 20 9 25 5 4 -4 3 0 -3 9 -8 10 -9 25 -4
45 5 16 10 24 10 17 1 -6 10 -9 21 -6 23 6 24 1 11 -45 -6 -20 -6 -32 0 -32 5
0 9 7 9 16 0 9 9 47 19 83 27 94 33 133 20 125 -7 -4 -9 1 -4 15 4 12 2 21 -4
21 -6 0 -11 -7 -11 -15 0 -8 -5 -15 -11 -15 -6 0 -9 10 -7 22 4 28 54 33 52 5
-1 -9 2 -14 7 -11 14 8 0 -66 -38 -206 -18 -69 -39 -153 -46 -187 -12 -63 -33
-91 -23 -30 9 54 24 121 31 140 4 10 3 17 -4 17 -6 0 -11 -8 -12 -17 0 -14 -3
-13 -11 5 -6 12 -16 21 -22 19 -19 -7 -48 13 -38 26 16 22 20 44 10 58 -8 11
-9 10 -4 -3 3 -10 2 -18 -3 -18 -5 0 -11 -14 -15 -31 -5 -24 -9 -29 -19 -21
-10 8 -16 6 -26 -9 -7 -12 -10 -24 -6 -27 3 -4 9 -1 13 5 4 6 19 9 35 6 21 -4
25 -8 15 -14 -7 -5 -21 -6 -30 -3 -10 3 -18 1 -18 -5 0 -7 -8 -7 -26 -1 -35
14 -39 13 -24 -5 7 -9 10 -18 6 -22 -3 -3 -6 -2 -6 4 0 11 -29 11 -48 -1 -21
-13 4 -45 29 -39 14 4 20 2 16 -4 -8 -12 17 -36 26 -26 15 15 6 -12 -10 -31
-10 -11 -1 -7 19 10 31 24 45 29 74 26 37 -5 37 -5 13 -18 -13 -7 -37 -13 -52
-14 -22 0 -31 -7 -41 -32 -24 -59 -29 -81 -16 -73 7 4 11 1 9 -6 -4 -31 2 -49
16 -49 18 0 19 -5 4 -32 -8 -15 -8 -19 1 -13 7 4 24 -5 41 -21 22 -21 41 -28
82 -32 34 -3 57 0 61 7 12 19 25 12 29 -16 l4 -28 2 28 1 28 23 -21 c12 -12
50 -40 84 -62 34 -22 60 -45 59 -51 -2 -7 -1 -9 1 -4 7 12 18 8 43 -13 18 -15
25 -17 31 -8 5 8 11 5 17 -13 13 -33 31 -45 65 -44 15 0 27 0 27 -1 0 -3 -40
-50 -63 -76 -24 -26 -13 -37 13 -13 11 10 20 14 20 9 0 -5 -24 -24 -52 -42
-29 -17 -45 -32 -36 -32 21 0 104 64 101 77 -1 6 9 21 22 33 14 13 25 19 25
14 1 -16 39 99 55 164 8 35 14 84 13 110 l-1 47 -7 -45 -7 -45 -1 61 c-1 33
-6 64 -11 70 -8 9 -41 122 -41 140 1 15 29 -39 30 -56 0 -9 13 -40 28 -70 24
-47 28 -64 25 -115 -5 -67 -29 -173 -45 -192 -6 -7 -7 -20 -4 -29 5 -14 9 -14
23 -3 14 12 13 8 -3 -20 -22 -38 -42 -50 -54 -31 -6 9 -11 7 -19 -9 -9 -17 -9
-21 1 -19 7 2 13 -4 13 -12 0 -8 -29 -34 -63 -57 -35 -24 -58 -43 -52 -43 16
0 111 48 131 66 18 16 33 19 24 4 -30 -49 -255 -128 -255 -90 0 5 8 9 18 8 55
-4 77 12 47 34 -13 10 -27 10 -22 1 6 -9 -90 -9 -113 0 -8 3 -28 5 -45 4 -16
-2 -36 2 -42 7 -9 5 -13 4 -13 -4 0 -9 -3 -10 -13 -1 -8 6 -17 8 -21 4 -3 -4
-19 9 -35 28 -25 28 -30 31 -36 17 -6 -15 -10 -15 -43 4 -57 32 -65 40 -50 50
9 6 7 8 -7 5 -12 -2 -38 11 -65 32 -37 28 -41 30 -20 7 38 -42 123 -104 179
-132 43 -20 49 -27 39 -38 -15 -16 -29 -11 -100 40 -57 41 -61 36 -12 -14 20
-20 43 -50 52 -67 18 -35 30 -46 100 -86 49 -29 51 -32 35 -46 -17 -13 -17
-14 4 -8 12 3 30 8 41 10 10 2 52 21 93 43 41 22 101 47 133 57 135 38 316
159 316 210 0 9 4 14 9 11 11 -7 23 22 15 35 -3 5 -1 9 4 9 11 0 37 58 29 66
-3 3 -8 -5 -13 -18 -11 -37 -78 -121 -136 -172 -94 -83 -251 -143 -348 -132
-19 3 -63 7 -98 11 -97 9 -128 25 -101 52 9 9 19 8 40 -3 16 -8 29 -12 29 -9
0 4 7 -1 16 -10 12 -11 31 -16 63 -14 25 1 54 -2 64 -6 29 -12 112 2 169 29
182 86 319 309 335 545 5 79 4 93 -8 89 -11 -4 -13 4 -11 42 4 46 -3 68 -51
156 -25 47 -55 87 -109 146 -21 22 -38 45 -38 50 0 5 -5 8 -12 6 -7 -3 -27 12
-46 31 -22 23 -30 28 -23 14 6 -12 15 -24 20 -27 15 -10 117 -169 152 -237 59
-118 87 -229 57 -229 -6 0 -9 3 -5 6 3 3 -4 16 -15 28 -11 11 -36 53 -54 91
-60 126 -109 212 -153 269 -24 31 -46 56 -50 56 -3 0 -26 19 -51 41 -25 23
-67 55 -94 72 -27 17 -44 33 -37 35 7 2 20 -3 30 -12 10 -9 24 -16 32 -15 8 0
3 5 -11 10 -15 6 -20 13 -13 17 8 5 7 10 -2 19 -11 10 -15 10 -18 0 -3 -7 -6
-4 -6 6 -1 11 -5 15 -13 11 -8 -5 -9 -2 -5 9 4 12 1 17 -11 18 -9 0 -33 2 -52
4 -29 3 -31 2 -12 -5z m58 -227 c0 -10 -7 -24 -13 -31 -7 -7 -13 -29 -13 -48
0 -31 2 -34 15 -21 8 8 17 30 20 48 10 59 25 64 73 23 23 -19 40 -39 37 -44
-3 -5 0 -12 6 -16 8 -4 9 -3 5 4 -4 7 -2 12 3 12 6 0 11 -4 11 -9 0 -6 18 -31
41 -57 50 -58 73 -93 66 -100 -3 -3 -17 15 -32 40 -29 50 -40 58 -32 24 3 -13
-2 -41 -13 -63 -14 -31 -19 -35 -19 -18 -1 12 -6 25 -13 29 -7 4 -8 3 -4 -4 4
-7 3 -12 -3 -12 -5 0 -13 5 -16 10 -4 6 -11 8 -16 5 -5 -4 -9 0 -9 8 0 28 -25
26 -26 -2 -1 -14 -3 -32 -5 -40 -2 -7 1 -15 8 -18 6 -2 13 4 16 14 4 14 5 13
6 -4 1 -18 -4 -23 -24 -23 -25 0 -25 1 -19 68 4 37 11 70 16 73 6 4 5 9 -3 12
-11 3 -9 9 6 21 11 8 16 15 10 15 -19 0 -40 -24 -42 -49 -5 -52 -7 -65 -14
-70 -11 -9 -22 -53 -11 -46 6 3 13 2 17 -4 3 -5 -3 -10 -14 -10 -11 0 -25 -8
-30 -17 -9 -15 -10 -16 -11 -2 0 9 3 19 7 23 4 3 8 13 9 20 1 7 5 24 8 37 l7
24 -17 -22 c-9 -13 -20 -23 -24 -23 -5 0 -6 10 -4 23 2 12 1 15 -2 7 -4 -8
-13 -19 -20 -23 -8 -4 -14 -16 -14 -25 -1 -16 -1 -16 -11 1 -6 9 -15 15 -20
12 -5 -4 -6 -12 -3 -18 4 -7 4 -9 -1 -5 -4 4 -17 3 -27 -3 -16 -9 -19 -8 -15
3 2 7 10 12 16 11 15 -4 14 14 0 19 -9 3 -9 17 1 56 10 42 16 52 33 52 32 1
57 23 61 56 8 61 47 130 42 77z m155 -442 c-7 -5 -11 -32 -9 -77 1 -38 -2 -80
-6 -94 -6 -22 -5 -22 10 4 11 20 15 43 12 71 -3 26 0 49 8 60 9 13 14 14 14 5
0 -9 8 -6 24 9 l24 23 7 -22 c4 -12 4 -36 1 -54 -8 -40 18 -102 27 -67 3 11 2
19 -2 18 -11 -4 -12 7 -6 48 7 43 5 62 -7 58 -12 -4 -10 15 2 22 6 3 10 1 10
-5 0 -6 5 -8 11 -5 7 5 9 -7 6 -36 -2 -24 -2 -36 0 -26 11 42 20 10 21 -70 1
-113 -31 -226 -66 -231 -13 -2 -22 2 -22 9 0 8 -6 5 -13 -5 -13 -17 -14 -16
-26 12 -15 36 -41 62 -41 42 0 -10 -4 -10 -17 1 -10 8 -34 23 -53 33 -19 11
-61 38 -92 60 -45 32 -57 47 -58 68 0 15 5 30 11 34 8 5 10 -3 7 -25 -3 -19 1
-36 9 -42 10 -9 13 -1 13 44 0 31 5 59 10 62 6 4 10 -14 10 -47 0 -39 3 -49
10 -38 6 8 10 35 9 60 -3 55 10 120 23 120 10 0 6 -26 -9 -67 -6 -17 -5 -17
15 1 12 11 22 30 22 43 0 12 5 23 11 23 11 0 8 -24 -8 -67 -6 -17 -5 -17 15 1
12 11 22 27 22 38 0 10 4 18 9 18 16 0 19 -64 5 -110 -17 -56 -17 -55 0 -41 8
7 17 40 21 74 4 34 12 68 17 75 7 8 7 12 -1 12 -7 0 -9 5 -6 10 4 6 12 4 22
-6 12 -12 13 -18 4 -23z"/>
<path d="M1035 4019 c-12 -6 -26 -19 -33 -29 -11 -18 -10 -18 16 -3 38 22 70
12 116 -34 94 -93 95 -207 3 -274 -39 -29 -80 -42 -43 -14 18 14 14 35 -7 35
-7 0 -6 -4 3 -10 13 -8 12 -10 -2 -10 -10 0 -18 -4 -18 -10 0 -5 -7 -7 -15 -4
-27 11 -15 -11 16 -28 42 -24 90 -23 118 3 141 131 7 456 -154 378z"/>
<path d="M190 3810 c-8 -5 -24 -7 -35 -4 -11 4 -17 3 -13 -1 4 -4 0 -15 -9
-23 -11 -11 -12 -17 -4 -20 15 -5 -5 -32 -25 -32 -7 0 -16 -5 -20 -12 -4 -7
-3 -8 4 -4 7 4 12 1 12 -6 0 -14 37 -18 55 -6 6 4 12 -3 12 -15 2 -17 0 -19
-7 -7 -8 13 -10 12 -10 -4 0 -12 -5 -16 -15 -12 -9 3 -15 0 -15 -9 0 -27 20
-26 44 2 24 27 25 28 39 8 21 -28 4 -60 -33 -61 -18 -1 -27 3 -23 9 3 6 2 7
-4 4 -10 -7 -11 -42 -1 -53 4 -3 4 -12 2 -19 -3 -7 9 -23 25 -35 30 -20 42
-50 21 -50 -5 0 -10 8 -10 18 0 9 -11 22 -25 28 -21 10 -25 9 -30 -7 -4 -10
-11 -19 -16 -19 -5 0 -9 -17 -9 -37 0 -28 -3 -34 -10 -23 -8 12 -10 11 -10 -7
0 -13 3 -23 8 -23 4 0 8 -15 9 -33 1 -17 5 -48 8 -67 6 -32 8 -33 20 -16 8 10
19 15 25 11 8 -5 8 -12 -2 -23 -8 -10 -21 -34 -31 -55 -15 -34 -15 -38 -1 -44
8 -3 13 -12 10 -19 -3 -8 -1 -14 5 -14 5 0 15 -14 21 -30 6 -19 24 -38 47 -49
20 -11 46 -29 58 -40 23 -22 58 -27 81 -12 10 6 8 10 -10 15 -13 4 -18 9 -11
12 7 3 29 0 48 -6 28 -9 39 -9 56 3 22 16 20 19 -31 45 -23 11 -23 12 -2 8 12
-2 22 0 22 4 0 14 -23 25 -46 22 -12 -2 -24 4 -27 12 -4 9 -2 16 3 16 6 0 10
-3 10 -7 0 -5 18 -9 40 -9 22 -1 37 2 34 7 -3 5 -9 7 -14 4 -5 -3 -11 -1 -15
5 -8 12 19 13 43 1 51 -26 71 -33 80 -27 15 9 42 -4 42 -20 0 -12 4 -12 21 -4
11 7 23 9 27 6 3 -3 -1 -6 -9 -6 -8 0 -1 -7 15 -15 15 -8 36 -15 45 -15 9 0
26 -7 37 -15 12 -8 25 -11 29 -7 5 4 6 0 3 -9 -5 -12 -1 -15 18 -11 13 2 24 0
24 -6 0 -6 -7 -12 -16 -14 -13 -2 -12 -6 5 -23 43 -43 47 -44 67 -27 17 16 17
16 3 -2 -9 -12 -10 -21 -4 -23 34 -11 80 -43 77 -53 -2 -7 4 -20 13 -30 8 -9
13 -19 10 -22 -7 -7 73 -38 211 -81 85 -27 122 -34 154 -30 38 5 41 7 25 19
-17 12 -16 14 9 25 20 10 31 10 49 0 13 -7 27 -11 33 -10 21 4 33 -2 36 -18 2
-12 14 -18 37 -19 18 -1 37 -8 42 -15 5 -8 9 -10 9 -5 0 5 6 3 14 -3 8 -6 28
-13 45 -14 17 -1 31 -5 31 -9 0 -10 84 -2 105 9 23 13 63 5 43 -9 -10 -8 -10
-11 0 -15 17 -7 5 -23 -13 -16 -33 12 -12 -19 38 -55 44 -33 135 -78 145 -72
8 6 61 -24 56 -31 -3 -5 -1 -9 4 -9 21 0 54 -165 107 -530 3 -25 11 -52 18
-61 12 -16 335 -149 361 -149 8 0 19 6 26 14 15 19 40 10 40 -14 0 -10 6 -22
13 -27 12 -9 213 -78 272 -94 55 -14 349 -117 400 -140 28 -12 56 -29 63 -38
8 -9 11 -10 7 -3 -3 6 -1 12 6 12 28 0 353 -103 416 -131 24 -10 47 -19 52
-19 22 0 60 -24 54 -33 -4 -6 -1 -7 6 -3 7 5 20 1 30 -8 23 -21 209 -91 218
-82 2 2 -10 8 -26 14 -17 6 -31 13 -31 16 0 6 51 -9 223 -68 76 -27 141 -45
144 -42 8 8 5 82 -11 281 -28 327 -30 375 -12 375 9 0 16 -7 16 -16 0 -14 2
-14 16 -3 14 12 14 14 -3 27 -16 12 -15 13 12 7 17 -4 61 -15 99 -26 37 -11
80 -22 95 -24 14 -2 42 -9 61 -16 19 -7 42 -14 50 -17 93 -32 167 -49 175 -41
5 5 -1 9 -17 9 -15 0 -30 5 -33 10 -3 5 -17 10 -31 10 -14 0 -35 7 -47 15 -20
13 -42 19 -82 25 -5 1 1 6 14 11 17 6 28 6 39 -3 13 -11 14 -10 3 10 -18 33 8
29 43 -7 16 -16 35 -27 42 -24 8 3 21 0 28 -6 8 -7 16 -8 18 -3 1 5 13 12 25
16 19 6 22 4 16 -11 -6 -15 -4 -16 9 -5 11 9 18 10 23 2 3 -5 14 -10 23 -10
22 0 47 -37 29 -43 -7 -2 5 -8 25 -12 21 -4 43 -13 49 -21 7 -9 20 -12 32 -8
12 4 17 2 13 -4 -4 -6 1 -10 11 -10 29 3 116 -34 102 -43 -8 -4 5 -12 32 -19
24 -7 71 -20 104 -30 33 -10 94 -28 135 -40 41 -12 84 -25 95 -30 11 -5 29
-11 40 -14 44 -10 233 -69 285 -88 30 -11 62 -21 70 -23 16 -2 39 -10 79 -26
13 -5 26 -8 28 -5 3 2 29 -7 59 -20 38 -17 73 -24 115 -24 46 0 75 -7 124 -30
35 -17 90 -36 122 -44 32 -8 90 -24 128 -36 39 -12 84 -25 100 -27 17 -3 45
-11 64 -19 18 -8 37 -11 42 -8 5 3 15 2 22 -3 6 -4 17 -9 22 -10 14 -4 167
-54 185 -60 29 -11 77 -20 117 -22 7 -1 24 -12 39 -26 15 -14 44 -30 65 -35
22 -6 39 -14 39 -19 0 -4 24 -13 53 -20 50 -11 56 -10 98 13 24 13 62 29 85
35 75 20 73 14 79 329 2 155 2 282 -1 282 -3 0 -19 -7 -37 -15 -32 -15 -32
-15 -7 2 40 28 70 61 70 75 0 10 -2 10 -9 -1 -6 -9 -22 -12 -52 -8 -45 4 -145
-10 -135 -21 3 -3 24 -5 46 -4 22 1 40 -3 40 -8 0 -9 -63 -14 -135 -11 -23 2
-27 0 -15 -8 12 -9 11 -11 -8 -11 -13 0 -21 4 -18 9 3 4 -8 7 -24 5 -21 -3
-32 2 -40 16 -8 15 -6 19 13 22 12 2 22 10 22 18 0 8 4 21 8 28 10 15 7 15
-34 -3 -32 -13 -32 -14 -9 -15 23 -1 23 -2 5 -10 -11 -5 -33 -11 -48 -15 -18
-3 -25 -10 -21 -18 4 -7 3 -8 -1 -4 -15 13 -14 37 0 37 8 0 18 6 22 14 14 23
83 50 96 37 13 -13 27 -14 27 -2 0 8 -28 21 -55 25 -5 1 -16 -4 -23 -11 -7 -7
-20 -13 -27 -13 -8 0 -16 -8 -19 -18 -3 -10 -15 -18 -25 -18 -16 0 -18 6 -14
36 3 19 10 40 15 45 6 6 7 -1 2 -19 -4 -19 -3 -27 3 -23 6 4 13 20 16 36 4 16
12 31 19 34 7 2 2 2 -12 0 -33 -5 -62 -40 -54 -66 4 -14 2 -18 -7 -15 -18 7
-13 47 8 71 15 16 15 19 3 27 -8 6 -18 10 -21 10 -4 0 -9 10 -13 22 -4 17 2
30 19 46 14 12 25 32 25 43 0 21 0 21 -32 2 -18 -11 -32 -27 -32 -36 1 -8 -7
-18 -17 -20 -11 -3 -19 -1 -19 3 0 5 -14 32 -32 60 -36 58 -88 91 -128 81 -23
-6 -22 -8 24 -34 53 -30 71 -34 61 -14 -4 6 5 -1 19 -18 27 -31 34 -55 15 -55
-6 0 -8 -9 -4 -20 10 -32 1 -24 -38 33 -40 58 -57 71 -105 82 -25 5 -32 3 -32
-9 0 -9 -4 -16 -10 -16 -5 0 -10 5 -10 12 0 6 -8 4 -20 -7 -45 -40 -49 -134
-9 -203 24 -42 24 -43 -6 -38 -14 3 -25 0 -25 -5 0 -5 6 -9 14 -9 8 0 56 -14
106 -30 51 -17 96 -28 100 -25 5 3 12 0 15 -6 4 -6 18 -8 31 -5 13 4 24 2 24
-3 0 -5 13 -9 29 -9 16 1 44 -6 63 -15 59 -27 197 -50 271 -44 l68 6 -2 -44
c-2 -24 0 -47 3 -50 3 -4 4 -23 2 -43 -2 -20 -6 -67 -10 -105 -3 -37 -10 -67
-16 -67 -7 0 -8 28 -3 88 4 48 7 95 6 105 0 9 -1 35 -2 57 l-2 40 -81 1 c-109
2 -120 3 -261 39 -68 17 -130 27 -139 24 -9 -3 -16 -2 -16 4 0 9 -95 37 -248
75 -29 7 -49 17 -45 21 5 5 -4 7 -19 4 -15 -3 -25 -2 -23 2 5 8 -41 20 -87 23
-14 1 -24 5 -22 8 2 4 -6 9 -19 12 -21 4 -232 62 -269 73 -14 4 -16 1 -12 -13
5 -15 2 -14 -13 4 -13 15 -61 33 -168 63 -82 23 -276 78 -430 122 -489 139
-519 147 -576 152 -31 2 -85 16 -120 29 -35 14 -118 40 -184 57 -109 29 -160
43 -310 84 -27 8 -95 26 -150 41 -55 15 -129 36 -165 46 -161 46 -215 59 -233
53 -11 -4 -17 -2 -14 3 8 13 -66 38 -87 30 -8 -3 -16 -1 -18 4 -2 6 -47 21
-101 34 -53 13 -141 38 -195 54 -53 17 -142 42 -197 56 -55 15 -118 33 -140
41 -86 29 -297 84 -305 79 -5 -3 -11 -1 -15 4 -7 13 -172 63 -205 63 -14 0
-31 5 -37 10 -7 6 -13 7 -13 2 0 -5 -4 -4 -8 2 -8 14 -182 68 -190 60 -3 -3 0
-6 6 -6 7 0 12 -4 12 -9 0 -10 -64 2 -83 16 -7 5 -21 10 -32 10 -11 1 -65 16
-120 34 -55 18 -111 33 -125 34 -23 2 -134 35 -187 56 -15 5 -23 5 -23 -1 0
-6 -5 -10 -11 -10 -6 0 -9 5 -7 12 5 13 -75 45 -197 80 -38 11 -83 26 -100 34
-16 7 -70 25 -120 40 -49 15 -103 33 -119 41 -48 25 -124 41 -136 29 -7 -7
-14 -4 -24 10 -14 18 -15 18 -9 -4 3 -14 12 -22 23 -20 9 2 25 -4 36 -12 18
-14 18 -14 5 3 -12 15 -11 17 3 17 9 0 16 -5 16 -11 0 -5 4 -8 9 -5 5 4 22 1
38 -5 15 -6 29 -9 29 -7 1 2 11 -5 22 -15 11 -10 37 -20 57 -21 20 -2 41 -8
47 -14 6 -6 17 -8 24 -5 8 3 14 0 14 -7 0 -6 4 -9 9 -5 6 3 13 0 18 -7 4 -7
21 -13 38 -13 22 0 30 -5 33 -20 2 -18 2 -18 -8 -2 -6 9 -18 17 -26 17 -12 0
-13 -4 -3 -22 11 -21 11 -20 -22 2 -22 16 -34 20 -37 12 -5 -16 -33 -16 -29 0
1 6 -6 14 -17 16 -11 2 -16 0 -12 -7 4 -6 3 -11 -3 -11 -5 0 -11 7 -13 16 -2
9 -19 22 -38 30 l-35 14 25 -21 25 -22 -25 9 c-14 5 -48 8 -76 6 -38 -2 -75 6
-135 29 -46 16 -91 30 -99 31 -17 0 -157 46 -182 59 -11 6 -18 6 -18 1 0 -5
35 -21 78 -36 150 -52 302 -109 302 -113 0 -2 -10 -1 -22 3 -13 4 -31 7 -40 6
-10 0 -18 4 -18 9 0 6 -4 7 -10 4 -5 -3 -10 0 -10 7 0 10 -3 9 -11 -2 -8 -11
-12 -12 -16 -2 -2 6 -8 10 -13 7 -4 -3 -25 2 -46 10 -32 13 -34 14 -9 10 23
-4 26 -3 15 5 -8 6 -32 8 -52 4 -30 -4 -39 -2 -44 10 -4 11 -13 14 -24 11 -10
-3 -21 -1 -25 4 -3 7 0 8 9 5 9 -3 16 -4 16 -2 0 3 -33 17 -72 33 -40 15 -91
36 -114 46 -52 25 -67 24 -59 -1 4 -11 2 -20 -4 -20 -6 0 -11 4 -11 8 0 11
-71 36 -94 33 -11 -2 -16 2 -12 8 4 6 1 11 -6 11 -15 1 -97 39 -84 40 20 0
131 -33 155 -47 l26 -15 -23 20 c-12 12 -55 31 -95 43 -89 26 -160 58 -133 59
11 0 28 -8 38 -17 15 -14 21 -14 27 -4 6 10 11 9 24 -3 8 -9 22 -16 29 -16 7
0 0 12 -15 25 -15 14 -24 25 -19 25 23 0 3 43 -25 55 -16 7 -33 20 -36 29 -4
9 -10 15 -14 14 -4 -1 -18 3 -30 10 -12 7 -37 11 -55 10 -26 -2 -32 0 -30 14
2 12 -9 20 -38 29 -22 7 -40 16 -40 21 0 4 -8 8 -17 8 -17 1 -53 22 -53 31 0
6 54 5 60 -1 3 -3 28 -14 56 -26 l51 -21 -15 31 c-9 17 -23 37 -31 44 -14 12
-14 13 1 8 9 -3 19 2 22 10 9 22 8 24 -9 18 -12 -5 -15 2 -13 33 0 22 -6 54
-14 71 -15 28 -15 31 1 35 13 4 12 5 -3 6 -11 0 -27 8 -35 15 -11 10 -21 12
-31 6z m3527 -1680 c18 -7 31 -16 28 -20 -3 -5 0 -12 6 -16 7 -4 9 -3 6 2 -3
6 9 11 29 11 19 1 37 -3 40 -8 3 -5 17 -9 32 -9 15 0 54 -9 85 -20 32 -11 61
-19 65 -16 12 7 115 -23 124 -36 5 -10 8 -10 8 -1 0 6 9 11 19 10 11 0 17 -6
14 -14 -3 -7 0 -13 6 -13 6 0 11 5 11 10 0 6 5 10 11 10 5 0 8 -4 5 -9 -3 -5
17 -13 45 -18 41 -9 49 -8 45 3 -3 8 -1 14 4 14 6 0 10 -3 11 -7 0 -5 2 -19 5
-32 4 -23 4 -23 -21 -7 -13 9 -29 16 -34 16 -17 0 0 -38 20 -43 10 -3 17 -2
14 3 -2 4 11 7 29 6 19 0 32 -4 30 -8 -2 -4 5 -13 16 -21 11 -7 17 -17 13 -21
-4 -3 2 -13 13 -21 10 -8 15 -15 9 -15 -15 -1 75 -40 94 -41 9 0 3 -5 -13 -11
-19 -7 -30 -7 -35 0 -3 5 -17 9 -31 8 -14 -1 -40 4 -58 11 -110 44 -133 52
-127 43 3 -5 2 -10 -4 -10 -5 0 -11 4 -13 9 -5 12 -48 24 -48 13 0 -9 38 -24
70 -27 42 -5 45 -6 25 -14 -19 -8 -40 -4 -90 14 l-20 8 20 -16 c20 -16 20 -16
-3 -10 -12 3 -28 15 -34 26 -8 16 -7 23 8 35 12 9 13 13 4 9 -8 -2 -23 0 -34
5 -12 7 -16 7 -12 0 3 -6 0 -13 -6 -15 -8 -3 -6 -6 5 -6 9 -1 17 -3 17 -5 0
-2 3 -11 6 -19 4 -11 -1 -13 -20 -10 -14 3 -26 9 -26 14 0 5 -8 9 -17 9 -10 1
-29 8 -43 16 -25 15 -24 15 18 11 23 -3 42 -1 42 5 0 5 -4 6 -10 3 -5 -3 -10
-1 -10 4 0 6 -16 11 -35 11 -19 0 -35 5 -35 10 0 12 -26 14 -33 3 -2 -5 -2 -2
-1 5 4 14 -22 16 -31 2 -3 -5 -11 -10 -16 -10 -6 0 -8 4 -5 9 4 5 -8 13 -26
17 -32 8 -32 8 17 15 31 3 67 1 93 -7 41 -12 44 -11 39 6 -4 16 0 18 32 14
l36 -4 -35 11 c-19 5 -48 15 -65 21 -16 6 -46 13 -65 15 -19 3 -40 9 -46 14
-6 5 -36 11 -67 14 -31 3 -69 10 -83 15 -32 13 -56 12 -29 -1 15 -7 12 -8 -15
-4 -19 3 -42 13 -50 24 -9 10 -33 24 -53 30 -20 7 -37 17 -37 23 0 6 -7 8 -15
4 -10 -3 -15 1 -15 13 0 17 4 17 83 -5 45 -12 97 -28 114 -34z m-810 -21 c29
-10 33 -18 79 -169 27 -88 52 -156 56 -152 4 4 10 62 14 129 4 67 10 126 13
132 5 7 18 7 44 -1 30 -9 36 -15 32 -32 -3 -12 -9 -64 -14 -116 -19 -195 -35
-309 -42 -305 -4 3 -5 22 -2 42 3 28 1 34 -6 23 -12 -17 -16 -14 -26 18 -6 22
-5 23 17 11 23 -12 23 -12 4 10 -12 13 -14 21 -7 21 8 0 7 5 -3 16 -9 8 -16
20 -16 25 0 6 -7 9 -16 7 -11 -2 -18 5 -21 21 -2 14 -8 30 -14 38 -6 7 -8 13
-3 13 5 0 -4 9 -21 21 -24 16 -26 19 -7 14 13 -4 22 -2 22 5 0 6 -4 9 -9 5 -5
-3 -12 -1 -16 5 -4 6 -10 8 -15 5 -4 -3 -22 37 -39 87 -31 92 -38 125 -23 101
5 -8 13 -9 22 -3 11 7 8 10 -13 15 -15 4 -27 11 -27 16 0 11 1 11 37 -2z m569
-185 c64 -18 108 -52 133 -103 22 -44 35 -135 22 -159 -7 -12 -4 -34 9 -72 36
-104 19 -180 -40 -180 -42 0 -131 36 -163 65 -54 50 -88 156 -67 209 7 20 5
35 -10 64 -32 61 -27 161 8 182 24 13 46 12 108 -6z m266 -116 c8 -39 35 -272
43 -373 4 -39 8 -76 10 -82 7 -20 -33 -15 -55 7 -11 11 -20 24 -20 29 0 5 -11
110 -25 233 -14 123 -25 228 -25 235 0 9 8 9 32 -2 25 -10 34 -21 40 -47z
m227 -48 c85 -28 103 -38 130 -72 45 -56 65 -153 40 -199 -8 -16 -6 -29 7 -57
21 -45 33 -138 15 -128 -6 4 -11 14 -11 22 0 8 -4 13 -9 9 -18 -10 -24 18 -7
31 13 9 15 17 8 31 -6 10 -10 22 -11 26 0 4 -7 15 -16 23 -13 14 -15 14 -15 0
0 -22 -16 -28 -31 -10 -7 8 -8 14 -3 12 16 -5 66 40 58 53 -4 8 -3 9 4 5 8 -5
12 0 12 13 0 24 -10 27 -28 9 -9 -9 -12 -9 -12 0 0 7 5 12 10 12 15 0 12 30
-6 47 -8 9 -13 22 -10 30 4 9 1 13 -6 10 -7 -2 -24 6 -38 18 -35 32 -111 49
-126 30 -10 -13 -16 -13 -48 0 -32 14 -36 18 -30 43 6 27 38 62 55 62 5 0 36
-9 68 -20z m-44 -346 c14 -3 26 -16 29 -30 4 -13 12 -24 19 -24 8 0 7 -4 -3
-11 -13 -9 -12 -10 3 -5 19 6 49 -3 43 -13 -2 -3 13 -6 35 -5 38 1 52 -9 27
-19 -7 -3 -3 -4 10 -4 19 1 22 5 17 26 -6 24 -5 24 28 -9 33 -32 34 -35 20
-56 -20 -31 -46 -38 -89 -24 -30 10 -35 16 -31 36 2 14 0 27 -6 31 -6 3 -7 1
-3 -5 4 -7 1 -12 -8 -12 -9 0 -16 -4 -16 -10 0 -5 5 -10 12 -10 6 0 9 -2 6 -5
-10 -11 -59 15 -52 27 4 6 3 8 -3 5 -23 -15 -66 39 -88 112 -6 20 -4 23 10 17
9 -3 27 -9 40 -12z"/>
<path d="M3422 1838 c-29 -29 2 -90 58 -112 76 -30 97 -20 80 42 -8 31 -17 42
-47 55 -59 25 -78 28 -91 15z"/>
<path d="M3628 3211 l4 -59 26 14 c17 9 42 12 67 9 31 -4 35 -3 20 5 -19 10
77 8 345 -5 52 -3 158 -7 235 -10 77 -3 210 -8 296 -11 276 -11 454 -11 473
-1 13 6 16 6 12 -2 -8 -12 20 -11 39 1 6 4 17 3 24 -1 7 -5 23 -6 35 -4 15 3
17 2 8 -5 -10 -7 -3 -11 23 -15 20 -3 43 -11 51 -18 16 -13 19 -50 5 -64 -5
-6 -5 -18 0 -30 9 -19 9 -19 5 2 -2 12 0 23 4 25 4 2 10 23 13 48 6 41 4 47
-20 64 -14 11 -23 14 -19 8 9 -15 3 -15 -59 4 l-50 14 47 -4 c26 -2 45 0 43 4
-3 5 6 12 20 17 15 5 -54 9 -178 10 -296 2 -639 12 -1012 28 -306 14 -367 18
-435 31 -25 4 -25 4 -22 -55z"/>
<path d="M3615 3038 c-5 -34 -8 -76 -9 -93 0 -16 -6 -36 -13 -43 -7 -7 -13
-24 -13 -37 0 -13 -4 -27 -10 -30 -5 -3 -10 -16 -10 -28 0 -12 -7 -30 -15 -41
-12 -16 -22 -18 -67 -12 -37 4 -48 3 -38 -4 8 -5 60 -9 115 -8 55 1 82 3 60 5
-61 6 -70 10 -54 29 9 11 25 15 50 12 21 -2 35 0 33 4 -9 14 6 45 21 45 8 0
15 -4 15 -9 0 -4 5 -8 11 -8 5 0 7 4 4 10 -4 6 6 7 26 3 19 -4 30 -2 26 3 -3
6 4 11 16 11 18 2 19 0 7 -8 -11 -8 -7 -9 15 -3 42 10 23 10 410 1 193 -4 465
-10 605 -12 410 -9 417 -10 422 -110 3 -48 2 -50 -25 -53 -26 -3 -26 -4 18
-28 49 -26 65 -30 49 -14 -7 7 -8 34 -3 73 4 34 10 89 13 122 l7 61 -63 -6
c-133 -13 -1530 19 -1547 36 -12 12 19 16 126 16 l118 1 -100 7 c-55 5 -108 6
-117 3 -24 -6 -23 25 1 56 l19 24 6 -21 c6 -17 13 -21 32 -16 14 4 24 2 24 -5
0 -16 49 -13 66 4 14 13 12 15 -13 15 -22 0 -25 -2 -13 -11 12 -8 10 -9 -10
-7 -14 2 -24 9 -23 15 2 7 -8 9 -27 6 -17 -2 -30 0 -30 6 0 6 17 12 38 12 72
2 87 4 100 12 6 5 12 5 12 0 0 -4 13 -8 29 -8 16 0 27 3 24 7 -2 5 7 4 21 -2
14 -5 73 -10 131 -11 58 -2 105 -6 105 -11 0 -4 16 -8 35 -8 19 0 35 4 35 10
0 6 9 6 24 0 13 -5 34 -6 46 -3 16 4 21 3 16 -5 -4 -7 -3 -12 3 -12 5 0 13 5
16 10 3 6 11 10 16 10 6 0 8 -4 4 -10 -3 -5 65 -10 181 -12 102 -2 188 0 191
5 2 4 9 7 14 7 6 0 7 -4 4 -10 -3 -5 -1 -10 4 -10 6 0 11 5 11 11 0 8 5 8 15
-1 12 -10 15 -10 15 0 0 10 3 10 15 0 12 -10 18 -10 32 1 11 10 14 10 9 2 -5
-10 12 -13 74 -13 52 0 79 4 75 10 -3 6 -1 10 4 10 6 0 11 -5 11 -11 0 -6 7
-3 16 5 19 19 42 22 26 4 -8 -10 3 -13 51 -14 34 0 73 -4 87 -9 21 -6 23 -6
12 6 -7 8 -27 19 -45 26 l-32 11 35 1 c37 1 70 -20 88 -54 10 -18 11 -18 17
-3 4 10 -2 29 -15 48 -12 16 -18 34 -15 40 4 6 -4 6 -19 -1 -38 -18 -1482 34
-1592 57 l-31 6 -8 -64z"/>
<path d="M6825 2570 c-4 -6 -10 -8 -14 -6 -17 11 -101 -98 -86 -112 3 -3 8 4
12 16 3 12 10 19 16 15 5 -3 7 -2 4 4 -10 15 37 54 75 62 43 10 90 -1 131 -29
33 -23 77 -77 77 -96 0 -5 -8 5 -19 21 -10 17 -29 39 -42 50 -19 16 -18 13 5
-15 16 -19 35 -50 43 -68 7 -18 18 -30 23 -27 6 3 7 -1 4 -9 -3 -9 -2 -16 3
-16 12 0 10 -117 -2 -128 -4 -4 -5 12 -1 36 3 24 2 42 -3 42 -12 0 -22 -31
-23 -72 0 -18 -9 -45 -19 -59 -19 -27 -85 -60 -117 -58 -9 0 1 7 24 15 23 8
52 27 65 41 l24 27 -29 -22 c-16 -12 -35 -22 -43 -22 -7 0 -25 -7 -38 -16 -14
-9 -36 -14 -50 -12 -34 7 -32 -10 3 -19 37 -9 91 -10 127 -1 28 7 29 6 11 -7
-29 -22 -8 -18 30 6 60 37 98 131 94 236 -2 71 -75 184 -141 219 -32 16 -135
19 -144 4z"/>
</g>
</svg>
