<?xml version="1.0" encoding="utf-8"?>
<!-- Generator: Adobe Illustrator 21.1.0, SVG Export Plug-In . SVG Version: 6.00 Build 0)  -->
<svg version="1.1" id="Calque_1" xmlns="http://www.w3.org/2000/svg" xmlns:xlink="http://www.w3.org/1999/xlink" x="0px" y="0px"
	 viewBox="0 0 432 432" style="enable-background:new 0 0 432 432;" xml:space="preserve">
<style type="text/css">
	.st0{fill:#DD720F;}
	.st1{fill:#641616;}
	.st2{fill:#76142D;}
	.st3{fill:#F3B455;}
	.st4{fill:#B37218;}
	.st5{fill:#921913;}
	.st6{fill:#ED7004;}
	.st7{fill:#E3AE89;}
	.st8{fill:#C71536;}
	.st9{fill:none;}
	.st10{fill:#D49F61;}
	.st11{fill:#9B6228;}
	.st12{fill:#B69E18;}
	.st13{fill:#BD2218;}
	.st14{fill:#D3933C;}
	.st15{fill:#643514;}
	.st16{fill:#D66D12;}
	.st17{fill:#F28B00;}
	.st18{fill:#6E3B11;}
	.st19{fill:#4C2814;}
	.st20{fill:#975018;}
	.st21{fill:#62432C;}
	.st22{fill:#C57915;}
	.st23{fill:#EE8600;}
	.st24{fill:#B57D44;}
	.st25{fill:#EA5A0C;}
	.st26{fill:#D67F10;}
</style>
<g>
	<path class="st20" d="M283.2,136.5c0,0.2,0,0.4,0.1,0.6c0.3,1.8-0.2,3.3-1.4,4.6c-1,1.1-2.2,1.9-3.7,2.2c-1.1,0.2-2.2,0.1-3.2-0.4
		c-1.2-0.6-1.7-1.6-1.9-2.9c-0.1-0.8,0-1.6,0.3-2.3c0.4-0.9,1-1.7,1.7-2.4c0.8-0.8,1.7-1.4,2.7-1.9c0.2-0.1,0.3-0.2,0.5-0.3
		c-0.5-0.4-0.9-0.7-1.4-1c-1.5-0.8-3.1-1.3-4.8-1.6c-2.8-0.6-5.6-0.8-8.4-0.6c-1.5,0.1-3,0.2-4.5,0.3c-0.8,0.1-1.5,0.2-2.3,0.5
		c0.1,0.1,0.2,0.1,0.3,0.2c1.2,0.5,2.3,1.3,3.1,2.4c1.4,1.9,1.7,4.2,0.2,6.4c-0.6,0.9-1.5,1.4-2.6,1.6c-1.2,0.2-2.3-0.8-2.3-2
		c0-0.8,0.4-1.2,1.2-1.4c0,0.5-0.4,0.5-0.7,0.8c0.1,0.6,0.4,0.9,0.9,1.1c0.8,0.3,1.9,0.1,2.5-0.5c0.3-0.3,0.3-0.6,0.3-1
		c-0.1-1.5-0.6-2.8-2-3.5c-1.5-0.8-3.1-1.2-4.8-1.4c-2.3-0.3-4.6-0.2-6.9,0.5c-1.8,0.5-3.7,0.9-5.5,1.3c-1,0.2-2,0.4-3,0.5
		c-1.6,0.1-3.2,0-4.7-0.5c-0.3-0.1-0.6-0.1-0.8,0c-4,1.9-9.3,1.1-12.6-1.8c-0.4-0.4-0.8-0.8-1.1-1.2c-0.1-0.1-0.2-0.3-0.3-0.5
		c0.5-0.2,0.7,0,1,0.3c0.6,0.7,1.3,1.4,2.1,1.9c3.2,2.1,6.6,2.3,10,0.7c0.1,0,0.1-0.1,0.2-0.1c-0.2-0.1-0.3-0.3-0.5-0.4
		c-0.8-0.7-1.4-1.5-1.7-2.5c-0.5-1.5-0.1-4.3,1.7-5.5c0.6-0.4,1.2-0.7,2-0.7c1.2-0.1,2.2,0.2,3.2,0.8c1.1,0.7,1.6,2,1.3,3.3
		c-0.3,1.6-1.2,2.8-2.4,3.9c-0.3,0.2-0.5,0.4-0.9,0.7c0.4,0.2,0.8,0.3,1.2,0.3c2.4,0,4.8,0,7.1-0.8c3.3-1.1,6.7-2.1,10.1-3.1
		c2.2-0.7,4.4-1.5,6.7-2.1c3.6-1,7.2-1.3,10.9-1.3c2.6,0,5.1,0.6,7.4,1.7c0.9,0.4,1.8,1,2.6,1.7c0.8,0.6,1.3,1.4,1.7,2.3
		c2.4,0.2,4.6,1.1,6.7,2.3c1.6,0.9,3.1,1.9,4.6,2.9c1,0.6,1.9,1.2,2.9,1.9c1.1,0.7,2.2,1,3.5,1.3c1.4,0.3,2.8,0.1,4.1-0.3
		c2.6-0.9,4.7-2.3,6.2-4.6c0.6-0.9,0.9-1.8,0.9-2.8c-0.1-1.9-1.4-3.1-3.3-3c-0.3,0-0.7,0.1-1,0.2c-0.6,0.1-1,0.6-1.2,1.2
		c-0.2,0.4,0,0.7,0.2,1.2c-0.2,0-0.3,0-0.4-0.1c-0.6-0.3-0.9-1.1-0.7-1.7c0.5-2.1,2.3-2.6,3.9-2.2c1.4,0.4,2.6,1.3,3.5,2.5
		c0.6,0.8,1.1,1.7,1.3,2.7c0.2,1.2,0,2.4-0.6,3.4c-1,1.8-2.6,3.1-4.4,4c-1.4,0.7-2.9,1.1-4.6,1.2c-0.1,0-0.2,0-0.3,0.1
		c0.2,0.1,0.3,0.1,0.5,0.2c3.7,1.2,7.4,1.9,11.2,2.4c3.9,0.5,7.8,0.3,11.7-0.1c4.4-0.5,8.7-1.4,12.9-2.8c0.7-0.2,1.5-0.5,2.2-0.8
		c0.1,0,0.2-0.1,0.3-0.2c-0.2-0.7-1-1.1-1.8-1c-0.8,0.2-1.5,0.4-2.3,0.5c-2.1,0.3-4.1,0-5.9-1.3c-0.4-0.3-0.7-0.6-1-0.9
		c-0.2-0.2-0.4-0.5-0.5-0.8c-0.3-0.8-0.1-1.2,0.7-1.3c0.1,0,0.2,0,0.2,0c2,0,4,0,5.9,0.1c0.8,0,1.6,0.2,2.4,0.5
		c1.2,0.4,2.1,1,2.8,2.1c0.1,0.1,0.1,0.2,0.2,0.2c1.2-2.2,1.3-6,0-8c-0.1,0-0.2,0.1-0.3,0.1c-2.8,1.1-5.6,1.2-8.4,0
		c-1.5-0.6-2.7-1.5-3.8-2.7c-1.2-1.3-2.3-2.6-3.5-4c-0.3-0.3-0.2-0.5,0.1-0.7c0.2-0.1,0.4-0.3,0.7-0.4c2.4-0.9,4.8-1.7,7.4-2
		c2.9-0.3,6.3,0.8,8.1,4.2c0.6,1.2,0.8,2.4,0.9,3.7c0,0.2,0.1,0.5,0.2,0.7c1.1,1.7,1.2,1.8,1.8,3.9c0.1-0.1,0.2-0.2,0.2-0.3
		c0.6-1,1.2-2,1.9-3c0.3-0.5,0.8-1,1.2-1.4c0.8-0.7,1.6-1.3,2.4-2c0.8-0.6,1.8-0.2,2,0.7c0.7,2.4-0.3,5.2-2.5,6.5
		c-0.9,0.6-1.9,0.9-2.8,1.4c-0.7,0.3-1.5,0.6-2.1,1.1c-0.3,0.2-0.5,0.5-0.6,0.9c-0.1,0.5-0.3,0.9-0.4,1.4c0,0.1-0.1,0.3-0.1,0.5
		c0.2-0.1,0.4-0.1,0.6-0.2c3.6-1.6,7.2-3.5,10.5-5.6c1-0.6,2-1.2,2.9-1.9c0.4-0.3,0.8-0.7,1.2-1c-0.5-0.6-1-1.1-1.6-1.4
		c-0.6-0.4-1.3-0.8-1.9-1.1c-2-0.9-3.2-2.5-4-4.5c-0.2-0.6-0.5-1.2-0.7-1.8c0.2-0.4,0.7-0.7,1.3-0.6c0.7,0.1,1.3,0.3,1.8,0.6
		c1.2,0.7,2.1,1.6,3.1,2.5c1.1,1.2,2.1,2.5,2.9,4c0.1,0.1,0.2,0.3,0.3,0.5c0.6-1.1,1.1-2.1,1.6-3.2c0-0.1-0.1-0.2-0.1-0.2
		c-1.4-1.4-2-3.1-2.3-5.1c-0.2-1.5,0-2.9,0.5-4.3c0.4-1.2,1.1-2.3,1.7-3.3c0.8-1.3,1.7-2.6,2.5-3.9c0.5-0.8,1.5-0.8,1.9,0
		c1.6,2.8,2.7,5.7,3.1,8.9c0.3,2.4-0.5,4.4-2.2,6.1c-0.6,0.6-1.3,1-2.2,1.3c-0.2,0.1-0.4,0.1-0.5,0.4c-0.4,1.5-0.9,2.8-1.7,4.1
		c0,0.1,0,0.1-0.1,0.3c0.2,0,0.3,0,0.4-0.1c0.9-0.6,2-0.6,3-0.7c3.2-0.2,5.8,1,7.9,3.4c1.6,1.8,2.5,3.9,2.8,6.3
		c0.1,0.5,0,0.6-0.6,0.7c-1.2,0.2-2.3,0.2-3.5,0c-1.9-0.4-3.6-1.3-4.9-2.7c-0.7-0.7-1.4-1.5-2.2-2.2c-0.9-0.8-1.8-1.6-2.8-2.4
		c-0.3-0.3-0.7-0.5-1.2-0.8c-0.3,0.2-0.5,0.4-0.7,0.7c-0.9,0.9-1.9,1.9-2.8,2.8c-0.1,0.1-0.1,0.1-0.1,0.2c0,0,0.1,0.1,0.1,0.1
		c1.4,0.3,2.4,1.1,3.5,1.9c1.3,1,2.4,2.3,3.1,3.8c0.2,0.5,0.5,0.9,0.7,1.4c0.7,1.5,1.5,3,2.3,4.5c0.2,0.3,0.4,0.6,0.6,0.9
		c0.2,0.2,0.2,0.4,0.1,0.7c-0.2,0.5-0.6,0.7-1.1,0.7c-0.3,0-0.7-0.1-1-0.1c-4.2-1-7.2-3.5-8.7-7.5c-0.2-0.6-0.4-1.3-0.7-2
		c-0.3-0.7-0.5-1.4-0.8-2.1c-0.1-0.1-0.2-0.3-0.3-0.5c-2.2,1.5-4.5,2.8-7,4c0.3,0.1,0.5,0.1,0.6,0.2c1.4,0.2,2.6,0.8,3.7,1.6
		c1,0.7,1.6,1.6,1.7,2.9c0,0.8-0.3,1.5-0.8,2.1c-0.8,0.8-1.8,1.2-2.9,1.3c-1.1,0.1-2-0.8-1.9-1.8c0-0.7,0.5-1.1,1.2-1.1
		c0.1,0.2-0.1,0.3-0.3,0.4c-0.3,0.1-0.3,0.3-0.3,0.6c0.1,0.5,0.8,1,1.4,1c0.4,0,0.9-0.1,1.3-0.3c0.5-0.2,0.7-0.4,0.6-1
		c-0.1-0.7-0.4-1.3-0.9-1.8c-1.2-1.3-2.7-2.1-4.5-2.5c-0.4-0.1-0.7-0.1-1.1-0.1c-0.7-0.1-1.4,0.1-2,0.3c-0.9,0.4-1.9,0.7-2.8,1
		c-0.3,0.1-0.5,0.2-0.7,0.5c-1.2,1.6-2.6,2.9-4.1,4.2c-1,0.8-2,1.6-3.1,2.4c-1.6,1.1-3.5,1.7-5.3,2.4c-0.2,0.1-0.4,0.1-0.6,0.2
		c0.2,0.1,0.3,0.1,0.4,0.2c0.9,0.5,1.9,0.9,2.8,1.4c0.9,0.5,2.1,0.4,2.8-0.3c0.7-0.7,1.4-1.3,2.1-2c1-1.1,2.2-2,3.6-2.6
		c0.8-0.4,1.6-0.7,2.4-1.1c0.1,0,0.2-0.1,0.3-0.1c1.1-0.3,1.8,0.2,1.9,1.3c0.2,2.2-1.2,4.4-3.3,5.2c-0.7,0.3-1.5,0.5-2.3,0.5
		c-0.8,0-1.7,0-2.5,0c-0.8,0-1.6-0.1-2.4-0.1c-0.2,0-0.5,0.1-0.9,0.1c0.2,0.2,0.3,0.3,0.5,0.4c0.6,0.4,1.2,0.8,1.7,1.1
		c1.3,0.9,2.5,1.9,3.6,3c0.2,0.2,0.4,0.3,0.6,0.4c3.1,1,4.7,3.2,5.3,6.4c0.1,0.4,0.1,0.7,0.1,1.1c0,2.4-0.3,4.9-1,7.2
		c-0.2,0.8-0.6,1.6-1,2.3c-0.3,0.6-0.7,0.6-1.1,0.1c-0.5-0.6-1-1.3-1.4-2c-0.8-1.2-1.6-2.4-2.4-3.6c-1.2-1.7-1.9-3.7-2-5.8
		c-0.1-1.7,0.2-3.4,1.1-4.9c-0.1-0.2-0.2-0.4-0.4-0.6c-0.6-0.7-2.4-2.1-3.4-2.6c0,0.2,0,0.3,0,0.4c0.1,0.8,0.3,1.6,0.4,2.4
		c0.1,1.1-0.1,2.2-0.6,3.2c-0.4,0.8-0.9,1.5-1.4,2.2c-0.8,1.1-1.6,2.1-2.5,3.1c-0.1,0.1-0.2,0.3-0.4,0.4c-0.5,0.4-1,0.3-1.3-0.2
		c-0.8-1.4-1.2-2.8-0.7-4.4c0.2-0.8,0.6-1.6,1.1-2.3c0.6-0.8,1.2-1.6,1.8-2.4c0.4-0.5,0.8-1.1,1.2-1.7c0.3-0.5,0.5-1.1,0.6-1.8
		c-0.9-0.6-1.8-1.2-2.9-1.5c-1.8-0.5-3.5-0.8-5.4-0.9c-1.6-0.1-3.2-0.2-4.8-0.4c-5.5-0.7-10.7-2.4-15.4-5.5
		c-1.9-1.3-3.7-2.8-5.6-4.3c-2.9-2.3-5.8-4.6-8.8-6.8c-1.9-1.3-4-2.3-6.3-2.9C283.4,136.6,283.3,136.6,283.2,136.5z M302.4,146.5
		c0.1,0.1,0.1,0.2,0.1,0.2c0.1,0.1,0.2,0.2,0.4,0.3c2.2,1.7,4.6,3.2,7,4.4c0.9,0.4,1.7,0.8,2.7,1.2c1.9,0.6,3.8,1.1,5.7,1.4
		c1.9,0.3,3.7,0.3,5.6-0.3c2.5-0.8,4.9-1.7,7.2-2.8c1.9-0.9,3.6-2,5.1-3.5c0.2-0.2,0.4-0.4,0.6-0.5c0,0,0-0.1-0.1-0.1
		C325.3,150,313.8,150,302.4,146.5z M233,133.9c1.4-1.1,2.4-2.3,2.9-4c0.2-0.9,0.2-1.7-0.3-2.5c-0.5-0.8-1.3-0.9-2.1-0.5
		c-0.6,0.3-1,0.8-1.3,1.4c-0.5,1-0.7,2-0.5,3.1C231.7,132.4,232.2,133.2,233,133.9z M280.4,136.1c-0.3,0-0.5,0-0.7,0.1
		c-1,0.1-2,0.5-2.8,1.2c-0.3,0.3-0.5,0.6-0.5,1c0.1,0.6,0.3,1.2,0.5,1.8c0.1,0.3,0.3,0.4,0.6,0.5c0.5,0.1,1.1,0,1.6-0.2
		c0.7-0.3,1.2-0.8,1.3-1.6c0.1-0.7,0.1-1.4,0.1-2.1C280.5,136.6,280.4,136.4,280.4,136.1z"/>
	<path class="st20" d="M148.5,136.6c-2.3,0.6-4.4,1.6-6.3,2.9c-3,2.1-5.9,4.5-8.8,6.8c-1.8,1.5-3.6,2.9-5.6,4.3
		c-4.7,3.2-9.8,4.9-15.4,5.5c-1.6,0.2-3.2,0.3-4.8,0.4c-1.8,0.1-3.6,0.4-5.4,0.9c-1.1,0.3-1.9,0.9-2.9,1.5c0.1,0.7,0.3,1.3,0.6,1.8
		c0.4,0.6,0.8,1.1,1.2,1.7c0.6,0.8,1.2,1.6,1.8,2.4c0.5,0.7,0.9,1.5,1.1,2.3c0.5,1.6,0.1,3-0.7,4.4c-0.3,0.5-0.9,0.6-1.3,0.2
		c-0.1-0.1-0.2-0.3-0.4-0.4c-0.8-1-1.7-2.1-2.5-3.1c-0.5-0.7-1-1.4-1.4-2.2c-0.6-1-0.8-2-0.6-3.2c0.1-0.8,0.3-1.6,0.4-2.4
		c0-0.1,0-0.2,0-0.4c-1,0.5-2.8,1.9-3.4,2.6c-0.2,0.2-0.3,0.4-0.4,0.6c1,1.5,1.2,3.2,1.1,4.9c-0.1,2.1-0.9,4-2,5.8
		c-0.8,1.2-1.6,2.4-2.4,3.6c-0.5,0.7-0.9,1.4-1.4,2c-0.4,0.6-0.8,0.5-1.1-0.1c-0.4-0.7-0.7-1.5-1-2.3c-0.7-2.4-0.9-4.8-1-7.2
		c0-0.4,0-0.8,0.1-1.1c0.6-3.1,2.2-5.3,5.3-6.4c0.2-0.1,0.4-0.2,0.6-0.4c1.1-1.1,2.3-2.1,3.6-3c0.6-0.4,1.2-0.8,1.7-1.1
		c0.1-0.1,0.2-0.2,0.5-0.4c-0.4-0.1-0.6-0.1-0.9-0.1c-0.8,0-1.6,0-2.4,0.1c-0.8,0-1.7,0.1-2.5,0c-0.8,0-1.6-0.2-2.3-0.5
		c-2.1-0.8-3.5-3-3.3-5.2c0.1-1.1,0.8-1.6,1.9-1.3c0.1,0,0.2,0.1,0.3,0.1c0.8,0.3,1.6,0.7,2.4,1.1c1.4,0.6,2.6,1.5,3.6,2.6
		c0.7,0.7,1.4,1.4,2.1,2c0.7,0.7,2,0.7,2.8,0.3c0.9-0.5,1.9-0.9,2.8-1.4c0.1,0,0.2-0.1,0.4-0.2c-0.3-0.1-0.4-0.2-0.6-0.2
		c-1.8-0.6-3.7-1.3-5.3-2.4c-1.1-0.7-2.1-1.6-3.1-2.4c-1.5-1.2-2.9-2.6-4.1-4.2c-0.2-0.2-0.4-0.4-0.7-0.5c-0.9-0.3-1.9-0.6-2.8-1
		c-0.7-0.3-1.3-0.4-2-0.3c-0.4,0-0.8,0.1-1.1,0.1c-1.8,0.3-3.3,1.2-4.5,2.5c-0.5,0.5-0.8,1.1-0.9,1.8c-0.1,0.6,0.1,0.8,0.6,1
		c0.4,0.1,0.9,0.2,1.3,0.3c0.6,0,1.3-0.5,1.4-1c0.1-0.3,0.1-0.5-0.3-0.6c-0.2-0.1-0.3-0.2-0.3-0.4c0.7,0,1.2,0.4,1.2,1.1
		c0.1,1-0.8,1.8-1.9,1.8c-1.1-0.1-2.1-0.5-2.9-1.3c-0.6-0.6-0.9-1.3-0.8-2.1c0-1.3,0.7-2.2,1.7-2.9c1.1-0.8,2.3-1.4,3.7-1.6
		c0.2,0,0.3-0.1,0.6-0.2c-2.5-1.2-4.8-2.5-7-4c-0.1,0.2-0.2,0.3-0.3,0.5c-0.3,0.7-0.6,1.4-0.8,2.1c-0.2,0.7-0.4,1.3-0.7,2
		c-1.6,4.1-4.5,6.6-8.7,7.5c-0.3,0.1-0.7,0.1-1,0.1c-0.5,0-0.9-0.2-1.1-0.7c-0.1-0.2-0.1-0.4,0.1-0.7c0.2-0.3,0.4-0.6,0.6-0.9
		c0.8-1.5,1.6-2.9,2.3-4.5c0.2-0.5,0.5-0.9,0.7-1.4c0.8-1.5,1.8-2.7,3.1-3.8c1.1-0.8,2.1-1.7,3.5-1.9c0,0,0.1,0,0.1-0.1
		c0-0.1-0.1-0.1-0.1-0.2c-0.9-0.9-1.9-1.9-2.8-2.8c-0.2-0.2-0.5-0.4-0.7-0.7c-0.4,0.3-0.8,0.5-1.2,0.8c-0.9,0.8-1.9,1.6-2.8,2.4
		c-0.8,0.7-1.5,1.5-2.2,2.2c-1.4,1.4-3,2.3-4.9,2.7c-1.2,0.2-2.4,0.2-3.5,0c-0.5-0.1-0.6-0.3-0.6-0.7c0.3-2.4,1.2-4.5,2.8-6.3
		c2.1-2.4,4.7-3.6,7.9-3.4c1,0.1,2.1,0.1,3,0.7c0.1,0.1,0.3,0.1,0.4,0.1c0-0.1,0-0.2-0.1-0.3c-0.7-1.3-1.3-2.7-1.7-4.1
		c-0.1-0.3-0.3-0.4-0.5-0.4c-0.8-0.3-1.5-0.7-2.2-1.3c-1.7-1.7-2.5-3.7-2.2-6.1c0.4-3.2,1.5-6.2,3.1-8.9c0.5-0.8,1.4-0.8,1.9,0
		c0.8,1.3,1.7,2.6,2.5,3.9c0.7,1.1,1.3,2.1,1.7,3.3c0.5,1.4,0.7,2.8,0.5,4.3c-0.3,1.9-0.9,3.6-2.3,5.1c-0.1,0.1-0.1,0.1-0.1,0.2
		c0.5,1,1.1,2.1,1.6,3.2c0.1-0.2,0.2-0.3,0.3-0.5c0.8-1.4,1.8-2.8,2.9-4c0.9-1,1.9-1.9,3.1-2.5c0.6-0.3,1.2-0.6,1.8-0.6
		c0.6-0.1,1.1,0.2,1.3,0.6c-0.2,0.6-0.5,1.2-0.7,1.8c-0.8,2-2,3.5-4,4.5c-0.7,0.3-1.3,0.7-1.9,1.1c-0.6,0.4-1.2,0.8-1.6,1.4
		c0.4,0.4,0.7,0.7,1.2,1c1,0.7,1.9,1.3,2.9,1.9c3.4,2.1,6.9,4,10.5,5.6c0.2,0.1,0.3,0.1,0.6,0.2c-0.1-0.2-0.1-0.3-0.1-0.5
		c-0.1-0.5-0.3-0.9-0.4-1.4c-0.1-0.4-0.3-0.7-0.6-0.9c-0.6-0.5-1.4-0.8-2.1-1.1c-1-0.4-1.9-0.8-2.8-1.4c-2.1-1.3-3.1-4.1-2.5-6.5
		c0.3-1,1.2-1.3,2-0.7c0.8,0.6,1.6,1.3,2.4,2c0.5,0.4,0.9,0.9,1.2,1.4c0.7,1,1.3,2,1.9,3c0.1,0.1,0.1,0.2,0.2,0.3
		c0.6-2.1,0.7-2.2,1.8-3.9c0.1-0.2,0.2-0.5,0.2-0.7c0.1-1.3,0.3-2.6,0.9-3.7c1.8-3.4,5.1-4.5,8.1-4.2c2.6,0.3,5,1.1,7.4,2
		c0.2,0.1,0.5,0.2,0.7,0.4c0.3,0.2,0.4,0.4,0.1,0.7c-1.2,1.3-2.3,2.7-3.5,4c-1.1,1.1-2.4,2.1-3.8,2.7c-2.8,1.2-5.6,1.1-8.4,0
		c-0.1,0-0.2-0.1-0.3-0.1c-1.3,2-1.2,5.8,0,8c0.1-0.1,0.1-0.2,0.2-0.2c0.7-1,1.7-1.7,2.8-2.1c0.8-0.3,1.6-0.5,2.4-0.5
		c2,0,4,0,5.9-0.1c0.1,0,0.2,0,0.2,0c0.8,0.1,1.1,0.5,0.7,1.3c-0.1,0.3-0.3,0.6-0.5,0.8c-0.3,0.3-0.6,0.7-1,0.9
		c-1.8,1.3-3.8,1.7-5.9,1.3c-0.8-0.1-1.5-0.3-2.3-0.5c-0.7-0.2-1.5,0.3-1.8,1c0.1,0.1,0.2,0.1,0.3,0.2c0.7,0.3,1.4,0.5,2.2,0.8
		c4.2,1.4,8.5,2.3,12.9,2.8c3.9,0.4,7.8,0.6,11.7,0.1c3.8-0.5,7.6-1.3,11.2-2.4c0.2-0.1,0.3-0.1,0.5-0.2c-0.1-0.1-0.2-0.1-0.3-0.1
		c-1.6-0.1-3.1-0.5-4.6-1.2c-1.8-0.9-3.4-2.2-4.4-4c-0.6-1.1-0.8-2.2-0.6-3.4c0.2-1,0.6-1.9,1.3-2.7c0.9-1.2,2-2.1,3.5-2.5
		c1.6-0.4,3.4,0.1,3.9,2.2c0.1,0.6-0.2,1.4-0.7,1.7c-0.1,0.1-0.2,0-0.4,0.1c0.1-0.4,0.3-0.8,0.2-1.2c-0.2-0.6-0.6-1-1.2-1.2
		c-0.3-0.1-0.7-0.1-1-0.2c-1.9-0.1-3.2,1.1-3.3,3c0,1.1,0.3,2,0.9,2.8c1.5,2.2,3.6,3.7,6.2,4.6c1.3,0.5,2.7,0.6,4.1,0.3
		c1.2-0.2,2.4-0.5,3.5-1.3c1-0.6,1.9-1.2,2.9-1.9c1.5-1,3.1-2,4.6-2.9c2-1.2,4.2-2.1,6.7-2.3c0.4-0.9,0.9-1.7,1.7-2.3
		c0.8-0.7,1.6-1.2,2.6-1.7c2.3-1.1,4.8-1.7,7.4-1.7c3.7,0,7.4,0.2,10.9,1.3c2.2,0.6,4.4,1.4,6.7,2.1c3.4,1,6.7,2,10.1,3.1
		c2.3,0.8,4.7,0.8,7.1,0.8c0.4,0,0.8-0.1,1.2-0.3c-0.3-0.3-0.6-0.5-0.9-0.7c-1.2-1-2.1-2.3-2.4-3.9c-0.3-1.4,0.2-2.6,1.3-3.3
		c1-0.6,2.1-0.9,3.2-0.8c0.7,0,1.4,0.3,2,0.7c1.8,1.2,2.2,4,1.7,5.5c-0.3,1-0.9,1.8-1.7,2.5c-0.1,0.1-0.3,0.3-0.5,0.4
		c0.1,0.1,0.1,0.1,0.2,0.1c3.5,1.6,6.8,1.5,10-0.7c0.8-0.5,1.5-1.2,2.1-1.9c0.2-0.3,0.5-0.5,1-0.3c-0.1,0.2-0.2,0.4-0.3,0.5
		c-0.4,0.4-0.7,0.8-1.1,1.2c-3.3,2.9-8.6,3.7-12.6,1.8c-0.3-0.1-0.5-0.1-0.8,0c-1.5,0.5-3.1,0.7-4.7,0.5c-1-0.1-2-0.3-3-0.5
		c-1.8-0.4-3.7-0.7-5.5-1.3c-2.3-0.7-4.5-0.9-6.9-0.5c-1.7,0.2-3.3,0.6-4.8,1.4c-1.4,0.7-2,2-2,3.5c0,0.4,0.1,0.7,0.3,1
		c0.6,0.6,1.7,0.9,2.5,0.5c0.5-0.2,0.8-0.5,0.9-1.1c-0.3-0.3-0.7-0.3-0.7-0.8c0.8,0.2,1.2,0.7,1.2,1.4c0,1.2-1.1,2.2-2.3,2
		c-1.1-0.2-2-0.7-2.6-1.6c-1.5-2.2-1.2-4.6,0.2-6.4c0.8-1.1,1.8-1.9,3.1-2.4c0.1,0,0.2-0.1,0.3-0.2c-0.8-0.2-1.5-0.4-2.3-0.5
		c-1.5-0.1-3-0.2-4.5-0.3c-2.8-0.2-5.7,0-8.4,0.6c-1.6,0.4-3.3,0.8-4.8,1.6c-0.5,0.3-0.9,0.5-1.4,1c0.2,0.1,0.4,0.2,0.5,0.3
		c1,0.5,1.9,1.1,2.7,1.9c0.7,0.7,1.3,1.5,1.7,2.4c0.3,0.7,0.5,1.5,0.3,2.3c-0.2,1.3-0.7,2.3-1.9,2.9c-1,0.5-2.1,0.6-3.2,0.4
		c-1.5-0.3-2.7-1.1-3.7-2.2c-1.2-1.3-1.7-2.9-1.4-4.6c0-0.2,0-0.4,0.1-0.6C148.7,136.6,148.6,136.6,148.5,136.6z M95.3,146.7
		c0,0,0,0.1-0.1,0.1c0.2,0.2,0.4,0.4,0.6,0.5c1.5,1.5,3.2,2.6,5.1,3.5c2.4,1.1,4.8,2,7.2,2.8c1.8,0.6,3.7,0.6,5.6,0.3
		c1.9-0.3,3.8-0.8,5.7-1.4c0.9-0.3,1.8-0.7,2.7-1.2c2.5-1.2,4.8-2.7,7-4.4c0.1-0.1,0.3-0.2,0.4-0.3c0,0,0-0.1,0.1-0.2
		C118.2,150,106.7,150,95.3,146.7z M200.4,131.4c0.1-1.1,0-2.1-0.5-3.1c-0.3-0.6-0.7-1-1.3-1.4c-0.8-0.5-1.6-0.3-2.1,0.5
		c-0.5,0.8-0.6,1.6-0.3,2.5c0.5,1.7,1.5,2.9,2.9,4C199.8,133.2,200.3,132.4,200.4,131.4z M151.5,136.8c0,0.7,0.1,1.4,0.1,2.1
		c0.1,0.8,0.6,1.3,1.3,1.6c0.5,0.2,1,0.2,1.6,0.2c0.3,0,0.5-0.2,0.6-0.5c0.2-0.6,0.3-1.2,0.5-1.8c0.1-0.4-0.2-0.7-0.5-1
		c-0.8-0.7-1.7-1.1-2.8-1.2c-0.2,0-0.5,0-0.7-0.1C151.6,136.4,151.5,136.6,151.5,136.8z"/>
</g>
<g>
	<g>
		<path class="st21" d="M96.5,217.1c-0.2-0.2-0.3-0.2-0.4-0.3c-2.8-1.6-5.6-3.1-8.7-3.9c-2.1-0.6-4.4-0.9-6.6-0.7
			c-1.9,0.2-3.2,1.5-3.5,3.3c-0.3,1.8,1.5,4.5,4.2,3.7c0.1,0,0.3-0.1,0.5-0.1c0,0.1,0.1,0.2,0,0.3c-0.3,0.6-0.7,1.1-1.3,1.3
			c-0.9,0.3-1.8,0.3-2.7,0c-2-0.5-3.4-2.1-3.6-4c-0.1-1.3,0.3-2.4,1.1-3.4c1.3-1.4,2.8-2.6,4.6-3.3c0.5-0.2,0.9-0.3,1.4-0.5
			c2.2-0.9,4.4-0.9,6.6-0.2c2.2,0.8,4.3,1.8,6.3,2.9c1.5,0.9,3,1.7,4.5,2.6c0.2,0.1,0.4,0.1,0.6,0c1.5-0.7,3.1-0.8,4.8-0.8
			c1.9,0,3.7,0.5,5.3,1.5c1.4,0.9,2.7,1.8,4,2.8c1.4,1.1,2.8,2.2,4.2,3.4c2.4,2,5.1,3.6,7.9,5c2.1,1,4.4,1.7,6.7,2.1
			c1.5,0.3,3,0.4,4.6,0.5c1.5,0.1,2.9-0.3,4.2-0.7c0.7-0.2,1.3-0.8,2-1.6c-0.1-0.1-0.3-0.2-0.4-0.3c-1.5-0.8-2.6-2-3.6-3.3
			c-0.5-0.7-0.9-1.3-1.4-2c-0.9-1.3-1.1-2.7-1-4.2c0.1-0.9,0.5-1.7,1.3-2.2c1.5-1,3.2-1.3,5-1.1c1.4,0.1,2.7,0.7,3.7,1.7
			c1.2,1.1,1.7,2.5,1.7,4.1c0,2-0.2,3.9-1.1,5.8c-0.3,0.6-0.6,1.1-0.9,1.8c0.3,0.1,0.6,0.3,0.9,0.4c1.3,0.3,2.6,0.6,4,0.8
			c2,0.3,4.1,0.3,6.2,0c2.9-0.5,5.4-1.8,7.4-3.8c1.8-1.8,3.3-3.8,3.9-6.4c0.1-0.4,0.2-0.8,0.1-1.2c0-0.4-0.2-0.8-0.4-1.1
			c-0.7-0.8-1.6-1.4-2.6-1.8c-0.4-0.1-0.7-0.1-1.1,0.1c-0.8,0.4-1.4,1-1.9,1.8c-0.3,0.6-0.3,1.2,0,1.8c-0.6,0.4-1.2,0.3-1.5-0.2
			c-0.4-0.5-0.4-1.1-0.2-1.6c0.5-1.5,2.4-2.9,4-2.8c2.4,0.2,4.4,1.2,5.8,3.1c0.9,1.2,1.1,2.6,1,4c-0.2,2.9-1.6,5.2-3.6,7.1
			c-2.5,2.3-5.4,3.6-8.8,4c-4.8,0.6-9.4-0.4-13.8-2.5c-0.1-0.1-0.3-0.1-0.4-0.2c0,0,0,0-0.1,0c-0.1,0.1-0.1,0.1-0.2,0.2
			c-2.1,2.4-4.8,3.8-7.9,4.3c-2.2,0.4-4.5,0.3-6.7-0.3c-2.3-0.6-4.5-1.3-6.6-2.4c-0.9-0.5-1.8-0.8-2.7-1.2c-2.9-1.4-5.5-3.3-8-5.2
			c-2.2-1.7-4.5-3.3-6.9-4.6c-0.9-0.5-2-0.8-3-1.2c-0.2-0.1-0.4-0.1-0.8-0.2c0.4,0.4,0.6,0.7,0.8,0.9c1.5,1.7,2.5,3.7,2.8,5.9
			c0.1,0.9,0.1,1.7-0.2,2.6c-0.9,2.8-3.1,5.1-6.4,5.3c-1.6,0.1-3.2,0-4.6-1c-2.1-1.5-3.3-3.5-3.2-6.2c0.1-3.1,1.5-5.5,3.5-7.7
			C96,217.5,96.2,217.3,96.5,217.1z M98,218.1c-1,0.5-1.8,1.2-2.4,2.1c-0.7,1-1.2,2.2-1.5,3.4c-0.7,2.9,1.4,5.2,3.3,5.8
			c2,0.5,3.8,0,5.5-1.1c0.3-0.2,0.4-0.6,0.5-0.9c0.1-1.3-0.2-2.5-0.7-3.6C101.6,221.4,99.9,219.7,98,218.1z M144.4,225.7
			c0.1-0.1,0.2-0.1,0.2-0.2c1.3-2.3,1.5-4.6,0.1-6.9c-0.8-1.3-1.9-2.1-3.3-2.4c-1.4-0.3-2.3,0.5-2.1,1.9c0.1,0.4,0.2,0.8,0.3,1.1
			c1,2.3,2.4,4.3,4.2,6C144.1,225.5,144.2,225.6,144.4,225.7z"/>
		<path class="st13" d="M187.6,213.5c-0.1-0.7-0.2-1.3-0.2-1.9c-0.1-1.1,0-2.2,0.2-3.3c0.5-2.2,3.9-4.4,6.6-2.3c1,0.8,1.8,1.8,2.4,3
			c0.9,1.8,1.5,3.8,1.6,5.8c0.2,2.2,0.1,4.4,0.2,6.6c0.1,3.2,0.1,6.4,0.2,9.5c0,0.3,0.1,0.5,0.1,0.8c0,0.4-0.1,0.8-0.4,1.1
			c-0.2,0.3-0.5,0.4-0.8,0.4c-0.5-0.1-1-0.2-1.4-0.4c-1.3-0.6-2.6-1.3-3.9-1.9c-1.9-0.9-3.8-1.9-5.6-2.9c-1.8-0.9-3.4-2-4.8-3.4
			c-0.9-0.9-1.7-1.9-2.3-3c-0.5-0.8-0.8-1.7-1-2.6c-0.3-1.3,0-2.6,0.8-3.7c1.5-2.2,4.5-3.3,6.9-2.5C186.6,213,187,213.2,187.6,213.5
			z M195.6,228.1c0-0.4,0-0.6,0-0.8c0-0.8,0-1.7,0-2.5c0-2.6,0.2-5.2,0.1-7.8c-0.1-2.7-0.8-5.2-2.2-7.6c-0.3-0.5-0.8-1-1.2-1.5
			c-0.4-0.4-1-0.7-1.6-0.7c-0.7-0.1-0.9,0-1.1,0.7c-0.1,0.5-0.2,1-0.2,1.5c0,1.9,0.3,3.8,0.5,5.7c0.1,0.7,0.2,1.5,0.3,2.2
			c0.1,0.5-0.1,1-0.5,1.3c-0.4,0.3-0.7,0.3-0.9-0.2c-0.4-0.7-0.7-1.4-1-2c-0.1-0.2-0.2-0.4-0.3-0.6c-1.3-1.4-2.9-2.1-4.9-1.8
			c-1.7,0.2-2.5,2.6-1.5,3.6c0.2,0.3,0.4,0.5,0.7,0.8c1.6,2,3.7,3.4,5.8,4.8c2.3,1.4,4.6,2.9,6.9,4.3
			C194.7,227.5,195.1,227.7,195.6,228.1z"/>
		<path class="st13" d="M207.3,221.9c0.5-0.3,1-0.5,1.5-0.8c1.3-0.6,2.7-0.5,4-0.1c1.4,0.4,2.1,1.9,1.7,3.3
			c-0.3,0.9-0.7,1.7-1.4,2.3c-0.7,0.7-1.5,1.4-2.3,1.9c-2.1,1.4-4.2,2.6-6.6,3.3c-0.1,0-0.1,0-0.2,0.1c-0.8,0.2-0.9,0.1-1.1-0.7
			c-0.4-2.2-0.9-4.3-1.3-6.5c-0.2-1.1-0.2-2.1,0-3.2c0.3-1.5,2.1-2.9,3.6-2.8c0.7,0.1,1.2,0.4,1.5,1c0.2,0.5,0.3,1,0.4,1.4
			C207.3,221.5,207.3,221.7,207.3,221.9z M205.2,228.6c1.6-1,3-2,4.5-3c0.3-0.2,0.5-0.4,0.7-0.7c0.2-0.3,0.4-0.6,0.5-1
			c0.3-1.1-0.6-2-1.7-1.8c-0.7,0.1-1.3,0.5-1.7,1.1c-0.2,0.3-0.5,0.5-0.8,0.7c-0.1,0.1-0.4,0-0.5,0c-0.1,0-0.1-0.3,0-0.4
			c0.3-0.7,0.1-1.4-0.2-2.1c-0.3-0.8-0.8-1.3-1.8-1.3c-0.1,0.2-0.2,0.4-0.2,0.6c-0.1,0.7-0.1,1.5-0.1,2.2c0.1,1.6,0.5,3.2,1,4.8
			C204.9,228.1,205,228.3,205.2,228.6z"/>
	</g>
	<g>
		<path class="st21" d="M336.2,217.7c2,2.2,3.4,4.6,3.5,7.7c0.1,2.7-1.1,4.7-3.2,6.2c-1.4,1-3,1.1-4.6,1c-3.2-0.2-5.4-2.4-6.4-5.3
			c-0.3-0.8-0.3-1.7-0.2-2.6c0.3-2.3,1.3-4.2,2.8-5.9c0.2-0.3,0.5-0.5,0.8-0.9c-0.4,0.1-0.6,0.1-0.8,0.2c-1,0.4-2,0.7-3,1.2
			c-2.4,1.3-4.7,2.9-6.9,4.6c-2.5,2-5.1,3.8-8,5.2c-0.9,0.4-1.8,0.8-2.7,1.2c-2.1,1.1-4.3,1.8-6.6,2.4c-2.2,0.6-4.4,0.7-6.7,0.3
			c-3.1-0.5-5.8-1.9-7.9-4.3c-0.1-0.1-0.2-0.2-0.2-0.2c-0.1,0-0.1,0-0.1,0c-0.1,0.1-0.3,0.1-0.4,0.2c-4.4,2.1-8.9,3.1-13.8,2.5
			c-3.3-0.4-6.3-1.8-8.8-4c-2.1-1.9-3.4-4.2-3.6-7.1c-0.1-1.4,0.1-2.8,1-4c1.5-1.9,3.4-2.9,5.8-3.1c1.6-0.1,3.5,1.3,4,2.8
			c0.2,0.6,0.1,1.1-0.2,1.6c-0.3,0.5-0.9,0.6-1.5,0.2c0.3-0.6,0.4-1.2,0-1.8c-0.4-0.8-1.1-1.4-1.9-1.8c-0.3-0.2-0.7-0.2-1.1-0.1
			c-1.1,0.3-1.9,0.9-2.6,1.8c-0.2,0.3-0.4,0.7-0.4,1.1c0,0.4,0,0.8,0.1,1.2c0.6,2.5,2,4.6,3.9,6.4c2.1,2,4.5,3.4,7.4,3.8
			c2.1,0.3,4.1,0.3,6.2,0c1.3-0.2,2.6-0.5,4-0.8c0.3-0.1,0.6-0.2,0.9-0.4c-0.3-0.6-0.6-1.2-0.9-1.8c-0.8-1.8-1-3.8-1.1-5.8
			c0-1.6,0.5-3,1.7-4.1c1.1-1,2.3-1.5,3.7-1.7c1.8-0.2,3.5,0.1,5,1.1c0.8,0.5,1.2,1.3,1.3,2.2c0.1,1.5-0.1,2.9-1,4.2
			c-0.5,0.7-0.9,1.4-1.4,2c-1,1.3-2.1,2.5-3.6,3.3c-0.1,0.1-0.3,0.2-0.4,0.3c0.7,0.8,1.3,1.3,2,1.6c1.4,0.4,2.8,0.8,4.2,0.7
			c1.5-0.1,3.1-0.3,4.6-0.5c2.3-0.4,4.6-1.1,6.7-2.1c2.8-1.4,5.5-3,7.9-5c1.4-1.1,2.8-2.3,4.2-3.4c1.3-1,2.6-1.9,4-2.8
			c1.6-1,3.4-1.5,5.3-1.5c1.6,0,3.2,0.1,4.8,0.8c0.2,0.1,0.4,0.1,0.6,0c1.5-0.9,3-1.7,4.5-2.6c2-1.1,4.1-2.2,6.3-2.9
			c2.2-0.8,4.4-0.7,6.6,0.2c0.4,0.2,0.9,0.3,1.4,0.5c1.9,0.7,3.3,1.9,4.6,3.3c0.8,0.9,1.3,2.1,1.1,3.4c-0.2,2-1.6,3.5-3.6,4
			c-0.9,0.2-1.8,0.3-2.7,0c-0.7-0.2-1-0.7-1.3-1.3c0-0.1,0-0.2,0-0.3c0.2,0.1,0.3,0.1,0.5,0.1c2.7,0.8,4.5-1.9,4.2-3.7
			c-0.3-1.8-1.7-3.1-3.5-3.3c-2.2-0.2-4.4,0.1-6.6,0.7c-3.1,0.9-5.9,2.3-8.7,3.9c-0.1,0.1-0.2,0.1-0.4,0.3
			C335.8,217.3,336,217.5,336.2,217.7z M329.2,223.6c-0.6,1.1-0.9,2.4-0.7,3.6c0,0.4,0.2,0.7,0.5,0.9c1.7,1.2,3.5,1.7,5.5,1.1
			c2-0.5,4.1-2.9,3.3-5.8c-0.3-1.2-0.8-2.3-1.5-3.4c-0.6-0.9-1.4-1.5-2.4-2.1C332.1,219.7,330.4,221.4,329.2,223.6z M288.1,225.3
			c1.8-1.7,3.2-3.7,4.2-6c0.2-0.3,0.3-0.7,0.3-1.1c0.2-1.4-0.7-2.2-2.1-1.9c-1.4,0.3-2.5,1.1-3.3,2.4c-1.4,2.3-1.2,4.6,0.1,6.9
			c0,0.1,0.1,0.1,0.2,0.2C287.8,225.6,287.9,225.5,288.1,225.3z"/>
		<path class="st13" d="M245.9,212.8c2.5-0.9,5.4,0.2,6.9,2.5c0.8,1.1,1,2.4,0.8,3.7c-0.2,0.9-0.5,1.8-1,2.6c-0.6,1.1-1.4,2.1-2.3,3
			c-1.4,1.4-3,2.5-4.8,3.4c-1.9,1-3.7,1.9-5.6,2.9c-1.3,0.6-2.6,1.3-3.9,1.9c-0.4,0.2-1,0.3-1.4,0.4c-0.4,0.1-0.6-0.1-0.8-0.4
			c-0.3-0.3-0.4-0.7-0.4-1.1c0-0.3,0.1-0.5,0.1-0.8c0.1-3.2,0.1-6.4,0.2-9.5c0.1-2.2,0-4.4,0.2-6.6c0.2-2,0.7-4,1.6-5.8
			c0.6-1.1,1.3-2.2,2.4-3c2.7-2.1,6.1,0,6.6,2.3c0.2,1.1,0.3,2.2,0.2,3.3c-0.1,0.6-0.2,1.2-0.2,1.9C245,213.2,245.4,213,245.9,212.8
			z M237.6,227.3c2.3-1.4,4.6-2.9,6.9-4.3c2.1-1.3,4.2-2.8,5.8-4.8c0.2-0.3,0.4-0.5,0.7-0.8c1-1,0.2-3.4-1.5-3.6
			c-2-0.2-3.5,0.5-4.9,1.8c-0.2,0.2-0.2,0.4-0.3,0.6c-0.3,0.7-0.6,1.4-1,2c-0.3,0.5-0.5,0.5-0.9,0.2c-0.4-0.3-0.6-0.8-0.5-1.3
			c0.1-0.7,0.2-1.5,0.3-2.2c0.2-1.9,0.5-3.8,0.5-5.7c0-0.5-0.1-1-0.2-1.5c-0.2-0.7-0.4-0.8-1.1-0.7c-0.6,0.1-1.2,0.3-1.6,0.7
			c-0.5,0.4-0.9,0.9-1.2,1.5c-1.4,2.3-2.1,4.9-2.2,7.6c-0.1,2.6,0.1,5.2,0.1,7.8c0,0.8,0,1.7,0,2.5c0,0.2,0,0.4,0,0.8
			C236.9,227.7,237.3,227.5,237.6,227.3z"/>
		<path class="st13" d="M224.8,221.2c0.1-0.5,0.2-1,0.4-1.4c0.3-0.6,0.9-1,1.5-1c1.5-0.1,3.3,1.3,3.6,2.8c0.2,1.1,0.2,2.1,0,3.2
			c-0.4,2.2-0.8,4.4-1.3,6.5c-0.2,0.8-0.3,0.9-1.1,0.7c-0.1,0-0.1,0-0.2-0.1c-2.4-0.7-4.5-1.9-6.6-3.3c-0.8-0.5-1.6-1.3-2.3-1.9
			c-0.7-0.6-1.2-1.4-1.4-2.3c-0.4-1.4,0.3-2.9,1.7-3.3c1.3-0.4,2.7-0.5,4,0.1c0.5,0.2,1,0.5,1.5,0.8
			C224.7,221.7,224.7,221.5,224.8,221.2z M227.1,227.9c0.5-1.6,0.9-3.2,1-4.8c0.1-0.7,0-1.5-0.1-2.2c0-0.2-0.1-0.4-0.2-0.6
			c-1,0-1.5,0.4-1.8,1.3c-0.2,0.7-0.5,1.3-0.2,2.1c0.1,0.1,0,0.4,0,0.4c-0.1,0.1-0.4,0.1-0.5,0c-0.3-0.2-0.6-0.4-0.8-0.7
			c-0.4-0.6-1-0.9-1.7-1.1c-1.1-0.2-2,0.7-1.7,1.8c0.1,0.3,0.3,0.7,0.5,1c0.2,0.3,0.4,0.5,0.7,0.7c1.5,1,2.9,1.9,4.5,3
			C227,228.3,227.1,228.1,227.1,227.9z"/>
	</g>
</g>
<g>
	<g>
		<path class="st2" d="M109.1,294.1c0-0.2-0.1-0.4-0.1-0.5c-0.1-0.5,0.1-0.9,0.4-1.2c0.3-0.4,0.9-0.5,1.3-0.2
			c0.3,0.2,0.7,0.5,0.9,0.8c0.4,0.6,0.5,1.4,0.3,2.1c-0.2,0.6-0.6,1.1-1.3,1.2c-1.4,0.2-2.4-0.3-3.2-1.4c-0.6-0.8-1-1.8-1.2-2.8
			c-0.2-1.6,0.3-2.8,1.6-3.7c1.3-0.9,2.7-1.6,4.2-2c2.9-0.8,5.8-1,8.7-0.7c3.3,0.3,6.4,0.9,9.5,1.8c1.1,0.3,2.3,0.7,3.4,1
			c0.1,0,0.2,0,0.4,0.1c-0.2-0.2-0.3-0.3-0.4-0.5c-2.1-2.3-3.4-4.9-3.6-8c-0.1-1.1,0.1-2.2,0.5-3.2c0.8-1.7,2.5-2.6,4.3-2.2
			c1.3,0.2,2.6,1.2,2.8,3c0,0.6,0,1.2-0.1,1.7c-0.1,0.5-0.4,0.9-0.8,1.2c-0.7,0.5-1.6,0.3-2-0.5c-0.2-0.5-0.3-1-0.2-1.5
			c0-0.1,0-0.3,0.1-0.4c-1-0.1-1.8,0-2.6,0.6c-0.4,0.3-0.5,0.6-0.5,1.1c0,1,0.3,1.9,0.7,2.8c0.8,1.8,1.9,3.3,3.4,4.6
			c1.3,1.2,2.8,2.1,4.3,3.1c0.1,0.1,0.3,0.2,0.5,0.2c4.4,1.4,8.7,2.8,13.1,4.3c4.1,1.3,8.3,2.2,12.6,2.8c5.2,0.8,10.4,1.1,15.7,0.9
			c3.9-0.1,7.7-0.6,11.4-1.6c1.5-0.4,3-0.9,4.4-1.6c0.2-0.1,0.3-0.1,0.4-0.3c-0.1,0-0.2,0-0.3,0c-3.3-0.3-5.9-1.7-7.6-4.6
			c-0.6-1-1-2.1-1.2-3.3c-0.3-1.5,0.1-2.9,1.1-4.1c1.2-1.4,3.1-1.8,4.8-1c1.5,0.8,2.3,2,2.5,3.7c0.2,1.7-1.2,3-2.6,3.1
			c-0.6,0-1.2-0.2-1.6-0.6c-0.7-0.6-1.1-1.3-1.3-2.1c0-0.1,0-0.2-0.1-0.3c-0.4,0.3-0.6,0.6-0.7,1c-0.3,1.3-0.1,2.4,0.7,3.4
			c0.8,0.9,1.8,1.5,2.9,2c2.4,1,4.8,1,7.3,0.3c0.8-0.2,1.5-0.7,2.2-1.1c1.2-0.8,2.1-1.8,3-2.8c0.7-0.7,1.3-1.5,2-2.2
			c0.3-0.3,0.3-0.3,0.6-0.1c0.1,0.1,0.3,0.1,0.4,0.2c0.2,0.1,0.3,0.3,0.2,0.5c-0.1,0.2-0.2,0.3-0.3,0.5c-0.5,0.9-1.2,1.6-1.9,2.3
			c-1.3,1.3-2.7,2.4-4.2,3.4c-0.6,0.4-1.2,0.9-1.9,1.3c-0.5,0.4-0.9,0.9-1.2,1.4c-0.4,0.6-0.8,1.3-1.1,2c-0.3,0.7-0.3,1.4-0.3,2.2
			c-0.1,1.7,0.6,2.9,1.7,4.1c1.7,1.7,4.4,1.4,5.8,0.3c0.1-0.1,0.2-0.2,0.3-0.3c-0.1-0.1-0.1-0.2-0.2-0.2c-0.6-0.5-0.9-1.2-1.3-2
			c-0.4-0.8-0.1-1.5,0.7-1.9c1.1-0.6,2.1-0.5,3.1,0.1c1.3,0.8,2.1,1.9,2.3,3.4c0.3,1.9-0.5,2.9-1.9,3.6c-1.3,0.6-2.6,0.8-4,0.6
			c-2.6-0.4-4.9-1.5-6.5-3.7c-0.1-0.1-0.2-0.2-0.3-0.3c0,0,0,0-0.1,0c0.1,0.5,0.1,0.9,0.3,1.4c0.3,0.9,0.7,1.8,1.3,2.5
			c0.5,0.8,1.2,1.4,1.9,2.1c0.8,0.7,1.7,1.1,2.7,1.4c1.6,0.4,3.3,0.3,4.9-0.1c0.5-0.1,1.1-0.2,1.6-0.3c0.3-0.1,0.7-0.1,1-0.1
			c1,0,1.8,0.6,2.2,1.5c0.3,0.8,0.1,1.5-0.7,1.9c-0.3,0.2-0.7,0.3-1,0.4c-1.5,0.3-2.9,0.5-4.4,0.3c-1.8-0.2-3.5-0.9-5-1.9
			c-2.6-1.7-4.6-4-5.8-6.9c-0.9-2.2-1.3-4.5-1.3-6.8c0-0.6,0.1-1.2,0.2-1.8c-0.1,0-0.2,0-0.2,0.1c-1.6,0.7-3.3,1.1-4.9,1.7
			c-6.3,2.1-12.9,2.6-19.5,2.5c-6.5-0.1-12.9-1.3-19.2-3.1c-4.1-1.2-8.1-2.7-12.1-4.3c-4.9-2-9.8-3.6-14.9-4.8c-2.4-0.6-4.9-1-7.4-1
			c-2.6,0-5.1,0.3-7.6,1.1c-1.1,0.3-2.1,0.8-2.9,1.6c-0.3,0.3-0.5,0.7-0.7,1.1c-0.3,0.8,0,1.4,0.8,1.8
			C108.5,293.9,108.8,294,109.1,294.1z"/>
		<path class="st13" d="M185.6,309c0.4-0.2,0.8-0.5,1.2-0.6c1.5-0.6,3-0.6,4.5-0.3c1.9,0.3,3.7,1.1,5.4,2.1c2.1,1.2,4,2.7,5.7,4.3
			c0.4,0.4,0.8,0.9,1,1.4c0,0.1,0.1,0.3,0.1,0.4c0.2,0.8,0,1.4-0.6,1.9c-1,0.7-2.1,1.4-3.2,2c-2.5,1.2-5.1,1.4-7.8,0.7
			c-1.8-0.5-3.5-1.3-4.9-2.5c-1.8-1.6-2.9-3.6-3.1-6.1c-0.1-0.6,0-1.2,0.2-1.9c0.1-0.1,0-0.3,0-0.5c-0.1-0.6-0.3-1.2-0.4-1.8
			c-0.1-0.5-0.1-1-0.1-1.6c0-1.2,0.4-2.3,1.2-3.3c0.5-0.6,1-1.2,1.7-1.7c0.3-0.2,0.5-0.2,0.8,0.1c0.4,0.4,0.4,0.8,0.1,1.4
			c-0.5,0.7-0.9,1.4-1.3,2.2c-0.6,1-0.7,2.2-0.7,3.3C185.5,308.7,185.6,308.8,185.6,309z M202,316.5c-0.2-0.2-0.2-0.2-0.3-0.3
			c-1.6-1.4-3.2-2.6-4.9-3.7c-1.6-1-3.2-1.7-5.1-2.1c-1.4-0.3-2.9-0.4-4.4-0.1c-0.4,0.1-0.8,0.3-1.2,0.5c0.1,0.5,0.4,0.9,0.7,1.4
			c0.5,0.9,1.1,1.7,1.9,2.2c1.2,0.9,2.6,1.5,4.1,1.7c0.2,0,0.4,0.1,0.5,0.1c0.6,0.1,1.1,0.8,1.2,1.2c0.1,0.3,0,0.4-0.4,0.4
			c-0.8,0-1.6-0.1-2.4-0.4c-2-0.7-3.8-1.8-5.2-3.6c-0.5-0.6-0.9-1.3-1.3-1.9c-0.1-0.1-0.2-0.3-0.3-0.5c-0.1,0.4-0.1,0.7,0,1.1
			c0.3,1.2,0.9,2.3,1.7,3.1c2.6,2.6,5.7,3.6,9.3,3.2c1.7-0.2,3.3-0.8,4.8-1.6C201.2,317.2,201.6,316.8,202,316.5z"/>
		<path class="st20" d="M152.3,305.3c0.7-0.6,1.4-1.2,2.1-1.8c0.6-0.5,1.2-0.8,1.9-1.2c0.4-0.2,0.6-0.2,1,0.2
			c-1.2,1.2-2.6,2.2-3.7,3.6c0.8,0.7,1.4,1.5,1.8,2.4c0.9,1.9,0.9,3.8,0.1,5.7c-0.5,1.2-1.2,2.3-1.9,3.4c-0.9,1.4-1.9,2.7-3.1,3.8
			c-0.1,0.1-0.1,0.2-0.2,0.2c-0.2,0.3-0.3,0.3-0.7,0.2c-0.5-0.2-0.9-0.5-1.2-0.9c-0.5-0.6-0.9-1.2-1.3-1.9c-0.8-1.4-1.2-3-1.5-4.6
			c-0.2-1.1-0.3-2.1-0.3-3.2c0.1-2.5,1.4-4.3,3.5-5.6c0.4-0.2,0.8-0.4,1.2-0.5c0.7-0.3,1.4-0.2,2.1,0.1
			C152.2,305.2,152.3,305.3,152.3,305.3z M149.2,320.2c0,0,0.1,0,0.1,0c0.4-0.5,0.9-1,1.3-1.5c1.1-1.6,2.1-3.3,2.8-5
			c0.9-2.1,0.9-4.2-0.3-6.3c-0.1-0.1-0.1-0.2-0.2-0.3c-0.1,0.1-0.1,0.2-0.2,0.2c-0.8,1.2-1.3,2.5-1.6,3.8c0,0.2,0,0.4-0.1,0.6
			c-0.1,0.2-0.2,0.3-0.4,0.2c-0.4-0.2-0.6-0.5-0.7-0.9c0-0.3,0-0.7,0-1c0.1-0.9,0.4-1.7,0.8-2.4c0.1-0.1,0.1-0.3,0.2-0.5
			c-0.1,0.1-0.2,0.1-0.2,0.1c-1.1,0.7-1.9,1.7-2.5,2.8c-0.6,1.2-0.8,2.5-0.7,3.8c0.1,1.8,0.4,3.6,1,5.3
			C148.8,319.5,149,319.8,149.2,320.2z"/>
		<path class="st2" d="M163.4,315.1c-0.6-1.6-1.2-3.3-1.2-5.1c0-1.6,0.3-3.2,1.3-4.6c0.9-1.3,2.1-2.2,3.6-2.8
			c0.2-0.1,0.3-0.2,0.5-0.2c0.2-0.1,0.4-0.1,0.5,0.1c0.2,0.2,0.4,0.4,0.4,0.7c0,0.1,0,0.3-0.1,0.4c-0.4,0.5-0.8,1-1.3,1.5
			c-0.5,0.6-0.8,1.3-1.1,2c-0.6,1.3-0.5,2.7-0.2,4.1c0.6,2.6,2.1,4.8,3.9,6.6c0.4,0.4,0.8,0.7,1.1,1.1c0.7,0.6,1.4,1,2.3,1.3
			c0.2,0,0.3,0.1,0.5,0.1c0.3,0,0.7,0,1-0.1c0.3,0,0.6,0.1,0.8,0.4c0.1,0.2,0.3,0.5,0.3,0.7c0.1,0.4,0,0.5-0.4,0.6
			c-1,0.3-2,0.4-3,0.3c-2.5-0.3-4.7-1.3-6.5-3.1C164.8,318,164.1,316.6,163.4,315.1z"/>
		<path class="st2" d="M166.1,290.9c-0.9-1.8-1.3-3.7-1.2-5.7c0.1-1,0.3-2,0.7-2.9c0.3-0.7,0.8-1.4,1.5-1.8c1.3-0.8,2.4-0.2,3,0.7
			c0.5,0.8,0.8,1.7,0.7,2.6c-0.1,0.8-0.2,1.6-0.3,2.4c-0.1,0.8-0.3,1.6-0.4,2.4c-0.3,1.5-0.1,3,0.4,4.5c0.4,1,1.1,1.8,2.1,2.3
			c0.4,0.2,0.8,0.4,1.3,0.5c0.5,0.2,0.7,0.6,0.8,1.2c0,0.3-0.1,0.5-0.4,0.5c-0.2,0-0.4,0-0.6-0.1c-1.5-0.3-2.8-0.9-3.9-1.9
			c-1.5-1.2-2.8-2.7-3.5-4.5C166.1,291,166.1,290.9,166.1,290.9z"/>
		<path class="st13" d="M111.3,280.8c0.6,0.2,1.2,0.5,1.9,0.8c0.6,0.2,1.3,0.4,2,0.6c0.5,0.1,0.8,0.4,1,0.8c0.2,0.4,0.1,0.5-0.3,0.5
			c-1.1,0-2.1-0.2-3.1-0.6c-0.6-0.2-1.1-0.5-1.7-0.7c-0.7,0.4-1.4,0.7-2.2,0.8c-1.3,0.2-2.5-0.1-3.7-0.8c-0.8-0.4-1.4-1-2-1.6
			c-1.2-1.2-2.3-2.5-3.4-3.9c-0.2-0.3-0.5-0.6-0.7-0.9c-0.4-0.4-0.6-1-0.7-1.5c-0.1-0.8,0.1-1.3,0.9-1.7c0.6-0.2,1.1-0.5,1.7-0.6
			c1-0.2,2.1-0.3,3.1-0.3c2.6,0.1,4.6,1.3,6,3.4c0.8,1.2,1.3,2.4,1.4,3.9C111.4,279.6,111.3,280.1,111.3,280.8z M109.1,281
			c-0.2-0.1-0.3-0.2-0.3-0.2c-0.8-0.5-1.6-1.1-2.5-1.6c-0.2-0.1-0.3-0.2-0.5-0.4c-0.3-0.3-0.5-0.6-0.6-1c-0.1-0.4,0.1-0.5,0.5-0.4
			c0.1,0.1,0.2,0.1,0.4,0.2c1.1,0.6,2.1,1.3,3.2,1.9c0.1,0.1,0.3,0.2,0.5,0.3c0-0.8,0-1.4-0.1-2.1c0-0.4-0.2-0.8-0.4-1.2
			c-0.6-0.9-1.5-1.6-2.5-1.9c-2.2-0.7-4.4-0.5-6.5,0.2c-0.1,0-0.2,0.1-0.3,0.2c0.1,0.2,0.2,0.3,0.3,0.4c0.8,0.9,1.6,1.9,2.5,2.8
			c0.6,0.6,1.2,1.1,1.8,1.6c1.2,0.9,2.6,1.3,4.1,1.2C108.7,281.1,108.9,281,109.1,281z"/>
		<path class="st20" d="M176.4,289.3c-0.8-1.9-1.2-3.6-1.3-5.4c-0.1-1.9,0.7-3.4,2-4.6c1.1-1,2.5-1.7,3.9-2.3
			c0.4-0.1,0.5-0.1,0.7,0.3c0.1,0.2,0.1,0.3,0.2,0.5c0.1,0.3,0,0.5-0.3,0.7c-0.1,0.1-0.2,0.2-0.3,0.2c-1.3,0.8-2.1,2-2.7,3.3
			c-0.8,1.8-0.6,3.6,0.1,5.3c0.7,1.7,1.8,3.1,3.1,4.3c1.1,1.1,2.4,2,3.8,2.7c1,0.5,2,0.7,3,0.8c0.4,0,0.9,0.7,0.7,1.1
			c0,0.1-0.2,0.1-0.3,0.1c-0.5,0-1.1,0.1-1.6,0c-1-0.1-2-0.2-2.9-0.4c-3-0.8-5.4-2.4-7.2-4.9C177,290.4,176.6,289.7,176.4,289.3z"/>
		<path class="st13" d="M104.3,285.8c-0.3,0.1-0.5,0-0.7,0c-1.3-0.2-2.5-0.3-3.8-0.3c-0.4,0-0.8,0-1.2,0.1c0,0.2,0,0.4-0.1,0.5
			c-0.2,1.4-0.9,2.3-2.1,3c-1.3,0.7-2.7,1.1-4.2,1c-0.7,0-1.4-0.1-2.1-0.2c-0.4,0-0.9-0.1-1.3-0.1c-0.3,0-0.6-0.1-0.7-0.4
			c-0.5-0.8-0.6-1.6-0.4-2.5c0.4-1.6,1.3-2.9,2.6-3.8c0.6-0.4,1.1-0.8,1.8-1c1.3-0.6,2.7-0.4,4,0.2c0.8,0.4,1.4,0.9,2,1.5
			c0.3,0.3,0.6,0.4,1,0.4c1.4-0.1,2.7,0.2,4,0.6c0.3,0.1,0.6,0.2,0.9,0.4C104.1,285.2,104.4,285.4,104.3,285.8z M88.9,288.2
			c1.2,0.1,2.3,0.2,3.4,0.1c1.4-0.1,2.7-0.5,3.8-1.4c0.3-0.2,0.5-0.5,0.8-0.8c0.1-0.1,0.1-0.2,0.2-0.3c-0.4,0.1-0.7,0.2-1,0.3
			c-0.8,0.3-1.6,0.7-2.4,1.1c-0.1,0.1-0.3,0.1-0.4,0c-0.5-0.4-0.5-1,0.1-1.3c0.4-0.2,0.8-0.4,1.2-0.6c0.8-0.4,1.6-0.8,2.6-1
			c0,0,0.1,0,0.1-0.1c0,0,0-0.1,0-0.1c-0.1,0-0.1-0.1-0.2-0.1c-0.9-0.4-1.8-0.4-2.7-0.2c-1.6,0.3-2.9,1.1-4,2.3
			C89.6,286.6,89.2,287.3,88.9,288.2z"/>
		<path class="st20" d="M87.9,274.1c-0.1-0.2-0.2-0.5-0.2-0.7c-0.3-0.9-0.4-1.9,0-2.8c0.3-0.8,0.9-1.3,1.7-1.5c0.8-0.2,1.5,0,2,0.8
			c0.3,0.4,0.5,0.9,0.5,1.4c0,0.5-0.1,0.9-0.6,1.1c-0.5,0.2-1,0.2-1.4-0.2c-0.2-0.2-0.4-0.4-0.5-0.6c-0.7,0.4-1,1.3-0.7,2.1
			c0.1,0.4,0.4,0.7,0.6,1.1c0.8,1.1,1.8,2,3,2.6c1.9,1,3.8,1.7,5.9,1.9c0.2,0,0.4,0.1,0.6,0.2c0.1,0.2,0.1,0.3-0.1,0.4
			c-0.2,0-0.4,0-0.6,0c-1.3-0.1-2.5-0.4-3.7-0.7c-2.1-0.6-3.9-1.7-5.6-3c-0.9-0.7-1.8-1.4-2.7-2c-1.2-0.9-2.5-1.4-4-1.6
			c-0.4-0.1-0.7,0-1,0.1c0.2,0.5,0.4,0.9,0.5,1.4c0.1,0.6,0.1,1.2-0.4,1.7c0,0-0.1,0.1-0.1,0.1c-0.5,0.9-1.5,1.1-2.4,0.6
			c-0.4-0.2-0.7-0.5-0.9-0.9c-0.6-1-0.7-2-0.5-3.1c0.3-1.1,1-1.7,2.1-1.9c0.8-0.2,1.6-0.1,2.3,0c1.5,0.3,2.8,0.9,3.9,1.8
			c0.6,0.5,1.2,1,1.9,1.5C87.6,273.9,87.7,274,87.9,274.1C87.9,274.1,87.9,274.1,87.9,274.1z"/>
		<path class="st20" d="M128.1,302.7c-0.7-1.7-1-2.9-0.9-4.2c0.1-1.6,0.8-2.9,2.1-3.8c1.8-1.3,3.8-1.7,6-1.7c0.7,0,1,0.4,1.3,1.1
			c0.1,0.2-0.1,0.3-0.2,0.5c-0.6,0.6-1.2,1.1-1.8,1.7c-1.2,1.1-2.1,2.4-2.8,3.9c-0.3,0.6-0.5,1.3-0.7,2c-0.2,0.9,0,1.8,0.6,2.6
			c0.1,0.1,0.2,0.3,0.3,0.5c0.1,0.3,0.2,0.5,0.3,0.8c0,0.2-0.1,0.3-0.3,0.3c-0.3,0-0.6-0.1-0.8-0.3
			C129.6,305,128.6,303.8,128.1,302.7z"/>
		<path class="st13" d="M159,290.7c0.4,0.5,0.8,0.9,1.1,1.4c0.3,0.3,0.5,0.6,0.8,0.9c0.2,0.3,0.4,0.6,0.2,1c-0.2,0-0.4-0.1-0.5-0.2
			c-0.9-0.7-1.6-1.4-2.2-2.3c-0.2-0.2-0.4-0.4-0.7-0.5c-1.3-0.6-2.3-1.5-3.1-2.7c-1.4-2-1.9-4.3-1.9-6.7c0-1.4,0.3-2.7,0.5-4
			c0.1-0.5,0.4-0.8,1-0.9c0.8-0.1,1.6,0.1,2.3,0.5c1,0.6,1.9,1.5,2.5,2.5c1.2,1.8,1.9,3.8,1.9,6c0,1.4-0.4,2.6-1,3.8
			C159.5,289.9,159.3,290.2,159,290.7z M157.8,288.7c0,0,0.1,0,0.1,0c0.1-0.1,0.2-0.3,0.2-0.4c0.7-1,1.1-2.2,1.2-3.5
			c0-0.3,0-0.7,0-1c-0.4-1.9-1.4-3.3-3.1-4.3c-0.5-0.3-1-0.4-1.6-0.4c-0.4,0-0.4,0.1-0.5,0.4c-0.1,1-0.3,1.9-0.3,2.9
			c-0.1,2.3,0.7,4.3,2.4,5.9c0.1,0.1,0.2,0.3,0.4,0.3c-0.4-1-0.5-2-0.7-3.1c0-0.2,0-0.4,0-0.5c0.1-0.3,0.3-0.4,0.6-0.2
			c0.2,0.2,0.3,0.5,0.4,0.7c0.2,0.7,0.3,1.3,0.5,2C157.6,288,157.7,288.4,157.8,288.7z"/>
		<path class="st2" d="M143.6,303.9c0.1,0.3,0.3,0.5,0.4,0.8c0.5,1.5,0.2,2.8-0.9,4c-0.9,1-1.9,1.7-3.1,2.1c-0.9,0.3-1.8,0.6-2.8,1
			c-0.3,0.1-0.6,0.1-0.9-0.1c-0.6-0.4-1-0.9-1-1.7c0-0.3,0-0.6,0-0.9c0.3-2.3,1.3-4.2,3.1-5.7c0.9-0.7,2-1,3.1-0.6
			c0.4,0.1,0.7,0,1-0.2c1.3-1.1,2.8-1.8,4.4-2.2c0.2,0,0.4-0.1,0.6-0.1c0.3,0,0.5,0.1,0.7,0.3c0.3,0.2,0.2,0.4-0.1,0.6
			c-0.5,0.3-1,0.5-1.5,0.7C145.6,302.3,144.6,303.1,143.6,303.9z M136.8,310.2c0.8-0.3,1.5-0.6,2.2-0.9c0.8-0.3,1.5-0.8,2.1-1.4
			c0.7-0.6,1.2-1.3,1.4-2.2c0.1-0.3,0.1-0.5,0.1-0.8c0,0-0.1,0-0.1,0c-0.7,0.9-1.3,1.8-2,2.7c-0.2-0.1-0.4-0.2-0.6-0.3
			c-0.4-0.3-0.4-0.6-0.2-1c0.4-0.7,0.8-1.3,1.2-1.9c0.1-0.1,0.1-0.2,0.2-0.3C139.3,304.4,136.7,308.1,136.8,310.2z"/>
		<path class="st2" d="M147.2,287.2c0.3,0.7,0.7,1.3,1.2,1.9c0.1,0.1,0.2,0.3,0.3,0.4c0.1,0.2,0.2,0.3,0.3,0.5
			c0.1,0.2,0.1,0.5-0.1,0.6c-0.2,0.1-0.4-0.1-0.5-0.2c-0.9-0.8-1.5-1.7-2.1-2.7c-0.1-0.2-0.2-0.3-0.5-0.4c-0.8-0.2-1.4-0.7-1.8-1.4
			c-0.7-1.1-1.2-2.3-1.5-3.6c-0.2-1.1-0.3-2.2-0.4-3.4c0-0.3,0-0.6,0.1-0.9c0.1-0.6,0.5-0.9,1.1-1c0.7-0.1,1.3,0,1.9,0.4
			c0.9,0.5,1.6,1.2,2.1,2.1c1,1.8,1.3,3.7,0.9,5.7C148.1,285.9,147.8,286.6,147.2,287.2z M146.4,285.4c0.2-0.4,0.4-0.8,0.6-1.1
			c0.4-1,0.4-2-0.3-3c-0.6-0.8-1.3-1.4-2.3-1.6c-0.4-0.1-0.8-0.1-1.1,0.1c0,0.1,0,0.2,0,0.3c0,1.1,0.2,2.1,0.5,3.1
			c0.3,0.8,0.6,1.5,1.2,2.1c0.1,0.1,0.2,0.3,0.4,0.3c-0.1-0.5-0.2-1-0.3-1.5c-0.1-0.3-0.1-0.6-0.1-0.9c0-0.1,0.1-0.3,0.2-0.3
			c0.1,0,0.3,0.1,0.4,0.2c0.2,0.3,0.3,0.6,0.4,0.9C146.1,284.3,146.2,284.8,146.4,285.4z"/>
		<path class="st20" d="M176.7,312.1c-0.1-0.4-0.2-0.7-0.2-1c0-0.3,0-0.7,0.2-1c0.3-0.7,1.1-1,1.8-0.7c1.3,0.5,2,2.2,1.6,3.5
			c-0.2,0.7-0.7,1.1-1.4,1.2c-1.4,0.4-3.2-0.1-4.3-1.5c-1.6-2.1-1.2-4.7-0.3-6.3c0.4-0.7,1-1.2,1.6-1.7c0.6-0.5,1.3-1,1.9-1.4
			c0.2-0.1,0.4-0.2,0.6-0.3c0.3-0.1,0.7,0.1,0.8,0.4c0,0.1,0,0.3-0.1,0.4c-0.2,0.2-0.4,0.3-0.6,0.5c-0.9,0.7-1.6,1.6-2.3,2.5
			c-0.7,1-1,2.1-0.8,3.4c0.1,0.5,0.3,1,0.5,1.5C176,311.8,176.3,312,176.7,312.1z"/>
		<path class="st2" d="M119.3,280.3c-0.5-1.1-0.7-2.2-0.5-3.4c0.2-1.1,0.9-1.9,1.9-2.5c0.2-0.1,0.5-0.1,0.7,0
			c0.6,0.3,1.1,0.8,1.2,1.4c0.1,0.5,0.1,1,0,1.5c-0.1,1-0.1,2,0,3c0.1,0.6,0.3,1.1,0.6,1.5c0.5,0.8,1.1,1.6,1.7,2.4
			c0.1,0.2,0.2,0.3,0.3,0.5c0.1,0.3,0,0.5-0.3,0.4c-0.4-0.1-0.8-0.3-1.1-0.5c-0.3-0.2-0.6-0.4-1-0.5
			C121.2,283.2,120,281.9,119.3,280.3z"/>
		<path class="st13" d="M126.6,294.2c-0.5,0.2-1,0.3-1.4,0.5c-0.7,0.3-1.4,0.6-2.1,0.8c-0.7,0.3-1.3,0.7-1.7,1.3
			c-0.3,0.5-0.6,1-0.9,1.5c-0.2,0.4-0.3,0.4-0.7,0.2c-0.5-0.2-0.8-0.6-1-1.2c-0.3-1.5,0.1-3.2,1.6-4.1c0.6-0.4,1.2-0.8,2-0.9
			c1.1-0.2,2.2-0.1,3.1,0.6c0.3,0.2,0.6,0.5,0.9,0.8C126.5,293.9,126.5,294,126.6,294.2z"/>
		<path class="st20" d="M209.4,290.3c0.2,0.1,0.3,0.2,0.4,0.3c0.3,0.3,0.4,0.5,0.3,0.9c0,0,0,0.1,0,0.1c-0.4,0.9-0.2,1.8,0.3,2.7
			c0.2,0.4,0.5,0.6,0.9,0.8c0.5,0.2,1,0.4,1.5,0.6c0.5,0.2,0.8,0.5,1.1,0.9c0.1,0.2,0.2,0.4,0.3,0.6c0.1,0.4-0.1,0.7-0.5,0.7
			c-0.3,0-0.5,0-0.8-0.1c-2.2-0.5-3.9-2.5-4.1-4.7C208.6,292.1,208.9,291.2,209.4,290.3z"/>
	</g>
	<g>
		<path class="st2" d="M322.9,294.1c0-0.2,0.1-0.4,0.1-0.5c0.1-0.5-0.1-0.9-0.4-1.2c-0.3-0.4-0.9-0.5-1.3-0.2
			c-0.3,0.2-0.7,0.5-0.9,0.8c-0.4,0.6-0.5,1.4-0.3,2.1c0.2,0.6,0.6,1.1,1.3,1.2c1.4,0.2,2.4-0.3,3.2-1.4c0.6-0.8,1-1.8,1.2-2.8
			c0.2-1.6-0.3-2.8-1.6-3.7c-1.3-0.9-2.7-1.6-4.2-2c-2.9-0.8-5.8-1-8.7-0.7c-3.3,0.3-6.4,0.9-9.5,1.8c-1.1,0.3-2.3,0.7-3.4,1
			c-0.1,0-0.2,0-0.4,0.1c0.2-0.2,0.3-0.3,0.4-0.5c2.1-2.3,3.4-4.9,3.6-8c0.1-1.1-0.1-2.2-0.5-3.2c-0.8-1.7-2.5-2.6-4.3-2.2
			c-1.3,0.2-2.6,1.2-2.8,3c0,0.6,0,1.2,0.1,1.7c0.1,0.5,0.4,0.9,0.8,1.2c0.7,0.5,1.6,0.3,2-0.5c0.2-0.5,0.3-1,0.2-1.5
			c0-0.1,0-0.3-0.1-0.4c1-0.1,1.8,0,2.6,0.6c0.4,0.3,0.5,0.6,0.5,1.1c0,1-0.3,1.9-0.7,2.8c-0.8,1.8-1.9,3.3-3.4,4.6
			c-1.3,1.2-2.8,2.1-4.3,3.1c-0.1,0.1-0.3,0.2-0.5,0.2c-4.4,1.4-8.7,2.8-13.1,4.3c-4.1,1.3-8.3,2.2-12.6,2.8
			c-5.2,0.8-10.4,1.1-15.7,0.9c-3.9-0.1-7.7-0.6-11.4-1.6c-1.5-0.4-3-0.9-4.4-1.6c-0.2-0.1-0.3-0.1-0.4-0.3c0.1,0,0.2,0,0.3,0
			c3.3-0.3,5.9-1.7,7.6-4.6c0.6-1,1-2.1,1.2-3.3c0.3-1.5-0.1-2.9-1.1-4.1c-1.2-1.4-3.1-1.8-4.8-1c-1.5,0.8-2.3,2-2.5,3.7
			c-0.2,1.7,1.2,3,2.6,3.1c0.6,0,1.2-0.2,1.6-0.6c0.7-0.6,1.1-1.3,1.3-2.1c0-0.1,0-0.2,0.1-0.3c0.4,0.3,0.6,0.6,0.7,1
			c0.3,1.3,0.1,2.4-0.7,3.4c-0.8,0.9-1.8,1.5-2.9,2c-2.4,1-4.8,1-7.3,0.3c-0.8-0.2-1.5-0.7-2.2-1.1c-1.2-0.8-2.1-1.8-3-2.8
			c-0.7-0.7-1.3-1.5-2-2.2c-0.3-0.3-0.3-0.3-0.6-0.1c-0.1,0.1-0.3,0.1-0.4,0.2c-0.2,0.1-0.3,0.3-0.2,0.5c0.1,0.2,0.2,0.3,0.3,0.5
			c0.5,0.9,1.2,1.6,1.9,2.3c1.3,1.3,2.7,2.4,4.2,3.4c0.6,0.4,1.2,0.9,1.9,1.3c0.5,0.4,0.9,0.9,1.2,1.4c0.4,0.6,0.8,1.3,1.1,2
			c0.3,0.7,0.3,1.4,0.3,2.2c0.1,1.7-0.6,2.9-1.7,4.1c-1.7,1.7-4.4,1.4-5.8,0.3c-0.1-0.1-0.2-0.2-0.3-0.3c0.1-0.1,0.1-0.2,0.2-0.2
			c0.6-0.5,0.9-1.2,1.3-2c0.4-0.8,0.1-1.5-0.7-1.9c-1.1-0.6-2.1-0.5-3.1,0.1c-1.3,0.8-2.1,1.9-2.3,3.4c-0.3,1.9,0.5,2.9,1.9,3.6
			c1.3,0.6,2.6,0.8,4,0.6c2.6-0.4,4.9-1.5,6.5-3.7c0.1-0.1,0.2-0.2,0.3-0.3c0,0,0,0,0.1,0c-0.1,0.5-0.1,0.9-0.3,1.4
			c-0.3,0.9-0.7,1.8-1.3,2.5c-0.5,0.8-1.2,1.4-1.9,2.1c-0.8,0.7-1.7,1.1-2.7,1.4c-1.6,0.4-3.3,0.3-4.9-0.1c-0.5-0.1-1.1-0.2-1.6-0.3
			c-0.3-0.1-0.7-0.1-1-0.1c-1,0-1.8,0.6-2.2,1.5c-0.3,0.8-0.1,1.5,0.7,1.9c0.3,0.2,0.7,0.3,1,0.4c1.5,0.3,2.9,0.5,4.4,0.3
			c1.8-0.2,3.5-0.9,5-1.9c2.6-1.7,4.6-4,5.8-6.9c0.9-2.2,1.3-4.5,1.3-6.8c0-0.6-0.1-1.2-0.2-1.8c0.1,0,0.2,0,0.2,0.1
			c1.6,0.7,3.3,1.1,4.9,1.7c6.3,2.1,12.9,2.6,19.5,2.5c6.5-0.1,12.9-1.3,19.2-3.1c4.1-1.2,8.1-2.7,12.1-4.3c4.9-2,9.8-3.6,14.9-4.8
			c2.4-0.6,4.9-1,7.4-1c2.6,0,5.1,0.3,7.6,1.1c1.1,0.3,2.1,0.8,2.9,1.6c0.3,0.3,0.5,0.7,0.7,1.1c0.3,0.8,0,1.4-0.8,1.8
			C323.5,293.9,323.2,294,322.9,294.1z"/>
		<path class="st13" d="M246.5,308.5c0.1-1.2-0.1-2.3-0.7-3.3c-0.4-0.7-0.9-1.5-1.3-2.2c-0.4-0.5-0.4-0.9,0.1-1.4
			c0.3-0.3,0.5-0.3,0.8-0.1c0.7,0.4,1.2,1,1.7,1.7c0.8,1,1.2,2.1,1.2,3.3c0,0.5,0,1-0.1,1.6c-0.1,0.6-0.3,1.2-0.4,1.8
			c0,0.2-0.1,0.3,0,0.5c0.2,0.6,0.3,1.2,0.2,1.9c-0.2,2.4-1.3,4.5-3.1,6.1c-1.4,1.3-3.1,2.1-4.9,2.5c-2.7,0.7-5.3,0.5-7.8-0.7
			c-1.1-0.5-2.2-1.2-3.2-2c-0.6-0.4-0.9-1.1-0.6-1.9c0-0.1,0.1-0.3,0.1-0.4c0.2-0.6,0.6-1,1-1.4c1.8-1.6,3.7-3.1,5.7-4.3
			c1.7-1,3.5-1.7,5.4-2.1c1.5-0.3,3-0.3,4.5,0.3c0.4,0.2,0.8,0.4,1.2,0.6C246.4,308.8,246.5,308.7,246.5,308.5z M231.2,317.4
			c1.5,0.8,3.1,1.4,4.8,1.6c3.6,0.3,6.8-0.6,9.3-3.2c0.9-0.9,1.5-1.9,1.7-3.1c0.1-0.3,0.1-0.6,0-1.1c-0.1,0.2-0.2,0.4-0.3,0.5
			c-0.4,0.6-0.8,1.3-1.3,1.9c-1.3,1.8-3.1,2.9-5.2,3.6c-0.8,0.3-1.6,0.4-2.4,0.4c-0.3,0-0.4-0.1-0.4-0.4c0.1-0.4,0.5-1.2,1.2-1.2
			c0.2,0,0.4-0.1,0.5-0.1c1.5-0.2,2.9-0.9,4.1-1.7c0.8-0.6,1.4-1.4,1.9-2.2c0.3-0.4,0.5-0.9,0.7-1.4c-0.4-0.3-0.8-0.4-1.2-0.5
			c-1.5-0.4-2.9-0.3-4.4,0.1c-1.8,0.4-3.5,1.1-5.1,2.1c-1.8,1.1-3.4,2.4-4.9,3.7c-0.1,0.1-0.2,0.2-0.3,0.3
			C230.4,316.8,230.8,317.2,231.2,317.4z"/>
		<path class="st20" d="M279.9,305.2c0.7-0.3,1.4-0.3,2.1-0.1c0.4,0.2,0.8,0.3,1.2,0.5c2.1,1.3,3.4,3.1,3.5,5.6
			c0.1,1.1-0.1,2.1-0.3,3.2c-0.3,1.6-0.7,3.2-1.5,4.6c-0.4,0.7-0.8,1.3-1.3,1.9c-0.3,0.4-0.7,0.7-1.2,0.9c-0.4,0.1-0.5,0.1-0.7-0.2
			c-0.1-0.1-0.1-0.2-0.2-0.2c-1.2-1.1-2.2-2.4-3.1-3.8c-0.7-1.1-1.4-2.2-1.9-3.4c-0.8-1.9-0.8-3.8,0.1-5.7c0.4-0.9,1-1.7,1.8-2.4
			c-1.1-1.4-2.5-2.4-3.7-3.6c0.4-0.4,0.6-0.4,1-0.2c0.7,0.3,1.3,0.7,1.9,1.2c0.7,0.6,1.4,1.2,2.1,1.8
			C279.7,305.3,279.8,305.2,279.9,305.2z M283.3,319.1c0.7-1.7,1-3.5,1-5.3c0.1-1.3-0.1-2.6-0.7-3.8c-0.6-1.2-1.4-2.1-2.5-2.8
			c0,0-0.1-0.1-0.2-0.1c0.1,0.2,0.2,0.3,0.2,0.5c0.4,0.8,0.7,1.6,0.8,2.4c0,0.3,0,0.7,0,1c-0.1,0.4-0.3,0.7-0.7,0.9
			c-0.2,0.1-0.3,0-0.4-0.2c0-0.2-0.1-0.4-0.1-0.6c-0.3-1.4-0.8-2.7-1.6-3.8c0-0.1-0.1-0.1-0.2-0.2c-0.1,0.1-0.2,0.2-0.2,0.3
			c-1.1,2-1.2,4.2-0.3,6.3c0.8,1.8,1.7,3.5,2.8,5c0.4,0.5,0.9,1,1.3,1.5c0,0,0.1,0,0.1,0C283,319.8,283.2,319.5,283.3,319.1z"/>
		<path class="st2" d="M268.6,315.1c0.6-1.6,1.2-3.3,1.2-5.1c0-1.6-0.3-3.2-1.3-4.6c-0.9-1.3-2.1-2.2-3.6-2.8
			c-0.2-0.1-0.3-0.2-0.5-0.2c-0.2-0.1-0.4-0.1-0.5,0.1c-0.2,0.2-0.4,0.4-0.4,0.7c0,0.1,0,0.3,0.1,0.4c0.4,0.5,0.8,1,1.3,1.5
			c0.5,0.6,0.8,1.3,1.1,2c0.6,1.3,0.5,2.7,0.2,4.1c-0.6,2.6-2.1,4.8-3.9,6.6c-0.4,0.4-0.8,0.7-1.1,1.1c-0.7,0.6-1.4,1-2.3,1.3
			c-0.2,0-0.3,0.1-0.5,0.1c-0.3,0-0.7,0-1-0.1c-0.3,0-0.6,0.1-0.8,0.4c-0.1,0.2-0.3,0.5-0.3,0.7c-0.1,0.4,0,0.5,0.4,0.6
			c1,0.3,2,0.4,3,0.3c2.5-0.3,4.7-1.3,6.5-3.1C267.2,318,267.9,316.6,268.6,315.1z"/>
		<path class="st2" d="M265.9,290.9c0.9-1.8,1.3-3.7,1.2-5.7c-0.1-1-0.3-2-0.7-2.9c-0.3-0.7-0.8-1.4-1.5-1.8c-1.3-0.8-2.4-0.2-3,0.7
			c-0.5,0.8-0.8,1.7-0.7,2.6c0.1,0.8,0.2,1.6,0.3,2.4c0.1,0.8,0.3,1.6,0.4,2.4c0.3,1.5,0.1,3-0.4,4.5c-0.4,1-1.1,1.8-2.1,2.3
			c-0.4,0.2-0.8,0.4-1.3,0.5c-0.5,0.2-0.7,0.6-0.8,1.2c0,0.3,0.1,0.5,0.4,0.5c0.2,0,0.4,0,0.6-0.1c1.5-0.3,2.8-0.9,3.9-1.9
			c1.5-1.2,2.8-2.7,3.5-4.5C265.9,291,265.9,290.9,265.9,290.9z"/>
		<path class="st13" d="M320.7,279c0.1-1.4,0.6-2.7,1.4-3.9c1.4-2.1,3.4-3.3,6-3.4c1,0,2.1,0,3.1,0.3c0.6,0.1,1.2,0.4,1.7,0.6
			c0.8,0.3,1,0.9,0.9,1.7c-0.1,0.6-0.3,1.1-0.7,1.5c-0.3,0.3-0.5,0.6-0.7,0.9c-1.1,1.3-2.2,2.6-3.4,3.9c-0.6,0.6-1.3,1.1-2,1.6
			c-1.1,0.6-2.4,0.9-3.7,0.8c-0.8-0.1-1.5-0.4-2.2-0.8c-0.6,0.2-1.2,0.5-1.7,0.7c-1,0.4-2.1,0.6-3.1,0.6c-0.4,0-0.5-0.1-0.3-0.5
			c0.2-0.4,0.5-0.7,1-0.8c0.7-0.2,1.3-0.3,2-0.6c0.6-0.2,1.3-0.5,1.9-0.8C320.7,280.1,320.6,279.6,320.7,279z M323.4,281.1
			c1.5,0.1,2.9-0.3,4.1-1.2c0.6-0.5,1.3-1,1.8-1.6c0.9-0.9,1.7-1.9,2.5-2.8c0.1-0.1,0.2-0.2,0.3-0.4c-0.1-0.1-0.2-0.2-0.3-0.2
			c-2.1-0.8-4.3-0.9-6.5-0.2c-1.1,0.3-1.9,0.9-2.5,1.9c-0.2,0.4-0.4,0.8-0.4,1.2c0,0.7,0,1.3-0.1,2.1c0.2-0.1,0.3-0.2,0.5-0.3
			c1.1-0.6,2.1-1.3,3.2-1.9c0.1-0.1,0.2-0.1,0.4-0.2c0.3-0.2,0.5,0,0.5,0.4c-0.1,0.4-0.3,0.8-0.6,1c-0.1,0.1-0.3,0.2-0.5,0.4
			c-0.8,0.5-1.6,1.1-2.5,1.6c-0.1,0.1-0.2,0.1-0.3,0.2C323.1,281,323.3,281.1,323.4,281.1z"/>
		<path class="st20" d="M255.6,289.3c0.8-1.9,1.2-3.6,1.3-5.4c0.1-1.9-0.7-3.4-2-4.6c-1.1-1-2.5-1.7-3.9-2.3
			c-0.4-0.1-0.5-0.1-0.7,0.3c-0.1,0.2-0.1,0.3-0.2,0.5c-0.1,0.3,0,0.5,0.3,0.7c0.1,0.1,0.2,0.2,0.3,0.2c1.3,0.8,2.1,2,2.7,3.3
			c0.8,1.8,0.6,3.6-0.1,5.3c-0.7,1.7-1.8,3.1-3.1,4.3c-1.1,1.1-2.4,2-3.8,2.7c-1,0.5-2,0.7-3,0.8c-0.4,0-0.9,0.7-0.7,1.1
			c0,0.1,0.2,0.1,0.3,0.1c0.5,0,1.1,0.1,1.6,0c1-0.1,2-0.2,2.9-0.4c3-0.8,5.4-2.4,7.2-4.9C255,290.4,255.4,289.7,255.6,289.3z"/>
		<path class="st13" d="M328.2,285c0.3-0.2,0.6-0.3,0.9-0.4c1.3-0.4,2.6-0.7,4-0.6c0.4,0,0.7-0.1,1-0.4c0.6-0.6,1.2-1.1,2-1.5
			c1.3-0.6,2.6-0.8,4-0.2c0.6,0.3,1.2,0.6,1.8,1c1.3,1,2.1,2.2,2.6,3.8c0.2,0.9,0.1,1.7-0.4,2.5c-0.2,0.3-0.4,0.4-0.7,0.4
			c-0.4,0-0.9,0.1-1.3,0.1c-0.7,0.1-1.4,0.2-2.1,0.2c-1.5,0.1-2.9-0.2-4.2-1c-1.2-0.7-1.9-1.6-2.1-3c0-0.2,0-0.3-0.1-0.5
			c-0.4,0-0.8-0.1-1.2-0.1c-1.3,0-2.6,0.1-3.8,0.3c-0.2,0-0.5,0.1-0.7,0C327.6,285.4,327.9,285.2,328.2,285z M341.8,286.1
			c-1.1-1.1-2.4-1.9-4-2.3c-0.9-0.2-1.8-0.2-2.7,0.2c-0.1,0-0.1,0.1-0.2,0.1c0,0,0,0,0,0.1c0,0,0.1,0.1,0.1,0.1
			c0.9,0.2,1.7,0.6,2.6,1c0.4,0.2,0.8,0.4,1.2,0.6c0.6,0.3,0.6,0.9,0.1,1.3c-0.1,0.1-0.2,0.1-0.4,0c-0.8-0.4-1.6-0.7-2.4-1.1
			c-0.3-0.1-0.6-0.2-1-0.3c0.1,0.2,0.1,0.3,0.2,0.3c0.3,0.3,0.5,0.5,0.8,0.8c1.1,0.9,2.4,1.3,3.8,1.4c1.1,0.1,2.2,0,3.4-0.1
			C342.8,287.3,342.4,286.6,341.8,286.1z"/>
		<path class="st20" d="M344.1,274.1c0.1-0.2,0.2-0.5,0.2-0.7c0.3-0.9,0.4-1.9,0-2.8c-0.3-0.8-0.9-1.3-1.7-1.5c-0.8-0.2-1.5,0-2,0.8
			c-0.3,0.4-0.5,0.9-0.5,1.4c0,0.5,0.1,0.9,0.6,1.1c0.5,0.2,1,0.2,1.4-0.2c0.2-0.2,0.4-0.4,0.5-0.6c0.7,0.4,1,1.3,0.7,2.1
			c-0.1,0.4-0.4,0.7-0.6,1.1c-0.8,1.1-1.8,2-3,2.6c-1.9,1-3.8,1.7-5.9,1.9c-0.2,0-0.4,0.1-0.6,0.2c-0.1,0.2-0.1,0.3,0.1,0.4
			c0.2,0,0.4,0,0.6,0c1.3-0.1,2.5-0.4,3.7-0.7c2.1-0.6,3.9-1.7,5.6-3c0.9-0.7,1.8-1.4,2.7-2c1.2-0.9,2.5-1.4,4-1.6
			c0.4-0.1,0.7,0,1,0.1c-0.2,0.5-0.4,0.9-0.5,1.4c-0.1,0.6-0.1,1.2,0.4,1.7c0,0,0.1,0.1,0.1,0.1c0.5,0.9,1.5,1.1,2.4,0.6
			c0.4-0.2,0.7-0.5,0.9-0.9c0.6-1,0.7-2,0.5-3.1c-0.3-1.1-1-1.7-2.1-1.9c-0.8-0.2-1.6-0.1-2.3,0c-1.5,0.3-2.8,0.9-3.9,1.8
			c-0.6,0.5-1.2,1-1.9,1.5C344.4,273.9,344.3,274,344.1,274.1C344.1,274.1,344.1,274.1,344.1,274.1z"/>
		<path class="st20" d="M303.9,302.7c0.7-1.7,1-2.9,0.9-4.2c-0.1-1.6-0.8-2.9-2.1-3.8c-1.8-1.3-3.8-1.7-6-1.7c-0.7,0-1,0.4-1.3,1.1
			c-0.1,0.2,0.1,0.3,0.2,0.5c0.6,0.6,1.2,1.1,1.8,1.7c1.2,1.1,2.1,2.4,2.8,3.9c0.3,0.6,0.5,1.3,0.7,2c0.2,0.9,0,1.8-0.6,2.6
			c-0.1,0.1-0.2,0.3-0.3,0.5c-0.1,0.3-0.2,0.5-0.3,0.8c0,0.2,0.1,0.3,0.3,0.3c0.3,0,0.6-0.1,0.8-0.3
			C302.4,305,303.4,303.8,303.9,302.7z"/>
		<path class="st13" d="M272.3,289.6c-0.6-1.2-1-2.5-1-3.8c0-2.2,0.7-4.2,1.9-6c0.7-1,1.5-1.8,2.5-2.5c0.7-0.4,1.5-0.6,2.3-0.5
			c0.5,0.1,0.9,0.4,1,0.9c0.3,1.3,0.5,2.6,0.5,4c0,2.4-0.5,4.6-1.9,6.7c-0.8,1.2-1.8,2.2-3.1,2.7c-0.3,0.1-0.5,0.3-0.7,0.5
			c-0.6,0.9-1.4,1.6-2.2,2.3c-0.2,0.1-0.3,0.3-0.5,0.2c-0.2-0.4-0.1-0.7,0.2-1c0.2-0.3,0.5-0.6,0.8-0.9c0.4-0.5,0.8-0.9,1.1-1.4
			C272.7,290.2,272.5,289.9,272.3,289.6z M274.5,287.6c0.2-0.7,0.3-1.3,0.5-2c0.1-0.3,0.2-0.5,0.4-0.7c0.2-0.3,0.5-0.2,0.6,0.2
			c0,0.2,0,0.4,0,0.5c-0.2,1-0.3,2.1-0.7,3.1c0.2,0,0.3-0.2,0.4-0.3c1.7-1.6,2.5-3.6,2.4-5.9c0-1-0.2-1.9-0.3-2.9
			c0-0.3-0.1-0.4-0.5-0.4c-0.6,0-1.1,0.1-1.6,0.4c-1.6,1-2.7,2.4-3.1,4.3c-0.1,0.3-0.1,0.7,0,1c0.1,1.2,0.5,2.4,1.2,3.5
			c0.1,0.1,0.2,0.2,0.2,0.4c0,0,0.1,0,0.1,0C274.3,288.4,274.4,288,274.5,287.6z"/>
		<path class="st2" d="M285.3,301.8c-0.5-0.2-1-0.5-1.5-0.7c-0.3-0.2-0.3-0.3-0.1-0.6c0.2-0.2,0.4-0.3,0.7-0.3c0.2,0,0.4,0,0.6,0.1
			c1.6,0.4,3.1,1.1,4.4,2.2c0.3,0.3,0.6,0.3,1,0.2c1.1-0.3,2.2-0.1,3.1,0.6c1.9,1.4,2.8,3.4,3.1,5.7c0,0.3,0,0.6,0,0.9
			c0,0.7-0.4,1.3-1,1.7c-0.3,0.2-0.6,0.2-0.9,0.1c-0.9-0.3-1.9-0.6-2.8-1c-1.2-0.4-2.2-1.2-3.1-2.1c-1-1.2-1.4-2.5-0.9-4
			c0.1-0.3,0.2-0.5,0.4-0.8C287.4,303.1,286.4,302.3,285.3,301.8z M290.9,304.1c0.1,0.1,0.1,0.2,0.2,0.3c0.4,0.6,0.8,1.3,1.2,1.9
			c0.3,0.4,0.2,0.7-0.2,1c-0.2,0.1-0.4,0.2-0.6,0.3c-0.7-0.9-1.4-1.8-2-2.7c0,0-0.1,0-0.1,0c0,0.3,0,0.5,0.1,0.8
			c0.2,0.9,0.7,1.6,1.4,2.2c0.6,0.6,1.3,1.1,2.1,1.4c0.7,0.3,1.4,0.6,2.2,0.9C295.3,308.1,292.7,304.4,290.9,304.1z"/>
		<path class="st2" d="M283.7,285.1c-0.4-2-0.2-3.9,0.9-5.7c0.5-0.9,1.2-1.6,2.1-2.1c0.6-0.3,1.2-0.5,1.9-0.4c0.6,0.1,0.9,0.4,1.1,1
			c0.1,0.3,0.1,0.6,0.1,0.9c-0.1,1.1-0.1,2.3-0.4,3.4c-0.3,1.3-0.7,2.5-1.5,3.6c-0.4,0.7-1,1.2-1.8,1.4c-0.3,0.1-0.4,0.2-0.5,0.4
			c-0.6,1-1.2,2-2.1,2.7c-0.1,0.1-0.3,0.4-0.5,0.2c-0.2-0.1-0.1-0.4-0.1-0.6c0.1-0.2,0.2-0.4,0.3-0.5c0.1-0.1,0.2-0.3,0.3-0.4
			c0.5-0.6,0.9-1.2,1.2-1.9C284.2,286.6,283.9,285.9,283.7,285.1z M286.1,283.9c0.1-0.3,0.2-0.6,0.4-0.9c0.1-0.1,0.3-0.2,0.4-0.2
			c0.1,0,0.2,0.2,0.2,0.3c0,0.3,0,0.6-0.1,0.9c-0.1,0.5-0.2,1-0.3,1.5c0.2,0,0.3-0.1,0.4-0.3c0.6-0.6,0.9-1.3,1.2-2.1
			c0.4-1,0.6-2,0.5-3.1c0-0.1,0-0.2,0-0.3c-0.4-0.2-0.8-0.2-1.1-0.1c-1,0.2-1.7,0.8-2.3,1.6c-0.7,0.9-0.7,1.9-0.3,3
			c0.2,0.4,0.3,0.7,0.6,1.1C285.8,284.8,285.9,284.3,286.1,283.9z"/>
		<path class="st20" d="M255.3,312.1c0.1-0.4,0.2-0.7,0.2-1c0-0.3,0-0.7-0.2-1c-0.3-0.7-1.1-1-1.8-0.7c-1.3,0.5-2,2.2-1.6,3.5
			c0.2,0.7,0.7,1.1,1.4,1.2c1.4,0.4,3.2-0.1,4.3-1.5c1.6-2.1,1.2-4.7,0.3-6.3c-0.4-0.7-1-1.2-1.6-1.7c-0.6-0.5-1.3-1-1.9-1.4
			c-0.2-0.1-0.4-0.2-0.6-0.3c-0.3-0.1-0.7,0.1-0.8,0.4c0,0.1,0,0.3,0.1,0.4c0.2,0.2,0.4,0.3,0.6,0.5c0.9,0.7,1.6,1.6,2.3,2.5
			c0.7,1,1,2.1,0.8,3.4c-0.1,0.5-0.3,1-0.5,1.5C256,311.8,255.7,312,255.3,312.1z"/>
		<path class="st2" d="M312.7,280.3c0.5-1.1,0.7-2.2,0.5-3.4c-0.2-1.1-0.9-1.9-1.9-2.5c-0.2-0.1-0.5-0.1-0.7,0
			c-0.6,0.3-1.1,0.8-1.2,1.4c-0.1,0.5-0.1,1,0,1.5c0.1,1,0.1,2,0,3c-0.1,0.6-0.3,1.1-0.6,1.5c-0.5,0.8-1.1,1.6-1.7,2.4
			c-0.1,0.2-0.2,0.3-0.3,0.5c-0.1,0.3,0,0.5,0.3,0.4c0.4-0.1,0.8-0.3,1.1-0.5c0.3-0.2,0.6-0.4,1-0.5
			C310.8,283.2,312,281.9,312.7,280.3z"/>
		<path class="st13" d="M305.4,294.2c0.5,0.2,1,0.3,1.4,0.5c0.7,0.3,1.4,0.6,2.1,0.8c0.7,0.3,1.3,0.7,1.7,1.3c0.3,0.5,0.6,1,0.9,1.5
			c0.2,0.4,0.3,0.4,0.7,0.2c0.5-0.2,0.8-0.6,1-1.2c0.3-1.5-0.1-3.2-1.6-4.1c-0.6-0.4-1.2-0.8-2-0.9c-1.1-0.2-2.2-0.1-3.1,0.6
			c-0.3,0.2-0.6,0.5-0.9,0.8C305.5,293.9,305.5,294,305.4,294.2z"/>
		<path class="st20" d="M222.6,290.3c-0.2,0.1-0.3,0.2-0.4,0.3c-0.3,0.3-0.4,0.5-0.3,0.9c0,0,0,0.1,0,0.1c0.4,0.9,0.2,1.8-0.3,2.7
			c-0.2,0.4-0.5,0.6-0.9,0.8c-0.5,0.2-1,0.4-1.5,0.6c-0.5,0.2-0.8,0.5-1.1,0.9c-0.1,0.2-0.2,0.4-0.3,0.6c-0.1,0.4,0.1,0.7,0.5,0.7
			c0.3,0,0.5,0,0.8-0.1c2.2-0.5,3.9-2.5,4.1-4.7C223.4,292.1,223.1,291.2,222.6,290.3z"/>
	</g>
</g>
</svg>
